<svg width="80" height="20" viewBox="0 0 80 20" fill="none" xmlns="http://www.w3.org/2000/svg">
<path d="M0 19.7271V3.82031H5.54593C10.3356 3.82031 13.159 7.526 13.159 11.8871C13.159 15.9962 10.386 19.7271 5.82323 19.7271H0ZM1.73941 18.7439C1.73941 19.0212 1.99149 19.2733 2.26879 19.2733H4.99134C9.07516 19.2733 11.2431 15.4416 11.2431 11.8619C11.2431 8.05539 9.04996 4.24886 4.71404 4.24886H2.26879C1.99149 4.24886 1.73941 4.50095 1.73941 4.77825V18.7439Z" fill="#EBEEF5"/>
<path d="M32.624 19.7268V3.82007H39.4556C42.0269 3.82007 44.4469 5.30739 44.4469 8.05514C44.4469 10.3239 42.8588 11.66 40.6908 12.1642C40.6908 12.1642 40.6404 12.1642 40.59 12.1894C40.5648 12.1894 40.5144 12.1894 40.4892 12.2146C40.4135 12.2398 40.4135 12.265 40.4135 12.2902C40.4135 12.4415 44.3209 18.6933 44.7999 19.5251L44.9259 19.7268H42.8588L38.6741 12.7944C38.4725 12.4919 38.2456 12.2902 37.8675 12.2902H34.8172C34.5651 12.2902 34.3382 12.4919 34.3382 12.744V19.7268H32.624ZM34.3382 11.3827C34.3382 11.6348 34.5651 11.8365 34.8172 11.8365H38.6237C40.9429 11.8365 42.5059 10.2987 42.5059 8.05514C42.5059 5.81156 40.9429 4.27383 38.6237 4.27383H34.8172C34.5651 4.27383 34.3382 4.4755 34.3382 4.72758V11.3827Z" fill="#EBEEF5"/>
<path d="M48.2314 19.7271V3.82031H48.9373L55.8949 17.3322C55.9453 17.3826 55.9958 17.4078 56.0462 17.4078C56.0966 17.4078 56.147 17.3826 56.147 17.3322L62.4996 3.82031H63.4576V19.7271H61.6929V7.17308C61.6929 7.09745 61.6425 7.04704 61.5921 7.04704C61.5417 7.04704 61.5165 7.04704 61.4913 7.12266L55.5924 19.7271H55.1639L48.9373 7.65205C48.9121 7.62684 48.8617 7.57642 48.8112 7.57642C48.7608 7.57642 48.7104 7.62684 48.7104 7.70247V19.7271H48.2314Z" fill="#EBEEF5"/>
<path d="M72.9136 3.82031L66.7627 19.7271H67.2165L69.0819 14.9374L69.5861 13.6517L72.4347 6.31598C72.4347 6.26556 72.4599 6.26556 72.5103 6.26556C72.5607 6.26556 72.6111 6.29077 72.6111 6.31598L75.4849 13.6517L75.9639 14.9374L77.8546 19.7271H79.6192L73.4178 3.82031H72.9136Z" fill="#EBEEF5"/>
<path d="M25.8125 0.0146484L30.0732 4.29688L30.0576 10.3359L25.7764 14.5967L19.7363 14.5811L15.4766 10.2998L15.4912 4.25977L19.7734 0L25.8125 0.0146484ZM16.6787 4.75488L16.666 9.81055L20.2314 13.3945L25.2871 13.4072L28.8711 9.84082L28.8838 4.78516L25.3174 1.20215L20.2627 1.18945L16.6787 4.75488Z" fill="#EBEEF5"/>
<path d="M24.9082 2.17322L27.9062 5.18591L27.8955 9.43591L24.8828 12.434L20.6328 12.4232L17.6348 9.41052L17.6455 5.16052L20.6582 2.16248L24.9082 2.17322ZM18.293 5.43005L18.2832 9.14294L20.9023 11.7758L24.6152 11.7845L27.248 9.16541L27.2568 5.45251L24.6377 2.82068L20.9248 2.81091L18.293 5.43005Z" fill="#EBEEF5"/>
<path d="M22.6138 3.82031L16.4629 19.7271H16.9166L18.7821 14.9374L19.2863 13.6517L22.1349 6.31598C22.1349 6.26556 22.1601 6.26556 22.2105 6.26556C22.2609 6.26556 22.3113 6.29077 22.3113 6.31598L25.1851 13.6517L25.6641 14.9374L27.5548 19.7271H29.3194L23.118 3.82031H22.6138Z" fill="#EBEEF5"/>
<path fill-rule="evenodd" clip-rule="evenodd" d="M24.9084 2.17321L27.9062 5.18605L27.8955 9.43609L24.8826 12.4339L20.6326 12.4233L17.6348 9.41046L17.6454 5.16029L20.6582 2.16248L24.9084 2.17321ZM18.2928 5.43033L18.2835 9.14358L20.9026 11.7759L24.6159 11.7851L27.2482 9.16605L27.2574 5.4528L24.6383 2.82047L20.9251 2.81125L18.2928 5.43033Z" fill="#EBEEF5"/>
<path d="M23.1182 3.82007H22.614L22.3115 6.31574L25.1853 13.6515L25.6643 14.9371L27.555 19.7268H29.3196L23.1182 3.82007Z" fill="#EBEEF5"/>
</svg>
