<svg width="60" height="21" viewBox="0 0 60 21" fill="none" xmlns="http://www.w3.org/2000/svg">
<path d="M58.5022 3.5726C58.571 3.50384 58.571 3.43509 58.571 3.36633C58.571 3.29758 58.571 3.22882 58.5022 3.16007C58.4335 3.09131 58.3647 3.09131 58.296 3.09131C58.2272 3.09131 58.1585 3.09131 58.0897 3.16007C58.021 3.22882 58.021 3.29758 58.021 3.36633C58.021 3.43509 58.021 3.50384 58.0897 3.5726C58.1585 3.64135 58.2272 3.64135 58.296 3.64135C58.4335 3.64135 58.5022 3.64135 58.5022 3.5726ZM58.7773 2.9538C58.846 3.02256 58.9148 3.16007 58.9148 3.36633C58.9148 3.50384 58.846 3.64135 58.7773 3.77886C58.7085 3.84761 58.571 3.91637 58.4335 3.91637C58.296 3.91637 58.2272 3.84761 58.0897 3.77886V4.3289H57.7459V2.81629H58.0897V2.88505C58.1585 2.81629 58.296 2.74754 58.4335 2.74754C58.571 2.81629 58.7085 2.88505 58.7773 2.9538Z" fill="#EBEEF5"/>
<path d="M8.23998 11.5402C8.72126 10.9902 8.99628 10.3026 8.99628 9.41145C8.99628 8.58639 8.72126 7.89885 8.23998 7.35145C7.75869 6.80142 7.07379 6.5264 6.31749 6.5264C5.56119 6.5264 4.94504 6.80142 4.39501 7.35145C3.84497 7.90149 3.56995 8.58904 3.56995 9.41145C3.56995 10.2339 3.84497 10.9241 4.39501 11.4714C4.94504 12.0188 5.56119 12.2965 6.31749 12.2965C7.14255 12.2965 7.75869 12.0215 8.23998 11.5402ZM10.9188 5.15131C11.9474 6.25138 12.4975 7.69258 12.4975 9.41145C12.4975 11.1303 11.9474 12.5715 10.9188 13.6716C9.88744 14.7717 8.58375 15.3191 7.07379 15.3191C5.56383 15.3191 4.46376 14.9065 3.5726 14.0127V20.3329H0V3.77886H3.56995V4.81018C4.46376 3.91637 5.62994 3.50384 7.07115 3.50384C8.51235 3.50384 9.88744 4.05388 10.9161 5.15131H10.9188Z" fill="#EBEEF5"/>
<path d="M17.9899 6.80142C17.5086 7.14519 17.2336 7.55772 17.0961 8.10776H21.6974C21.5599 7.55772 21.2161 7.07644 20.8723 6.80142C20.4598 6.5264 19.9785 6.32014 19.4999 6.32014C18.8811 6.32014 18.4024 6.45765 17.9899 6.80142ZM25.2012 10.3053H17.03C17.1675 10.9928 17.4425 11.4741 17.9238 11.8866C18.3363 12.2991 18.8864 12.4367 19.4338 12.4367C20.5312 12.4367 21.3562 12.0241 21.8375 11.1303L24.9949 11.7491C24.5137 12.9179 23.8288 13.8091 22.8662 14.3591C21.9036 14.9779 20.8062 15.2529 19.5025 15.2529C17.855 15.2529 16.48 14.7029 15.3138 13.6055C14.0788 12.5054 13.5288 11.133 13.5288 9.34534C13.5288 7.55772 14.0788 6.18527 15.245 5.0852C16.4112 3.98512 17.7863 3.43773 19.4338 3.43773C21.0812 3.43773 22.3876 3.98777 23.485 5.0852C24.5824 6.18527 25.1325 7.62647 25.2012 9.41409V10.3079V10.3053Z" fill="#EBEEF5"/>
<path d="M42.7098 11.609C42.1598 11.884 41.6812 12.0215 41.0624 12.0215C40.0337 12.0215 39.5524 11.4714 39.5524 10.374V6.5264H42.8473V3.77886H39.5524V0L35.9825 2.12875V3.77622H33.5099C31.8625 3.77622 30.8999 4.46376 29.94 5.97372V3.77622H26.37V15.044H29.94V11.5402C29.94 8.79266 31.1749 6.66126 33.7162 6.59515H35.9825V10.8553C35.9825 12.2991 36.395 13.3966 37.1486 14.1529C37.9049 14.9092 39.0024 15.3217 40.4436 15.3217C41.4723 15.3217 42.5036 15.0467 43.4661 14.4966L42.7098 11.6116V11.609Z" fill="#EBEEF5"/>
<path d="M52.0499 11.4027C52.5999 10.8527 52.8749 10.1651 52.8749 9.3427C52.8749 8.52028 52.5999 7.83009 52.0499 7.2827C51.4998 6.73531 50.8837 6.45765 50.1962 6.45765C49.4399 6.45765 48.8237 6.73266 48.2737 7.2827C47.7236 7.83274 47.4486 8.52028 47.4486 9.3427C47.4486 10.1651 47.7236 10.8553 48.2737 11.4027C48.8237 11.9527 49.4399 12.2277 50.1962 12.2277C50.8837 12.2277 51.4998 11.9527 52.0499 11.4027ZM54.5198 5.08255C55.6859 6.18263 56.3047 7.62383 56.3047 9.3427C56.3047 11.0616 55.6859 12.5028 54.5198 13.6028C53.2848 14.7029 51.841 15.2503 50.1248 15.2503C48.4085 15.2503 46.8986 14.7003 45.7297 13.6028C44.5636 12.5028 43.9448 11.0616 43.9448 9.3427C43.9448 7.62383 44.5636 6.18263 45.7297 5.08255C46.8959 3.98248 48.4085 3.43509 50.1248 3.43509C51.841 3.43509 53.2822 3.98512 54.5198 5.08255Z" fill="#EBEEF5"/>
<path d="M59.1898 4.53516C58.9148 4.81018 58.6397 4.94769 58.2272 4.94769C57.8834 4.94769 57.5397 4.81018 57.2647 4.53516C57.0584 4.26014 56.9209 3.98512 56.9209 3.5726C56.9209 3.16007 57.0584 2.81629 57.3334 2.61003C57.5397 2.33501 57.8834 2.1975 58.2272 2.1975C58.571 2.1975 58.9148 2.33501 59.1898 2.61003C59.4648 2.88505 59.6023 3.22882 59.6023 3.5726C59.6023 3.91637 59.4648 4.26014 59.1898 4.53516ZM59.396 2.40377C59.0523 2.05999 58.7085 1.92248 58.2299 1.92248C57.7512 1.92248 57.4048 2.05999 57.0637 2.40377C56.7887 2.67879 56.6512 3.09131 56.6512 3.5726C56.6512 4.05388 56.7887 4.39765 57.1324 4.74142C57.4762 5.01644 57.82 5.22271 58.2986 5.22271C58.7773 5.22271 59.1237 5.0852 59.4648 4.74142C59.8086 4.46641 59.9461 4.05388 59.9461 3.5726C59.8773 3.09131 59.7398 2.67879 59.396 2.40377Z" fill="#EBEEF5"/>
</svg>
