<svg width="59" height="20" viewBox="0 0 59 20" fill="none" xmlns="http://www.w3.org/2000/svg">
<path d="M17.4196 3.34629C15.5962 1.29241 12.9346 0 9.96902 0C4.46405 0 0 4.46405 0 9.96902C0 10.7165 0.083832 11.4466 0.241017 12.1487L5.7879 6.60177L16.6022 17.4161C16.8991 17.1541 17.1786 16.8712 17.4405 16.5743L10.8178 9.94806L17.4266 3.33931L17.4196 3.34629ZM54.9868 10.3463H22.6975V10.1297H54.9868V10.3463ZM57.3027 12.959L57.1385 13.4585H57.4668L57.3061 12.959H57.3027ZM56.9499 12.2534H57.6694L58.4553 14.2689H57.7183L57.6135 13.972H56.9743L56.873 14.2689H56.157L56.9499 12.2534ZM53.6979 13.1057H53.8306L53.904 13.0987L53.9808 13.0743L54.0402 13.0219C54.0577 13.0009 54.0646 12.9695 54.0646 12.9346C54.0646 12.8996 54.0577 12.8717 54.0437 12.8507L53.9913 12.8053L53.9249 12.7844H53.8586L53.6979 12.7809V13.1057ZM53.9179 12.2534C54.0157 12.2534 54.1135 12.2639 54.2113 12.2849C54.3092 12.3058 54.3965 12.3408 54.4733 12.3897C54.5502 12.4386 54.613 12.5084 54.6619 12.5923C54.7074 12.6761 54.7318 12.7809 54.7318 12.9101C54.7318 13.0394 54.7004 13.1442 54.641 13.235C54.5816 13.3293 54.4943 13.4026 54.379 13.4515L54.889 14.2689H54.1101L53.7223 13.5493H53.7014V14.2689H53.0447V12.2534H53.9179ZM49.9324 13.2524C49.9324 13.3188 49.9429 13.3782 49.9639 13.4341C49.9848 13.49 50.0128 13.5354 50.0477 13.5773C50.0826 13.6157 50.1245 13.6471 50.1734 13.6681C50.2223 13.6891 50.2747 13.6995 50.3341 13.6995C50.3935 13.6995 50.4424 13.6891 50.4913 13.6681C50.5402 13.6471 50.5821 13.6157 50.6171 13.5773C50.652 13.5389 50.6799 13.49 50.7009 13.4341C50.7218 13.3782 50.7323 13.3188 50.7323 13.2524C50.7323 13.1861 50.7218 13.1302 50.7009 13.0743C50.6799 13.0219 50.652 12.9765 50.6171 12.9381C50.5821 12.8996 50.5402 12.8717 50.4913 12.8507C50.4424 12.8298 50.39 12.8193 50.3341 12.8193C50.2782 12.8193 50.2223 12.8298 50.1734 12.8507C50.1245 12.8717 50.0826 12.8996 50.0477 12.9381C50.0128 12.9765 49.9848 13.0219 49.9639 13.0743C49.9429 13.1302 49.9324 13.1896 49.9324 13.2524ZM49.2094 13.2524C49.2094 13.0918 49.2373 12.9451 49.2932 12.8158C49.3491 12.6866 49.4294 12.5748 49.5272 12.484C49.6285 12.3932 49.7438 12.3233 49.88 12.2744C50.0163 12.2255 50.1665 12.201 50.3236 12.201C50.4808 12.201 50.631 12.2255 50.7673 12.2744C50.9035 12.3233 51.0222 12.3932 51.1235 12.484C51.2248 12.5748 51.3017 12.6866 51.3611 12.8158C51.4169 12.9451 51.4449 13.0918 51.4449 13.2524C51.4449 13.4131 51.4169 13.5598 51.3611 13.6926C51.3052 13.8253 51.2248 13.9406 51.1235 14.0314C51.0222 14.1257 50.9035 14.199 50.7673 14.2479C50.631 14.3003 50.4808 14.3248 50.3236 14.3248C50.1665 14.3248 50.0163 14.3003 49.88 14.2479C49.7438 14.1955 49.625 14.1257 49.5272 14.0314C49.4259 13.9371 49.3491 13.8253 49.2932 13.6926C49.2373 13.5598 49.2094 13.4131 49.2094 13.2524ZM47.3721 14.2689H46.6944V12.8263H46.1984V12.2534H47.8681V12.8263H47.3721V14.2689ZM43.7568 14.3283C43.5996 14.3283 43.4634 14.3073 43.3446 14.2619C43.2294 14.2165 43.1316 14.1571 43.0512 14.0838C42.9744 14.0069 42.915 13.9196 42.8766 13.8148C42.8381 13.71 42.8207 13.5982 42.8207 13.4795V12.2534H43.4983V13.4026C43.4983 13.5004 43.5228 13.5738 43.5682 13.6297C43.6136 13.6821 43.68 13.71 43.7673 13.71C43.8546 13.71 43.9175 13.6821 43.9664 13.6297C44.0118 13.5773 44.0362 13.5004 44.0362 13.4026V12.2534H44.7104V13.4795C44.7104 13.5982 44.6894 13.71 44.6475 13.8148C44.6056 13.9196 44.5462 14.0069 44.4659 14.0838C44.3855 14.1606 44.2877 14.22 44.169 14.2619C44.0502 14.3038 43.9105 14.3283 43.7533 14.3283M40.159 13.1057H40.2917L40.3651 13.0987L40.4419 13.0743L40.5013 13.0219C40.5188 13.0009 40.5258 12.9695 40.5258 12.9346C40.5258 12.8996 40.5188 12.8717 40.5048 12.8507L40.4524 12.8053L40.3861 12.7844H40.3197L40.159 12.7809V13.1057ZM40.3756 12.2534C40.4734 12.2534 40.5712 12.2639 40.669 12.2849C40.7668 12.3058 40.8541 12.3408 40.931 12.3897C41.0078 12.4386 41.0707 12.5084 41.1161 12.5923C41.1615 12.6761 41.186 12.7809 41.186 12.9101C41.186 13.0394 41.1545 13.1442 41.0951 13.235C41.0358 13.3293 40.9484 13.4026 40.8332 13.4515L41.3431 14.2689H40.5642L40.18 13.5493H40.159V14.2689H39.5023V12.2534H40.3756ZM37.4939 14.2689H36.8162V12.8263H36.3202V12.2534H37.9899V12.8263H37.4939V14.2689ZM34.1161 14.3283C34.0358 14.3283 33.9554 14.3213 33.8751 14.3073C33.7948 14.2934 33.7214 14.2724 33.6481 14.2444C33.5747 14.2165 33.5048 14.1851 33.442 14.1466C33.3791 14.1082 33.3197 14.0698 33.2673 14.0244L33.6795 13.5773C33.7284 13.6297 33.7913 13.6751 33.8681 13.7135C33.9485 13.7519 34.0288 13.7729 34.1126 13.7729C34.1511 13.7729 34.186 13.7659 34.2174 13.7519C34.2489 13.738 34.2628 13.7135 34.2628 13.6786L34.2489 13.6297L34.193 13.5878C34.165 13.5738 34.1301 13.5598 34.0847 13.5424C34.0393 13.5249 33.9799 13.5039 33.91 13.483C33.8402 13.4585 33.7773 13.4341 33.7144 13.4026C33.6516 13.3712 33.5957 13.3328 33.5468 13.2874C33.4979 13.242 33.4594 13.1861 33.4315 13.1232C33.4036 13.0603 33.3896 12.9835 33.3896 12.8927C33.3896 12.7669 33.414 12.6621 33.4664 12.5713C33.5188 12.484 33.5852 12.4106 33.6655 12.3547C33.7459 12.2988 33.8367 12.2569 33.938 12.2325C34.0393 12.208 34.1371 12.1941 34.2384 12.1941C34.3711 12.1941 34.5073 12.2185 34.6436 12.2709C34.7798 12.3233 34.9021 12.3967 35.0068 12.4945L34.5842 12.9241C34.5388 12.8682 34.4829 12.8228 34.4165 12.7949C34.3502 12.7634 34.2908 12.7494 34.2384 12.7494C34.1895 12.7494 34.1476 12.7564 34.1196 12.7704C34.0882 12.7844 34.0742 12.8088 34.0742 12.8403L34.1196 12.9066C34.1511 12.9206 34.2035 12.9416 34.2733 12.9625C34.3467 12.987 34.42 13.0114 34.5004 13.0429C34.5807 13.0743 34.654 13.1127 34.7204 13.1616C34.7868 13.2105 34.8427 13.2699 34.8881 13.3398C34.9335 13.4096 34.9544 13.4969 34.9544 13.6017C34.9544 13.724 34.93 13.8288 34.8811 13.9196C34.8322 14.0104 34.7693 14.0838 34.689 14.1466C34.6086 14.206 34.5213 14.2514 34.4235 14.2794C34.3257 14.3073 34.2244 14.3248 34.1231 14.3248M29.8931 12.2534H30.5672L31.1436 13.2769H31.1541L31.1261 12.2534H31.7688V14.2689H31.0772L30.5183 13.3048H30.5079L30.5358 14.2689H29.8931V12.2534ZM26.7773 13.2524C26.7773 13.3188 26.7878 13.3782 26.8088 13.4341C26.8297 13.49 26.8542 13.5354 26.8926 13.5773C26.9275 13.6157 26.9694 13.6471 27.0183 13.6681C27.0673 13.6891 27.1196 13.6995 27.179 13.6995C27.2384 13.6995 27.2873 13.6891 27.3362 13.6681C27.3851 13.6471 27.427 13.6157 27.462 13.5773C27.4969 13.5389 27.5248 13.49 27.5458 13.4341C27.5668 13.3782 27.5737 13.3188 27.5737 13.2524C27.5737 13.1861 27.5633 13.1302 27.5458 13.0743C27.5248 13.0219 27.4969 12.9765 27.462 12.9381C27.427 12.8996 27.3816 12.8717 27.3362 12.8507C27.2873 12.8298 27.2349 12.8193 27.179 12.8193C27.1231 12.8193 27.0673 12.8298 27.0183 12.8507C26.9694 12.8717 26.9275 12.8996 26.8926 12.9381C26.8577 12.9765 26.8297 13.0219 26.8088 13.0743C26.7878 13.1302 26.7773 13.1896 26.7773 13.2524ZM26.0543 13.2524C26.0543 13.0918 26.0822 12.9451 26.1381 12.8158C26.194 12.6866 26.2743 12.5748 26.3721 12.484C26.4734 12.3932 26.5887 12.3233 26.7284 12.2744C26.8647 12.2255 27.0149 12.201 27.172 12.201C27.3292 12.201 27.4794 12.2255 27.6157 12.2744C27.7519 12.3233 27.8706 12.3932 27.9719 12.484C28.0732 12.5748 28.1501 12.6866 28.2095 12.8158C28.2654 12.9451 28.2933 13.0918 28.2933 13.2524C28.2933 13.4131 28.2654 13.5598 28.2095 13.6926C28.1536 13.8253 28.0732 13.9406 27.9719 14.0314C27.8706 14.1257 27.7519 14.199 27.6157 14.2479C27.4794 14.3003 27.3292 14.3248 27.172 14.3248C27.0149 14.3248 26.8647 14.3003 26.7284 14.2479C26.5922 14.1955 26.4734 14.1257 26.3721 14.0314C26.2743 13.9371 26.194 13.8253 26.1381 13.6926C26.0822 13.5598 26.0543 13.4131 26.0543 13.2524ZM22.7953 13.2629C22.7953 13.1022 22.8233 12.9555 22.8791 12.8228C22.935 12.6901 23.0154 12.5783 23.1132 12.4875C23.211 12.3932 23.3297 12.3233 23.4625 12.2709C23.5952 12.222 23.7384 12.1941 23.8921 12.1941C24.0458 12.1941 24.196 12.2185 24.3322 12.2709C24.472 12.3198 24.5872 12.3897 24.678 12.4735L24.2624 12.973C24.224 12.9241 24.1785 12.8857 24.1192 12.8612C24.0633 12.8368 23.9969 12.8228 23.927 12.8228C23.8712 12.8228 23.8153 12.8333 23.7664 12.8542C23.7175 12.8752 23.6755 12.9031 23.6371 12.9416C23.5987 12.98 23.5708 13.0254 23.5498 13.0813C23.5288 13.1372 23.5184 13.1966 23.5184 13.2629C23.5184 13.3293 23.5288 13.3887 23.5498 13.4411C23.5708 13.4935 23.6022 13.5389 23.6371 13.5773C23.6755 13.6157 23.7175 13.6437 23.7664 13.6646C23.8153 13.6856 23.8677 13.696 23.9236 13.696C24.0004 13.696 24.0668 13.6786 24.1227 13.6471C24.1785 13.6157 24.224 13.5773 24.2554 13.5319L24.6711 14.0314C24.5802 14.1222 24.4685 14.1955 24.3357 14.2479C24.203 14.3038 24.0528 14.3283 23.8816 14.3283C23.7279 14.3283 23.5882 14.3038 23.452 14.2514C23.3193 14.199 23.2005 14.1292 23.1027 14.0349C23.0049 13.9406 22.928 13.8288 22.8687 13.6995C22.8128 13.5703 22.7848 13.4236 22.7848 13.2664M46.0307 7.20606C46.0307 7.09777 46.0133 6.99298 45.9784 6.89518C45.9434 6.79738 45.891 6.71005 45.8247 6.6367C45.7583 6.56335 45.678 6.50396 45.5836 6.46205C45.4893 6.42013 45.3845 6.39917 45.2658 6.39917C45.147 6.39917 45.0457 6.42013 44.9514 6.46205C44.8571 6.50396 44.7768 6.56335 44.7139 6.6367C44.6475 6.71005 44.5986 6.79738 44.5602 6.89518C44.5253 6.99298 44.5078 7.09777 44.5078 7.20606C44.5078 7.31434 44.5253 7.42262 44.5602 7.52043C44.5951 7.61823 44.6475 7.70556 44.7139 7.77891C44.7803 7.85226 44.8606 7.90815 44.9514 7.95007C45.0457 7.99198 45.1505 8.01294 45.2658 8.01294C45.381 8.01294 45.4858 7.99198 45.5802 7.95007C45.6745 7.90815 45.7548 7.85226 45.8212 7.77891C45.8875 7.70556 45.9399 7.61823 45.9749 7.52043C46.0098 7.42262 46.0273 7.31783 46.0273 7.20606M46.3381 7.20606C46.3381 7.36324 46.3102 7.50646 46.2578 7.6357C46.2054 7.76494 46.1285 7.87671 46.0342 7.97102C45.9399 8.06533 45.8247 8.13869 45.6954 8.19108C45.5662 8.24348 45.423 8.27142 45.2693 8.27142C45.1156 8.27142 44.9724 8.24348 44.8431 8.19108C44.7139 8.13869 44.6021 8.06533 44.5043 7.97102C44.41 7.87671 44.3366 7.76494 44.2808 7.6357C44.2284 7.50646 44.2004 7.36324 44.2004 7.20606C44.2004 7.04887 44.2284 6.90566 44.2808 6.77292C44.3331 6.64368 44.41 6.53191 44.5043 6.44109C44.5986 6.35027 44.7104 6.27692 44.8431 6.22452C44.9724 6.17213 45.1156 6.14768 45.2693 6.14768C45.423 6.14768 45.5662 6.17213 45.6954 6.22452C45.8282 6.27692 45.9399 6.34678 46.0342 6.44109C46.1285 6.53191 46.2054 6.64368 46.2578 6.77292C46.3102 6.90217 46.3381 7.04538 46.3381 7.20606ZM41.5248 7.0838H41.8496C41.916 7.0838 41.9789 7.07682 42.0348 7.06634C42.0906 7.05586 42.143 7.0349 42.185 7.01045C42.2269 6.986 42.2618 6.95107 42.2862 6.90915C42.3107 6.86724 42.3247 6.81833 42.3247 6.75546C42.3247 6.69259 42.3107 6.64368 42.2862 6.60177C42.2618 6.55985 42.2304 6.52842 42.1884 6.50396C42.1465 6.47951 42.1011 6.46205 42.0452 6.45157C41.9893 6.44109 41.9335 6.4376 41.8706 6.4376H41.5248V7.0838ZM41.5248 8.21903H41.2418V6.20357H41.888C41.9859 6.20357 42.0767 6.21405 42.164 6.23151C42.2513 6.25247 42.3282 6.28391 42.3945 6.32582C42.4609 6.36774 42.5098 6.42712 42.5482 6.49698C42.5866 6.56684 42.6041 6.65416 42.6041 6.75895C42.6041 6.90566 42.5587 7.02791 42.4679 7.11873C42.3771 7.20955 42.2583 7.26893 42.1151 7.29338L42.6775 8.21903H42.3352L41.8217 7.32133H41.5213V8.21903H41.5248ZM39.4429 8.21903H39.16V6.20357H39.4429V8.21903ZM36.4215 7.96753H37.4764V8.21903H36.1421V6.20357H37.4345V6.45157H36.4215V7.05586H37.3716V7.29687H36.4215V7.96753ZM34.0533 7.81384H34.0602V6.20357H34.3432V8.21903H33.9869L32.9215 6.57382H32.9145V8.21903H32.6316V6.20357H32.9984L34.0533 7.81384ZM29.8547 7.0838H30.1795C30.2459 7.0838 30.3088 7.07682 30.3646 7.06634C30.4205 7.05586 30.4729 7.0349 30.5148 7.01045C30.5568 6.986 30.5917 6.95107 30.6161 6.90915C30.6406 6.86724 30.6546 6.81833 30.6546 6.75546C30.6546 6.69259 30.6406 6.64368 30.6161 6.60177C30.5917 6.55985 30.5603 6.52842 30.5183 6.50396C30.4764 6.47951 30.431 6.46205 30.3751 6.45157C30.3192 6.44109 30.2633 6.4376 30.2005 6.4376H29.8547V7.0838ZM29.8547 8.21903H29.5717V6.20357H30.2179C30.3157 6.20357 30.4066 6.21405 30.4939 6.23151C30.5812 6.25247 30.6581 6.28391 30.7244 6.32582C30.7908 6.36774 30.8432 6.42712 30.8816 6.49698C30.92 6.56684 30.9375 6.65416 30.9375 6.75895C30.9375 6.90566 30.8921 7.02791 30.8013 7.11873C30.7105 7.20955 30.5917 7.26893 30.4485 7.29338L31.0143 8.21903H30.672L30.1586 7.32133H29.8547V8.21903ZM26.6236 7.47502H27.3781L27.0009 6.52842L26.6236 7.47502ZM26.3197 8.21903H26.0054L26.8786 6.20357H27.1336L27.9999 8.21903H27.682L27.4759 7.72302H26.5189L26.3163 8.21903H26.3197ZM24.6745 7.90466C24.5942 8.01294 24.4929 8.10026 24.3637 8.16663C24.2344 8.233 24.0842 8.26793 23.9061 8.26793C23.7524 8.26793 23.6092 8.24348 23.4799 8.19108C23.3507 8.13869 23.2389 8.06533 23.1446 7.97102C23.0503 7.87671 22.9769 7.76494 22.9246 7.6357C22.8722 7.50646 22.8442 7.36324 22.8442 7.20606C22.8442 7.04887 22.8722 6.90566 22.9246 6.77292C22.9769 6.64368 23.0538 6.53191 23.1481 6.44109C23.2424 6.35027 23.3577 6.27692 23.4869 6.22452C23.6162 6.17213 23.7594 6.14768 23.9131 6.14768C23.9829 6.14768 24.0528 6.15466 24.1227 6.16864C24.1925 6.18261 24.2589 6.20007 24.3252 6.22802C24.3881 6.25596 24.4475 6.2874 24.5034 6.32582C24.5558 6.36424 24.6012 6.40965 24.6396 6.46205L24.4161 6.63321C24.3672 6.56335 24.2973 6.50746 24.2065 6.46205C24.1157 6.41664 24.0179 6.39568 23.9131 6.39568C23.7943 6.39568 23.6895 6.41664 23.5952 6.45856C23.5009 6.50047 23.4206 6.55985 23.3542 6.63321C23.2878 6.70656 23.2354 6.79388 23.2005 6.89169C23.1656 6.98949 23.1481 7.09428 23.1481 7.20256C23.1481 7.31085 23.1656 7.42262 23.2005 7.52043C23.2354 7.61823 23.2843 7.70556 23.3507 7.77891C23.4171 7.85226 23.4974 7.90815 23.5917 7.95007C23.686 7.99198 23.7908 8.01294 23.9061 8.01294C24.0214 8.01294 24.1227 7.98849 24.217 7.94308C24.3113 7.89767 24.3881 7.8313 24.4475 7.74398L24.6711 7.89767L24.6745 7.90466ZM42.5797 4.44659L42.2024 3.49999L41.8217 4.44659H42.5797ZM41.5248 5.1906H41.2104L42.0837 3.17514H42.3386L43.2049 5.1906H42.887L42.681 4.69459H41.7239L41.5213 5.1906H41.5248ZM38.3147 4.94259H38.6675C38.7898 4.94259 38.9015 4.92513 39.0063 4.8902C39.1111 4.85527 39.1984 4.80637 39.2753 4.74349C39.3486 4.68062 39.408 4.60028 39.4499 4.50248C39.4919 4.40816 39.5128 4.29988 39.5128 4.18112C39.5128 4.05537 39.4919 3.94709 39.4499 3.84929C39.408 3.75497 39.3486 3.67464 39.2753 3.61176C39.2019 3.54889 39.1111 3.49999 39.0063 3.46506C38.9015 3.43362 38.7898 3.41615 38.6675 3.41615H38.3147V4.94259ZM38.0318 3.17164H38.7234C38.8526 3.17164 38.9819 3.18911 39.1111 3.22753C39.2404 3.26595 39.3556 3.32534 39.4604 3.40567C39.5652 3.48601 39.649 3.5908 39.7154 3.72004C39.7783 3.84579 39.8132 3.99948 39.8132 4.17763C39.8132 4.35577 39.7818 4.49898 39.7154 4.62473C39.649 4.75048 39.5652 4.85527 39.4604 4.9391C39.3556 5.02293 39.2404 5.08231 39.1111 5.12423C38.9819 5.16615 38.8526 5.1871 38.7234 5.1871H38.0318V3.17164ZM36.2329 5.1906H35.9499V3.17514H36.2329V5.1906ZM33.2079 4.9391H34.2628V5.1906H32.9285V3.17514H34.2209V3.42314H33.2079V4.02743H34.158V4.26844H33.2079V4.9391ZM30.0887 4.72253H30.0957L30.6895 3.17514H31.1296V5.1906H30.8467V3.50348H30.8397L30.169 5.1906H29.9909L29.3237 3.50348H29.3167V5.1906H29.0443V3.17514H29.4844L30.0887 4.72253ZM26.5608 4.9391H27.462V5.1906H26.2813V3.17514H26.5643V4.94259L26.5608 4.9391ZM23.3297 4.44659H24.0842L23.707 3.49999L23.3297 4.44659ZM23.0259 5.1906H22.7115L23.5847 3.17514H23.8397L24.706 5.1906H24.3881L24.182 4.69459H23.225L23.0224 5.1906H23.0259ZM19.9415 9.96902C19.9415 7.66015 19.1556 5.5364 17.8387 3.84579L11.733 9.95155L17.8527 16.0713C19.1591 14.3842 19.938 12.2674 19.938 9.96902M0.464569 12.98C1.73951 17.0144 5.51545 19.9415 9.97251 19.9415C12.2499 19.9415 14.3457 19.1801 16.0224 17.8946L5.78441 7.66015L0.464569 12.98Z" fill="#EBEEF5"/>
</svg>
