<svg width="71" height="16" viewBox="0 0 71 16" fill="none" xmlns="http://www.w3.org/2000/svg">
<path d="M1.85098 11.8068C1.85098 11.716 1.92426 11.6411 2.01667 11.6411L2.51213 11.99L8.2363 11.6411C8.32711 11.6411 8.40199 11.7144 8.40199 11.8068V12.5396C8.40199 12.6304 8.32871 12.7053 8.2363 12.7053H2.01507C1.92426 12.7053 1.84939 12.632 1.84939 12.5396V11.8068H1.85098ZM4.56092 5.10921H5.60283C5.66815 5.10921 5.72869 5.14904 5.75418 5.20799L10.164 15.3611C10.2118 15.4694 10.1321 15.5921 10.0127 15.5921H9.11572C9.0504 15.5921 8.98986 15.5523 8.96437 15.4917L4.62783 5.42784C4.58163 5.31951 4.66129 5.19684 4.77918 5.19684H5.34156C5.45945 5.19684 5.5407 5.31792 5.49291 5.42784L1.17071 15.4933C1.14522 15.5539 1.08468 15.5937 1.01936 15.5937H0.165433C0.045947 15.5937 -0.0337102 15.4726 0.0140841 15.3627L4.40957 5.20799C4.43506 5.14745 4.4956 5.10921 4.56092 5.10921Z" fill="#EBEEF5"/>
<path d="M11.1215 7.6678C11.2123 7.6678 11.2856 7.74109 11.2856 7.8319V12.2624C11.2856 12.7021 11.3828 13.0941 11.5771 13.4382C11.7715 13.7807 12.0439 14.0483 12.3912 14.2379C12.7385 14.4275 13.1288 14.5215 13.559 14.5215C13.9891 14.5215 14.3779 14.4275 14.7268 14.2379C15.0741 14.0483 15.3465 13.7823 15.5409 13.4382C15.7352 13.0956 15.8324 12.7037 15.8324 12.2624V7.8319C15.8324 7.74109 15.9057 7.6678 15.9965 7.6678H16.8218C16.9126 7.6678 16.9858 7.74109 16.9858 7.8319V12.2624C16.9858 12.9077 16.8377 13.4844 16.5398 13.991C16.2434 14.4976 15.8356 14.8927 15.3178 15.1731C14.8001 15.4551 14.2138 15.5953 13.559 15.5953C12.9042 15.5953 12.3163 15.4551 11.8002 15.1731C11.2824 14.8911 10.8761 14.4976 10.5782 13.991C10.2803 13.4844 10.1321 12.9077 10.1321 12.2624V7.8319C10.1321 7.74109 10.2054 7.6678 10.2962 7.6678H11.1215Z" fill="#EBEEF5"/>
<path d="M25.0567 5.1124H25.8629C25.96 5.1124 26.0397 5.19046 26.0397 5.28605L26.1433 15.4089C26.1433 15.5045 26.0636 15.5825 25.9664 15.5825H25.1603C25.0631 15.5825 24.9834 15.5045 25.087 15.4089L24.9834 5.28605C24.8799 5.19046 24.9595 5.1124 25.0567 5.1124ZM19.4234 13.2342C19.6815 13.6851 20.0319 14.0372 20.4748 14.2905C20.9177 14.5438 21.5152 14.6713 22.0616 14.6713C22.6081 14.6713 23.1019 14.5454 23.5464 14.2905C23.9893 14.0372 24.3398 13.6851 24.5979 13.2342C24.856 12.7834 24.985 12.2847 24.985 11.7367C24.985 11.1887 24.856 10.69 24.5979 10.2391C24.3398 9.78828 23.9893 9.43619 23.5464 9.18288C23.1035 8.92957 22.6081 8.80212 22.0616 8.80212C21.5152 8.80212 20.9177 8.92957 20.4748 9.18288C20.0319 9.43619 19.6815 9.78828 19.4234 10.2391C19.1653 10.69 19.0362 11.1887 19.0362 11.7367C19.0362 12.2847 19.1653 12.7834 19.4234 13.2342ZM18.3639 9.70065C18.7096 9.09207 19.1828 8.61413 19.7866 8.26364C20.3888 7.91315 21.1503 7.65506 21.8816 7.65506C22.6128 7.65506 23.2979 7.91474 23.8858 8.26364C24.4736 8.61413 24.9293 9.09207 25.2543 9.70065C25.5793 10.3092 25.7418 10.9879 25.7418 11.7383C25.7418 12.4887 25.5793 13.1673 25.2543 13.7759C24.9293 14.3845 24.4736 14.8624 23.8858 15.2129C23.2979 15.5618 22.6336 15.7371 21.8911 15.7371C21.1487 15.7371 20.3888 15.5618 19.7866 15.2129C19.1828 14.8624 18.7096 14.3845 18.3639 13.7759C18.0182 13.1673 17.8462 12.4887 17.8462 11.7383C17.8462 10.9879 18.0182 10.3092 18.3639 9.70065Z" fill="#EBEEF5"/>
<path d="M28.5521 14.4371C28.8389 14.6569 29.2069 14.7669 29.6577 14.7669C30.1803 14.7669 30.6503 14.6442 31.0709 14.3988C31.4914 14.1535 31.818 13.8285 32.0538 13.4238C32.2896 13.0192 32.4075 12.5858 32.4075 12.1254V11.5073C32.4075 11.4627 32.4505 11.4324 32.4919 11.4436C32.5302 11.4547 32.5477 11.4993 32.5286 11.5328C32.4537 11.673 32.3724 11.8689 32.2131 11.9406C32.0283 12.0219 31.7368 12.0123 31.3783 12.0537L29.688 12.2178C29.2164 12.28 28.8373 12.4202 28.5505 12.64C28.2637 12.8599 28.1203 13.1594 28.1203 13.5385C28.1203 13.9177 28.2637 14.2172 28.5505 14.4371M27.7221 11.9868C28.2239 11.6076 28.8851 11.3782 29.7039 11.2954L31.4405 11.0963C31.7686 11.066 32.0108 10.9815 32.1701 10.8429C32.3294 10.7043 32.4075 10.4924 32.4075 10.2057C32.4075 9.72455 32.2402 9.34538 31.9088 9.06818C31.5759 8.79097 31.1282 8.65396 30.5642 8.65396C30.0003 8.65396 29.5351 8.79256 29.1352 9.06818C28.7512 9.33423 28.4852 9.73889 28.337 10.2806C28.3275 10.3156 28.2908 10.3347 28.2574 10.3252L27.2616 10.0527C27.2266 10.0432 27.2059 10.0081 27.2154 9.97308C27.3413 9.48877 27.558 9.07614 27.8686 8.7368C28.192 8.38313 28.5824 8.11388 29.0444 7.93067C29.5048 7.74587 30.0178 7.65347 30.5802 7.65347C31.4612 7.65347 32.1781 7.88606 32.7309 8.35286C33.2837 8.81965 33.5609 9.47284 33.5609 10.3108V15.514C33.5609 15.5507 33.5323 15.5794 33.4956 15.5794H32.4744C32.4378 15.5794 32.4091 15.5507 32.4091 15.514V13.9735C32.4091 13.932 32.4489 13.9018 32.4887 13.9145C32.527 13.9257 32.5445 13.9703 32.5254 14.0053C32.2115 14.555 31.7973 14.9787 31.2811 15.2735C30.7427 15.581 30.1373 15.7339 29.4602 15.7339C28.9679 15.7339 28.5362 15.6495 28.1618 15.4806C27.7874 15.3117 27.4958 15.0632 27.2855 14.735C27.0752 14.4068 26.9701 14.0292 26.9701 13.5975C26.9701 12.9013 27.2202 12.3628 27.7237 11.9852" fill="#EBEEF5"/>
<path d="M34.4945 14.5518L40.0355 8.03901C40.1358 7.9243 40.3222 7.95457 40.3796 8.09636L40.5023 8.39587C40.5708 8.56156 40.4481 8.74318 40.2697 8.74318H34.649C34.5359 8.74318 34.4435 8.65077 34.4435 8.53766V7.88288C34.4435 7.76976 34.5359 7.67736 34.649 7.67736H40.6902C40.8034 7.67736 40.8958 7.76976 40.8958 7.88288V8.60298C40.8958 8.65237 40.8782 8.70016 40.8464 8.7368L35.307 15.2496C35.2066 15.3659 35.0202 15.334 34.9629 15.1922L34.8099 14.8146C34.7558 14.6808 34.8546 14.5327 34.9995 14.5327H40.6918C40.8049 14.5327 40.8973 14.6251 40.8973 14.7382V15.393C40.8973 15.5061 40.8049 15.5985 40.6918 15.5985H34.6506C34.5375 15.5985 34.4451 15.5061 34.4451 15.393V14.6888C34.4451 14.6394 34.4626 14.5916 34.4945 14.555" fill="#EBEEF5"/>
<path d="M28.9615 6.21485L29.2148 6.18777L31.732 5.84684C31.7718 5.84684 31.8053 5.91375 31.8053 5.99659V6.66412C31.8053 6.74696 31.7734 6.81388 31.732 6.81388H28.9902" fill="#EBEEF5"/>
<path d="M42.594 7.70285C43.064 6.89353 43.7061 6.25628 44.5202 5.79108C45.3343 5.32588 46.236 5.09169 47.2269 5.09169C47.9629 5.09169 48.6416 5.2271 49.2645 5.49635C49.8875 5.76559 50.4244 6.12404 50.8752 6.57013C51.2719 6.96204 51.5921 7.39378 51.8359 7.86376C51.8916 7.9705 51.8423 8.10114 51.7323 8.14734L51.068 8.42773C50.9692 8.46915 50.8545 8.42773 50.8051 8.33214C50.4833 7.714 50.0229 7.2042 49.4254 6.80432C48.7739 6.3678 48.041 6.14953 47.2269 6.14953C46.4128 6.14953 45.7485 6.33593 45.116 6.70873C44.4835 7.08152 43.9833 7.59133 43.6153 8.23815C43.2472 8.88496 43.064 9.60188 43.064 10.3857C43.064 11.1695 43.2472 11.8864 43.6153 12.5333C43.9833 13.1801 44.4835 13.6899 45.116 14.0627C45.7485 14.4355 46.4526 14.6219 47.2269 14.6219C48.041 14.6219 48.7739 14.4036 49.4254 13.9671C50.0229 13.5672 50.4833 13.0574 50.8051 12.4393C50.8545 12.3437 50.9692 12.3023 51.068 12.3437L51.7323 12.6241C51.8423 12.6703 51.89 12.8009 51.8359 12.9077C51.5905 13.3792 51.2703 13.8094 50.8752 14.2013C50.4244 14.6474 49.8875 15.0058 49.2645 15.2751C48.6416 15.5443 47.9629 15.6797 47.2269 15.6797C46.236 15.6797 45.3343 15.4471 44.5202 14.9819C43.7061 14.5167 43.064 13.8779 42.594 13.0702C42.1241 12.2608 41.8883 11.3671 41.8883 10.3857C41.8883 9.40433 42.1241 8.51057 42.594 7.70126" fill="#EBEEF5"/>
<path d="M52.9543 5.04867H53.7206C53.7971 5.04867 53.8592 5.1124 53.8592 5.19046V15.4089C53.8592 15.487 53.7971 15.5507 53.7206 15.5507H52.9543C52.8778 15.5507 52.8157 15.487 52.8157 15.4089V5.18887C52.8157 5.11081 52.8778 5.04708 52.9543 5.04708" fill="#EBEEF5"/>
<path d="M55.8602 7.67258C55.9749 7.67258 56.0673 7.76498 56.0673 7.87969V12.2369C56.0673 12.6751 56.1645 13.0638 56.3572 13.4047C56.55 13.7456 56.8208 14.0101 57.1665 14.1981C57.5123 14.3861 57.8994 14.4801 58.3264 14.4801C58.7533 14.4801 59.1405 14.3861 59.4862 14.1981C59.8319 14.0101 60.1011 13.7456 60.2955 13.4047C60.4883 13.0638 60.5854 12.6751 60.5854 12.2369V7.87969C60.5854 7.76498 60.6778 7.67258 60.7925 7.67258H61.5238C61.6385 7.67258 61.7309 7.76498 61.7309 7.87969V12.2369C61.7309 12.8774 61.5827 13.4509 61.288 13.9544C60.9933 14.4578 60.5886 14.8497 60.074 15.1301C59.5595 15.4105 58.978 15.5507 58.3264 15.5507C57.6748 15.5507 57.0917 15.4105 56.5787 15.1301C56.0641 14.8497 55.661 14.4578 55.3647 13.9544C55.07 13.4509 54.9218 12.8774 54.9218 12.2369V7.87969C54.9218 7.76498 55.0142 7.67258 55.1289 7.67258H55.8602Z" fill="#EBEEF5"/>
<path d="M64.1875 13.1785C64.4408 13.6309 64.7866 13.983 65.2231 14.2363C65.6596 14.4896 66.1471 14.6171 66.6856 14.6171C67.2241 14.6171 67.7116 14.4896 68.1481 14.2363C68.5846 13.983 68.9303 13.6293 69.1836 13.1785C69.4369 12.7276 69.5644 12.2274 69.5644 11.6793C69.5644 11.1313 69.4369 10.631 69.1836 10.1802C68.9303 9.72933 68.5846 9.37565 68.1481 9.12234C67.7116 8.86903 67.2241 8.74158 66.6856 8.74158C66.1471 8.74158 65.6596 8.86903 65.2231 9.12234C64.7866 9.37565 64.4408 9.72933 64.1875 10.1802C63.9342 10.6326 63.8068 11.1313 63.8068 11.6793C63.8068 12.2274 63.9342 12.7276 64.1875 13.1785ZM63.5487 9.63693C63.8737 9.02835 64.323 8.54881 64.8965 8.19832C65.47 7.84783 66.1168 7.67258 66.8385 7.67258C67.5602 7.67258 68.2325 7.84783 68.8252 8.19832C69.4194 8.54881 69.8862 9.02835 70.2255 9.63693C70.5649 10.2455 70.7354 10.9258 70.7354 11.6777C70.7354 12.4297 70.5649 13.1084 70.2255 13.7186C69.8846 14.3271 69.4178 14.8067 68.8252 15.1572C68.2309 15.5077 67.5682 15.6829 66.8385 15.6829C66.1089 15.6829 65.47 15.5077 64.8965 15.1572C64.323 14.8067 63.8737 14.3271 63.5487 13.7186C63.2237 13.11 63.0612 12.4297 63.0612 11.6777C63.0612 10.9258 63.2237 10.2471 63.5487 9.63693ZM62.9688 5.09169H63.5901C63.7112 5.09169 63.81 5.19046 63.81 5.31154V15.3229C63.81 15.4439 63.7112 15.5427 63.5901 15.5427H62.9688C62.8477 15.5427 62.7489 15.4439 62.7489 15.3229V5.31154C62.7489 5.19046 62.8477 5.09169 62.9688 5.09169Z" fill="#EBEEF5"/>
<path d="M37.4179 0.888975H37.8847C37.915 0.888975 37.9405 0.904906 37.9532 0.928803L39.9319 4.97539C39.9526 5.0184 39.9176 5.06779 39.8634 5.06779H39.4603C39.4317 5.06779 39.4046 5.05186 39.3918 5.02796L37.4466 1.01802C37.4259 0.975004 37.4609 0.925617 37.5151 0.925617H37.7668C37.8194 0.925617 37.856 0.973411 37.8353 1.01802L35.8965 5.02796C35.8853 5.05186 35.8582 5.06779 35.828 5.06779H35.4456C35.393 5.06779 35.3564 5.02 35.3771 4.97539L37.3494 0.928803C37.3606 0.904906 37.3877 0.888975 37.4179 0.888975Z" fill="#EBEEF5"/>
<path d="M37.0547 0.194364L37.163 0.180025L38.2368 0C38.2543 0 38.2687 0.0350492 38.2687 0.0796572V0.433335C38.2687 0.477943 38.2543 0.512992 38.2368 0.512992H37.0674" fill="#EBEEF5"/>
<path d="M34.2269 2.76411L36.1912 4.05614C36.2231 4.07686 36.2661 4.06411 36.2804 4.02747L36.4445 3.61484C36.4557 3.58776 36.4445 3.55749 36.4206 3.54156L33.4191 1.6043C33.3729 1.57562 33.3156 1.61545 33.3283 1.66802L34.1249 5.07735C34.1329 5.11399 34.1727 5.13311 34.2062 5.11877C34.3352 5.06461 34.4642 5.01362 34.5949 4.96583C34.6236 4.95468 34.6395 4.92441 34.6331 4.89573L34.1361 2.82783C34.1233 2.77526 34.1823 2.73384 34.2285 2.76411" fill="#EBEEF5"/>
<path d="M41.1013 2.76411L39.1369 4.05614C39.1051 4.07686 39.0621 4.06411 39.0477 4.02747L38.8836 3.61484C38.8725 3.58776 38.8836 3.55749 38.9075 3.54156L41.909 1.6043C41.9552 1.57562 42.0126 1.61545 41.9998 1.66802L41.2032 5.07735C41.1953 5.11399 41.1554 5.13311 41.122 5.11877C40.9929 5.06461 40.8639 5.01362 40.7333 4.96583C40.7046 4.95468 40.6887 4.92441 40.695 4.89573L41.1921 2.82783C41.2048 2.77526 41.1459 2.73384 41.1013 2.76411Z" fill="#EBEEF5"/>
<path d="M41.2176 5.38961H34.1042C34.0373 5.38961 33.9815 5.33544 33.9815 5.26693V5.02637C33.9815 4.95946 34.0357 4.9037 34.1042 4.9037H41.2176C41.2845 4.9037 41.3403 4.95786 41.3403 5.02637V5.26693C41.3403 5.33385 41.2861 5.38961 41.2176 5.38961Z" fill="#EBEEF5"/>
</svg>
