<svg width="67" height="24" viewBox="0 0 67 24" fill="none" xmlns="http://www.w3.org/2000/svg">
<path d="M59.9991 0.849455C60.062 0.808561 60.1433 0.728632 60.2208 0.800196C60.8351 1.22308 61.4201 1.68221 62.0425 2.09673C62.4186 1.90434 62.7088 1.59113 63.0775 1.3848C63.3668 1.55488 63.6324 1.76586 63.8788 1.9852C63.1195 2.50753 62.3976 3.07726 61.6318 3.59123C60.9711 3.16927 60.3623 2.68319 59.7052 2.25752C59.4122 2.42574 59.1859 2.69063 58.8856 2.83747C58.6337 2.65717 58.3845 2.47314 58.1427 2.28261C58.1208 2.16644 58.2987 2.11439 58.3736 2.03818C58.9185 1.64503 59.4578 1.24539 60 0.849455H59.9991Z" fill="#EBEEF5"/>
<path d="M38.7183 21.5996V21.5903H39.024V21.6432C39.024 21.9453 39.1463 22.0921 39.6346 22.0921C40.0362 22.0921 40.1412 21.9769 40.1412 21.7548C40.1412 21.5326 40.0061 21.4527 39.6784 21.3904L39.3207 21.3282C38.972 21.2612 38.7183 21.0967 38.7183 20.7101C38.7183 20.3235 39.0323 20.079 39.5434 20.079C40.0544 20.079 40.3985 20.3365 40.3985 20.83V20.8523H40.0973V20.817C40.0973 20.5549 39.997 20.3551 39.5342 20.3551C39.1418 20.3551 39.0195 20.4843 39.0195 20.7064C39.0195 20.9285 39.129 21.0038 39.4512 21.0661L39.8181 21.1367C40.1932 21.2083 40.4423 21.3765 40.4423 21.7408C40.4423 22.1321 40.1284 22.3626 39.631 22.3626C39.0414 22.3626 38.7192 22.1089 38.7192 21.5986L38.7183 21.5996Z" fill="#EBEEF5"/>
<path d="M41.637 21.7901C41.637 21.4081 41.9163 21.2389 42.3872 21.172L43.1466 21.0651V20.9053C43.1466 20.5186 42.985 20.3634 42.5789 20.3634C42.1728 20.3634 42.003 20.5186 42.003 20.87V20.9369H41.7018V20.9016C41.7018 20.4434 42.0468 20.079 42.6054 20.079C43.1639 20.079 43.4432 20.4564 43.4432 20.9452V22.3189H43.1594V21.9146L43.1375 21.91C43.0106 22.1637 42.7359 22.3635 42.3261 22.3635C41.9163 22.3635 41.637 22.1591 41.637 21.7901ZM42.4137 22.0968C42.7843 22.0968 43.1466 21.9016 43.1466 21.3811V21.3059L42.4137 21.4127C42.0687 21.462 41.9428 21.5326 41.9428 21.7687C41.9428 22.0048 42.0824 22.0977 42.4137 22.0977V22.0968Z" fill="#EBEEF5"/>
<path d="M44.7839 21.4434V20.1237H45.0979V21.3988C45.0979 21.8747 45.2859 22.0829 45.7085 22.0829C46.1055 22.0829 46.3765 21.87 46.3765 21.3542V20.1237H46.6868V22.3189H46.403V21.8347H46.3902C46.3026 22.0884 46.0589 22.3635 45.609 22.3635C45.0459 22.3635 44.7839 21.9676 44.7839 21.4434ZM45.5916 19.83V19.8077L46.0544 19.2519H46.4514V19.2742L45.9102 19.83H45.5916Z" fill="#EBEEF5"/>
<path d="M47.9564 21.2213C47.9564 20.5279 48.2795 20.079 48.8681 20.079C49.2825 20.079 49.549 20.3012 49.6403 20.541V19.3411H49.9542V22.3189H49.6749V21.897H49.6576C49.5618 22.1721 49.308 22.3635 48.9028 22.3635C48.2959 22.3635 47.9555 21.9146 47.9555 21.2213H47.9564ZM48.9557 22.0875C49.3838 22.0875 49.6412 21.8607 49.6412 21.4118V21.0345C49.6412 20.5809 49.3838 20.3541 48.9557 20.3541C48.5277 20.3541 48.2703 20.5493 48.2703 21.2204C48.2703 21.8914 48.5277 22.0866 48.9557 22.0866V22.0875Z" fill="#EBEEF5"/>
<path d="M51.2119 21.2213C51.2119 20.5549 51.6007 20.079 52.2158 20.079C52.7351 20.079 53.1632 20.3988 53.1632 21.0475C53.1632 21.1497 53.154 21.2473 53.1413 21.3096H51.5094C51.5222 21.7938 51.7102 22.0782 52.2249 22.0782C52.6612 22.0782 52.8355 21.8784 52.8355 21.6116V21.5847H53.1458V21.6163C53.1458 22.0382 52.7707 22.3626 52.2204 22.3626C51.5569 22.3626 51.2119 21.8867 51.2119 21.2204V21.2213ZM51.5085 21.0791H52.8656C52.883 20.5595 52.6302 20.3551 52.2067 20.3551C51.7266 20.3551 51.535 20.6348 51.5085 21.0791Z" fill="#EBEEF5"/>
<path d="M29.7485 16.7573C28.8276 16.7573 28.3631 16.7527 28.353 16.7424C28.343 16.7322 28.3384 16.3493 28.3384 15.5928C28.3384 14.8362 28.343 14.4524 28.353 14.4431C28.3631 14.4328 28.374 14.4282 28.3877 14.4282C28.4014 14.4282 28.4124 14.4235 28.4224 14.4133C28.4324 14.4031 28.437 13.8464 28.437 12.7413V11.0842L28.0126 9.48743L28.0619 9.45769C28.0884 9.43724 28.1221 9.39914 28.165 9.34244C28.2079 9.28575 28.249 9.20489 28.2882 9.10172C28.3275 8.99763 28.3622 8.86565 28.3914 8.70486C28.4206 8.54407 28.4361 8.34704 28.4361 8.1119V6.56535C28.4361 6.5449 28.4315 6.53189 28.4215 6.52539C28.4114 6.51888 28.186 6.51516 27.7461 6.51516C27.3062 6.51516 27.0707 6.51888 27.0607 6.52539C27.0506 6.53189 27.0461 6.54397 27.0461 6.5607C27.0461 6.57743 27.0415 6.59044 27.0315 6.60067C27.0214 6.61089 26.7175 6.61554 26.1188 6.61554C25.5201 6.61554 25.2162 6.61089 25.2061 6.60067C25.1961 6.59044 25.1915 5.94915 25.1915 4.67771C25.1915 4.6647 25.1961 4.65261 25.2061 4.64239C25.2162 4.63217 26.7303 4.62752 29.7476 4.62752C32.7649 4.62752 34.2699 4.63217 34.279 4.64239C34.2881 4.65261 34.2936 5.27718 34.2936 6.51516C34.2936 6.56256 34.2891 6.59044 34.279 6.60067C34.269 6.61089 33.9687 6.61554 33.3764 6.61554C32.7841 6.61554 32.4737 6.61089 32.4637 6.60067C32.4537 6.59044 32.4491 6.57743 32.4491 6.5607C32.4491 6.54397 32.4445 6.53189 32.4345 6.52539C32.4245 6.51888 32.1963 6.51516 31.7491 6.51516C31.3019 6.51516 31.0737 6.51888 31.0637 6.52539C31.0536 6.53189 31.0491 7.84794 31.0491 10.4726C31.0491 13.0973 31.0536 14.405 31.0637 14.4143C31.0737 14.4245 31.0847 14.4291 31.0983 14.4291C31.112 14.4291 31.123 14.4338 31.133 14.444C31.1431 14.4542 31.1476 14.8371 31.1476 15.5937C31.1476 16.3502 31.1431 16.7341 31.133 16.7434C31.123 16.7536 30.6612 16.7582 29.7476 16.7582L29.7485 16.7573Z" fill="#EBEEF5"/>
<path d="M40.6367 16.9581C39.8144 16.9581 39.0687 16.7536 38.3979 16.3456C37.7271 15.9376 37.1932 15.3911 36.7952 14.7089C36.3973 14.0258 36.1984 13.2692 36.1984 12.4392V11.1037L35.774 9.4865L35.8132 9.45675C35.8397 9.43631 35.8734 9.3982 35.9163 9.34151C35.9592 9.28481 36.0021 9.20396 36.045 9.10079C36.0879 8.9967 36.1235 8.86472 36.1536 8.70393C36.1828 8.54314 36.1984 8.34611 36.1984 8.11096V6.56442C36.1984 6.54397 36.1938 6.53096 36.1838 6.52445C36.1737 6.51795 36.1609 6.51423 36.1445 6.51423C36.1281 6.51423 36.1162 6.50958 36.1098 6.49936C36.1034 6.48914 36.0998 6.17964 36.0998 5.56994C36.0998 4.96025 36.1025 4.65075 36.1098 4.64053C36.1162 4.63031 36.5799 4.62566 37.5007 4.62566C38.4216 4.62566 38.8862 4.63031 38.8962 4.64053C38.9063 4.65075 38.9108 4.96025 38.9108 5.56994C38.9108 6.17964 38.9063 6.48914 38.8962 6.49936C38.8862 6.50958 38.8743 6.51423 38.8615 6.51423C38.8488 6.51423 38.8369 6.51795 38.8269 6.52445C38.8168 6.53096 38.8123 6.5449 38.8123 6.56442V12.179C38.8123 12.5945 38.9108 12.9727 39.108 13.3138C39.3051 13.6549 39.5716 13.9263 39.9065 14.1271C40.2415 14.3278 40.613 14.4282 41.0209 14.4282C41.4289 14.4282 41.7985 14.3278 42.1307 14.1271C42.4629 13.9263 42.7285 13.6549 42.9293 13.3138C43.1301 12.9727 43.2305 12.5945 43.2305 12.179V6.56442C43.2305 6.54397 43.2259 6.53096 43.2159 6.52445C43.2059 6.51795 43.1949 6.51423 43.1812 6.51423C43.1675 6.51423 43.1566 6.50958 43.1465 6.49936C43.1365 6.48914 43.1319 6.17964 43.1319 5.56994C43.1319 4.96025 43.1365 4.65075 43.1465 4.64053C43.1566 4.63031 43.8155 4.62566 45.1243 4.62566C45.1371 4.62566 45.1489 4.63031 45.159 4.64053C45.169 4.65075 45.1736 4.96025 45.1736 5.56994C45.1736 6.17964 45.169 6.48914 45.159 6.49936C45.1489 6.50958 45.1371 6.51423 45.1243 6.51423C45.1115 6.51423 45.0997 6.51795 45.0896 6.52445C45.0796 6.53096 45.075 8.50318 45.075 12.4402C45.075 13.2701 44.8742 14.0267 44.4736 14.7098C44.072 15.3929 43.5362 15.9385 42.8654 16.3465C42.1946 16.7554 41.4517 16.959 40.6367 16.959V16.9581Z" fill="#EBEEF5"/>
<path d="M48.3789 16.7573C47.458 16.7573 46.9934 16.7527 46.9834 16.7425C46.9734 16.7322 46.9688 16.3493 46.9688 15.5928C46.9688 14.8362 46.9734 14.4524 46.9834 14.4431C46.9934 14.4329 47.0062 14.4282 47.0227 14.4282C47.0391 14.4282 47.0509 14.4236 47.0573 14.4133C47.0637 14.4031 47.0674 13.8464 47.0674 12.7413V11.0842L46.653 9.48745L46.6923 9.45771C46.7187 9.43726 46.7525 9.39916 46.7954 9.34246C46.8383 9.28577 46.8812 9.2049 46.9241 9.10174C46.967 8.99765 47.0017 8.86567 47.0272 8.70488C47.0537 8.54409 47.0665 8.34706 47.0665 8.11192V6.56537C47.0665 6.54492 47.0628 6.53191 47.0564 6.52541C47.05 6.5189 47.0382 6.51518 47.0217 6.51518C47.0053 6.51518 46.9925 6.51054 46.9825 6.50031C46.9725 6.49009 46.9679 6.18059 46.9679 5.5709C46.9679 4.9612 46.9725 4.65171 46.9825 4.64148C46.9925 4.63126 47.0035 4.62661 47.0172 4.62661H52.5106C53.175 4.62661 53.7728 4.78554 54.3058 5.1034C54.8388 5.42126 55.2577 5.84693 55.5634 6.37856C55.8692 6.91111 56.0216 7.51152 56.0216 8.18162C56.0152 8.79783 55.8756 9.36012 55.6027 9.86851C55.3298 10.3778 54.9565 10.7896 54.4828 11.1037C54.0092 11.4188 53.4707 11.5954 52.8656 11.6363L52.2048 11.666C51.1525 11.7459 50.3174 12.2116 49.6995 13.062C49.6931 13.0685 49.6895 13.2934 49.6895 13.7349C49.6895 14.1763 49.694 14.4031 49.7041 14.4124C49.7141 14.4217 49.7251 14.4273 49.7388 14.4273C49.7525 14.4273 49.7634 14.4319 49.7734 14.4422C49.7835 14.4524 49.788 14.8353 49.788 15.5918C49.788 16.3484 49.7835 16.7322 49.7734 16.7415C49.7634 16.7518 49.2979 16.7564 48.378 16.7564L48.3789 16.7573ZM49.7397 10.6808C49.7461 10.6808 49.7525 10.6771 49.7598 10.6706C50.3712 10.3221 50.9462 10.0944 51.4856 9.98747C51.8206 9.91405 52.0971 9.87687 52.3143 9.87687H52.4823C52.5808 9.87687 52.7022 9.86015 52.8473 9.82669C53.2151 9.73282 53.5145 9.53857 53.7445 9.24394C53.9745 8.94932 54.0931 8.60079 54.0995 8.19928C54.0995 7.73086 53.938 7.33028 53.6158 6.99941C53.2936 6.66761 52.9021 6.50217 52.4421 6.50217C50.6277 6.50217 49.715 6.50868 49.705 6.52262C49.695 6.53656 49.6904 7.90558 49.6904 10.6306C49.6904 10.6641 49.7068 10.6808 49.7397 10.6808Z" fill="#EBEEF5"/>
<path d="M66.1349 16.7573H63.4225C63.4024 16.7573 63.386 16.7443 63.3732 16.7174L62.5746 14.458C62.5746 14.4375 62.5846 14.4282 62.6038 14.4282C62.623 14.4282 62.633 14.418 62.633 14.3985L62.623 14.3883C62.4523 14.1066 62.2305 13.8427 61.9576 13.5945C61.6848 13.3473 61.3562 13.1428 60.971 12.982C60.5868 12.8213 60.1314 12.7413 59.6048 12.7413C59.0782 12.7413 58.839 12.7618 58.8253 12.8017L58.2631 14.3985C58.2631 14.4189 58.2759 14.4282 58.3024 14.4282C58.3289 14.4282 58.3416 14.4412 58.3416 14.4682L57.543 16.7183C57.5293 16.7452 57.5138 16.7583 57.4938 16.7583H55.7679C55.735 16.7583 55.7186 16.7415 55.7186 16.7081C55.7186 16.7016 55.9787 15.9515 56.498 14.458C56.5108 14.4375 56.5327 14.4282 56.5619 14.4282C56.5911 14.4282 56.613 14.418 56.6258 14.3985L57.0593 13.1633L57.1971 11.5164L57.2565 11.4959C57.4928 11.429 57.7228 11.1483 57.9464 10.652L60.0565 4.65635C60.0629 4.63591 60.0794 4.62661 60.1058 4.62661H61.7824C61.8025 4.62661 61.8189 4.63684 61.8317 4.65635L65.2642 14.3985C65.277 14.4189 65.2989 14.4282 65.3281 14.4282C65.3573 14.4282 65.3756 14.4384 65.382 14.458L66.1806 16.7081C66.1806 16.7415 66.1641 16.7583 66.1313 16.7583L66.1349 16.7573ZM61.6966 11.8658C61.7231 11.8658 61.7359 11.8491 61.7359 11.8156L60.5028 8.30059C60.4891 8.28014 60.4736 8.27085 60.4536 8.27085C60.4399 8.27085 60.4271 8.28107 60.4143 8.30059C59.6714 10.4029 59.2999 11.4578 59.2999 11.4643C59.2999 11.4978 59.3164 11.5145 59.3492 11.5145H59.5856C59.6906 11.5145 59.8485 11.5192 60.0593 11.5294C60.2701 11.5396 60.5129 11.5693 60.7894 11.6195C61.066 11.6697 61.3617 11.7487 61.6774 11.8556L61.6975 11.8658H61.6966Z" fill="#EBEEF5"/>
<path d="M13.3652 0.983319C13.3305 0.936849 12.4069 0 12.4069 0C12.4069 0 11.7443 0.675685 11.4513 0.967521C11.1529 0.665461 10.5213 0.0120823 10.4948 0.00278813C10.1928 0.305777 9.53563 0.975885 9.53563 0.975885C9.53563 0.975885 10.8289 2.29565 11.4513 2.93044C12.0902 2.28264 12.7263 1.63112 13.3652 0.983319Z" fill="#EBEEF5"/>
<path d="M11.4568 10.6976C12.0053 10.1353 12.5557 9.5767 13.106 9.01627C14.4367 7.66118 17.1592 4.89803 17.1774 4.86271C17.1555 4.82646 14.3828 2.00383 14.3144 1.94528C14.2824 1.96387 11.6758 4.63129 11.4513 4.85249C10.9284 4.31808 8.84382 2.19715 8.60926 1.95736C8.60013 1.94342 8.58279 1.94249 8.57367 1.95736C7.62357 2.92581 6.67166 3.8924 5.72248 4.86178C5.89041 5.03837 11.3683 10.6223 11.4568 10.6966V10.6976ZM8.58827 3.9017C8.86207 4.17309 11.4084 6.77173 11.4513 6.81355C11.6421 6.62581 13.5468 4.68055 14.3144 3.90263C14.4951 4.08758 15.1969 4.80137 15.2572 4.86271C14.7652 5.36645 12.0637 8.11845 11.4513 8.73837C10.8243 8.10079 7.85539 5.0802 7.64913 4.86364C7.96035 4.54114 8.27705 4.2242 8.58827 3.9017Z" fill="#EBEEF5"/>
<path d="M9.53473 22.3375C9.56941 22.384 10.493 23.3208 10.493 23.3208C10.493 23.3208 11.1556 22.6451 11.4486 22.3533C11.747 22.6554 12.3786 23.3087 12.4051 23.318C12.7072 23.015 13.3643 22.3449 13.3643 22.3449C13.3643 22.3449 12.071 21.0252 11.4486 20.3904C10.8097 21.0382 10.1736 21.6897 9.53473 22.3375Z" fill="#EBEEF5"/>
<path d="M11.4431 12.6233C10.8946 13.1856 10.3443 13.7442 9.79391 14.3046C8.46323 15.6597 5.74073 18.4228 5.72248 18.4582C5.74438 18.4944 8.51708 21.317 8.58553 21.3756C8.61747 21.357 11.2241 18.6896 11.4486 18.4684C11.9715 19.0028 14.0561 21.1237 14.2906 21.3635C14.2998 21.3775 14.3171 21.3784 14.3262 21.3635C15.2763 20.3951 16.2283 19.4285 17.1774 18.4591C17.0095 18.2825 11.5316 12.6986 11.4431 12.6242V12.6233ZM14.3116 19.4192C14.0378 19.1478 11.4915 16.5491 11.4486 16.5073C11.2578 16.6951 9.35309 18.6403 8.58553 19.4182C8.40482 19.2333 7.70298 18.5195 7.64274 18.4582C8.13467 17.9544 10.8362 15.2024 11.4486 14.5825C12.0756 15.2201 15.0445 18.2407 15.2508 18.4572C14.9396 18.7797 14.6229 19.0967 14.3116 19.4192Z" fill="#EBEEF5"/>
<path d="M21.9351 13.6103C21.9808 13.575 22.9007 12.6344 22.9007 12.6344C22.9007 12.6344 22.2372 11.9597 21.9507 11.6614C22.2473 11.3574 22.8889 10.7143 22.898 10.6873C22.6005 10.3797 21.9424 9.71051 21.9424 9.71051C21.9424 9.71051 20.6464 11.0275 20.0231 11.6614C20.6592 12.3119 21.299 12.9597 21.9351 13.6103Z" fill="#EBEEF5"/>
<path d="M12.3959 11.6679C12.9481 12.2264 13.4966 12.7869 14.047 13.3473C15.3776 14.7024 18.091 17.4748 18.1257 17.4934C18.1613 17.4711 20.9331 14.6476 20.9906 14.5779C20.9723 14.5453 18.3529 11.8909 18.1357 11.6623C18.6605 11.1297 20.7432 9.00695 20.9787 8.76809C20.9924 8.75879 20.9933 8.74113 20.9787 8.73184C20.0277 7.76432 19.0785 6.79494 18.1266 5.82835C17.9532 5.99936 12.4699 11.5777 12.3968 11.6679H12.3959ZM19.0694 8.74671C18.8029 9.02554 16.2511 11.6186 16.21 11.6623C16.3943 11.8565 18.3046 13.7962 19.0685 14.5779C18.8869 14.7619 18.1859 15.4766 18.1257 15.5379C17.631 15.037 14.9286 12.2859 14.3198 11.6623C14.9459 11.0238 17.9121 8.00039 18.1248 7.79034C18.4415 8.10727 18.7527 8.42978 19.0694 8.74671Z" fill="#EBEEF5"/>
<path d="M0.965608 9.71056C0.919974 9.74588 0 10.6864 0 10.6864C0 10.6864 0.663513 11.3612 0.950093 11.6595C0.653474 11.9635 0.0118646 12.6066 0.00273791 12.6336C0.300269 12.9412 0.958306 13.6104 0.958306 13.6104C0.958306 13.6104 2.2543 12.2934 2.87766 11.6595C2.24152 11.009 1.60174 10.3612 0.965608 9.71056Z" fill="#EBEEF5"/>
<path d="M10.5039 11.653C9.95178 11.0944 9.40326 10.534 8.85292 9.97356C7.52224 8.61847 4.80887 5.84603 4.77418 5.82744C4.73859 5.84975 1.9668 8.67331 1.9093 8.74302C1.92756 8.77554 4.54693 11.43 4.76414 11.6586C4.23936 12.1911 2.15664 14.3139 1.92117 14.5528C1.90748 14.5621 1.90657 14.5797 1.92117 14.589C2.87217 15.5566 3.82135 16.5259 4.77327 17.4925C4.94668 17.3215 10.43 11.7432 10.503 11.653H10.5039ZM3.83048 14.5742C4.09698 14.2953 6.64881 11.7023 6.68988 11.6586C6.50552 11.4643 4.5953 9.52465 3.83139 8.74302C4.01301 8.55899 4.71395 7.84427 4.77418 7.78293C5.26885 8.28389 7.97128 11.035 8.58003 11.6586C7.95393 12.2971 4.98775 15.3205 4.7751 15.5305C4.4584 15.2136 4.14718 14.8911 3.83048 14.5742Z" fill="#EBEEF5"/>
</svg>
