<svg width="68" height="17" viewBox="0 0 68 17" fill="none" xmlns="http://www.w3.org/2000/svg">
<path fill-rule="evenodd" clip-rule="evenodd" d="M15.4331 8.68573H14.35C14.2204 10.1965 13.5538 11.5537 12.5424 12.5651C11.4116 13.6959 9.84928 14.3965 8.12345 14.3965C6.39763 14.3965 4.83533 13.6972 3.70449 12.5651C2.57364 11.4342 1.873 9.87192 1.873 8.14609C1.873 6.42027 2.57238 4.85797 3.70449 3.72713C4.83533 2.59628 6.39763 1.89564 8.12345 1.89564C8.23792 1.89564 8.35113 1.89816 8.46434 1.90445V0H7.56621V0.835239C5.76491 0.971091 4.14349 1.75853 2.93969 2.96233C1.61261 4.2894 0.792471 6.12215 0.792471 8.14609C0.792471 8.32723 0.79876 8.50837 0.812597 8.68573H0V9.58386H0.932096C1.22015 11.0317 1.93463 12.3248 2.93843 13.3286C4.14223 14.5324 5.76239 15.3198 7.56495 15.4557V16.2934H8.46308V15.4695C10.3512 15.3827 12.0544 14.5815 13.306 13.3299C14.3098 12.3261 15.0242 11.0317 15.3123 9.58512H16.2406V8.68699H15.4331V8.68573Z" fill="#EBEEF5"/>
<path fill-rule="evenodd" clip-rule="evenodd" d="M13.3047 2.96234C12.5537 2.21138 11.6405 1.62268 10.6229 1.25286C10.2744 1.12582 9.91343 1.02519 9.54235 0.952229V2.06043C9.91846 2.14597 10.2795 2.26672 10.6229 2.41893V2.41516C11.3436 2.72963 11.9927 3.17744 12.5412 3.72588C13.5525 4.73722 14.2192 6.09448 14.3487 7.60521H15.4318C15.2997 5.79636 14.511 4.16991 13.3034 2.96234H13.3047Z" fill="#EBEEF5"/>
<path fill-rule="evenodd" clip-rule="evenodd" d="M13.0078 8.68573H9.38888V9.7738H11.594C11.404 10.1788 11.1462 10.5449 10.8329 10.8581C10.7034 10.9877 10.5637 11.1084 10.4166 11.2191C10.4153 11.2204 10.4128 11.2216 10.4115 11.2229C10.3663 11.2569 10.3197 11.2896 10.2732 11.321C10.2631 11.3273 10.2543 11.3336 10.2442 11.3399C10.2053 11.3663 10.165 11.3914 10.1247 11.4166C10.1122 11.4242 10.0996 11.4317 10.087 11.4392C10.0493 11.4619 10.0103 11.4845 9.97128 11.5059C9.95745 11.5135 9.94361 11.521 9.93103 11.5286C9.89078 11.5499 9.85178 11.5701 9.81027 11.5902C9.79769 11.5965 9.78511 11.6028 9.77254 11.6091C9.72222 11.633 9.6719 11.6556 9.62159 11.677C9.61907 11.6782 9.6153 11.6795 9.61278 11.6808C9.55995 11.7034 9.50712 11.7235 9.45429 11.7437C9.43416 11.7512 9.41278 11.7588 9.39265 11.765C9.35995 11.7764 9.32724 11.7877 9.29328 11.799C9.26812 11.8066 9.24296 11.8141 9.21781 11.8216C9.18762 11.8305 9.15743 11.8393 9.1285 11.8468C9.10208 11.8544 9.07566 11.8606 9.04925 11.8669C9.01654 11.8745 8.9851 11.882 8.95239 11.8896C8.92849 11.8946 8.90459 11.9009 8.88069 11.9059C8.82786 11.9172 8.77377 11.9261 8.71968 11.9349C8.69956 11.9386 8.67817 11.9411 8.65805 11.9437C8.61905 11.9487 8.58131 11.9537 8.54232 11.9588C8.52094 11.9613 8.49955 11.9625 8.47817 11.965C8.43666 11.9688 8.39515 11.9726 8.35238 11.9751C8.33477 11.9751 8.31842 11.9776 8.3008 11.9776C8.24043 11.9801 8.18131 11.9827 8.11967 11.9827C8.05552 11.9827 7.99136 11.9814 7.92721 11.9776C7.90709 11.9776 7.88696 11.9751 7.86557 11.9739C7.82406 11.9713 7.7813 11.9688 7.73979 11.9638C7.70834 11.9613 7.67689 11.9562 7.64419 11.9525C7.614 11.9487 7.58381 11.9449 7.55488 11.9411C7.5184 11.9361 7.48192 11.9286 7.44544 11.9223C7.42028 11.9185 7.39638 11.9135 7.37122 11.9097C7.33349 11.9022 7.29575 11.8933 7.25801 11.8845C7.23537 11.8795 7.21273 11.8745 7.18883 11.8682C7.15109 11.8594 7.11461 11.8481 7.07688 11.838C7.05298 11.8317 7.03034 11.8254 7.00644 11.8179C6.97122 11.8078 6.93725 11.7952 6.90203 11.7839C6.87687 11.7751 6.85172 11.7676 6.82656 11.7588C6.79511 11.7474 6.76366 11.7349 6.73222 11.7235C6.70454 11.7122 6.67687 11.7021 6.6492 11.6908C6.62152 11.6795 6.59385 11.6669 6.56617 11.6543C6.53599 11.6405 6.5058 11.6279 6.47561 11.6128C6.45171 11.6015 6.42655 11.5889 6.40265 11.5764C6.36994 11.56 6.3385 11.5437 6.30579 11.5273C6.28441 11.516 6.26302 11.5034 6.24164 11.4908C6.20893 11.472 6.17497 11.4531 6.14227 11.4342C6.12214 11.4216 6.10201 11.4091 6.08063 11.3965C6.04792 11.3764 6.01522 11.3562 5.98377 11.3348C5.96239 11.321 5.94226 11.3059 5.92088 11.2908C5.89069 11.2694 5.8605 11.2493 5.83157 11.2279C5.80641 11.2091 5.78251 11.1902 5.75861 11.1713C5.73345 11.1524 5.70955 11.1336 5.68439 11.1135C5.65169 11.0858 5.61898 11.0581 5.58628 11.0292C5.57244 11.0166 5.55735 11.004 5.54225 10.9914C5.49445 10.9487 5.44791 10.9046 5.40263 10.8594C5.35734 10.8141 5.31332 10.7675 5.26929 10.7197C5.25671 10.7059 5.24413 10.6908 5.23155 10.677C5.20262 10.6443 5.17495 10.6116 5.14728 10.5789C5.12715 10.555 5.10828 10.5298 5.08941 10.5046C5.07054 10.4807 5.05168 10.4568 5.03281 10.4317C5.01142 10.4027 4.99004 10.3726 4.96991 10.3424C4.95482 10.321 4.93972 10.3009 4.92589 10.2795C4.9045 10.248 4.88438 10.2153 4.86425 10.1826C4.85167 10.1625 4.83783 10.1424 4.82651 10.121C4.80764 10.0883 4.78878 10.0556 4.76991 10.0229C4.75733 10.0015 4.74475 9.9801 4.73343 9.95745C4.71708 9.92601 4.70072 9.8933 4.68437 9.86185C4.67179 9.83795 4.65921 9.8128 4.64789 9.7889C4.63406 9.75871 4.62022 9.72852 4.60764 9.69959C4.59506 9.67191 4.58248 9.64424 4.57116 9.61531C4.55984 9.58763 4.54978 9.55996 4.53846 9.53354C4.52588 9.5021 4.5133 9.47065 4.50198 9.43794C4.49317 9.41279 4.48563 9.38763 4.47682 9.36373C4.4655 9.32851 4.45292 9.29329 4.44286 9.25807C4.43657 9.23542 4.43028 9.21153 4.42273 9.18888C4.41267 9.15115 4.40135 9.11467 4.39254 9.07693C4.38751 9.05429 4.38248 9.03165 4.37745 9.01026C4.36864 8.97253 4.35984 8.93353 4.35229 8.89454C4.34726 8.87064 4.34348 8.84674 4.33971 8.82284C4.33342 8.78636 4.32587 8.74862 4.32084 8.71089C4.31707 8.68195 4.31329 8.65302 4.30952 8.62409C4.30575 8.59138 4.30072 8.55868 4.2982 8.52598C4.29443 8.48572 4.29191 8.44547 4.28939 8.40396C4.28814 8.38258 4.28562 8.36119 4.28436 8.33855C4.28185 8.2744 4.27933 8.2115 4.27933 8.14609C4.27933 8.08068 4.28059 8.01779 4.28436 7.95364C4.28436 7.93225 4.28814 7.91087 4.28939 7.88948C4.29191 7.84797 4.29443 7.80772 4.2982 7.76747C4.30197 7.73476 4.30575 7.70206 4.30952 7.67061C4.31329 7.64168 4.31581 7.61149 4.32084 7.58256C4.32587 7.54608 4.33342 7.50834 4.33971 7.47186C4.34348 7.44796 4.34851 7.42281 4.35229 7.39891C4.35984 7.36117 4.36864 7.32218 4.37745 7.28444C4.38248 7.2618 4.38751 7.23915 4.39254 7.21651C4.40135 7.17878 4.41267 7.1423 4.42273 7.10456C4.42902 7.08192 4.43531 7.05802 4.44286 7.03538C4.45292 7.00016 4.4655 6.96619 4.47682 6.93097C4.48563 6.90581 4.49317 6.88066 4.50198 6.8555C4.5133 6.82405 4.52588 6.7926 4.5372 6.76116C4.54852 6.73348 4.55858 6.70581 4.5699 6.67814C4.58122 6.65046 4.5938 6.62279 4.60638 6.59511C4.62022 6.56493 4.6328 6.53474 4.64789 6.50455C4.65921 6.48065 4.67179 6.45549 4.68437 6.43159C4.70072 6.39888 4.71708 6.36744 4.73343 6.33473C4.74475 6.31335 4.75733 6.29196 4.76991 6.27058C4.78878 6.23787 4.80764 6.20391 4.82651 6.17121C4.83909 6.15108 4.85167 6.13095 4.86425 6.11083C4.88438 6.07812 4.90576 6.04542 4.92714 6.01397C4.94098 5.99259 4.95608 5.97246 4.96991 5.95233C4.9913 5.92214 5.01142 5.89195 5.03407 5.86176C5.05168 5.83786 5.07054 5.81396 5.08941 5.79006C5.10954 5.76491 5.12841 5.73975 5.14853 5.71459C5.17495 5.68189 5.20262 5.65044 5.2303 5.61899C5.24413 5.6039 5.25671 5.58754 5.27055 5.57245C5.31332 5.52465 5.35734 5.47811 5.40263 5.43282C5.44791 5.38754 5.49445 5.34351 5.54225 5.30075C5.55735 5.28691 5.5737 5.27433 5.58879 5.26049C5.62024 5.23282 5.65169 5.20515 5.68439 5.17873C5.70955 5.1586 5.73471 5.13974 5.75987 5.11961C5.78377 5.10074 5.80767 5.08187 5.83157 5.06426C5.8605 5.04288 5.89195 5.02149 5.92214 5.00011C5.94226 4.98502 5.96365 4.97118 5.98377 4.95734C6.01522 4.93596 6.04792 4.91583 6.08063 4.89445C6.10076 4.88187 6.12088 4.86929 6.14101 4.85671C6.17371 4.83658 6.20768 4.81772 6.24038 4.80011C6.26177 4.78753 6.28315 4.77621 6.30453 4.76489C6.33598 4.74727 6.36869 4.73092 6.40139 4.71583C6.42529 4.70325 6.44919 4.69193 6.47309 4.68061C6.50328 4.66677 6.53347 4.65293 6.56366 4.6391C6.59133 4.62652 6.61901 4.6152 6.64668 4.60262C6.67435 4.5913 6.70203 4.57998 6.7297 4.56991C6.76115 4.55733 6.79259 4.54601 6.82404 4.53469C6.8492 4.52589 6.87436 4.51708 6.89952 4.50953C6.93474 4.49821 6.9687 4.48689 7.00392 4.47557C7.02656 4.46802 7.05046 4.46173 7.07436 4.45544C7.11084 4.44538 7.14858 4.43406 7.18631 4.42525C7.20896 4.42022 7.2316 4.41519 7.2555 4.4089C7.29324 4.4001 7.33097 4.39129 7.36871 4.38374C7.39261 4.37871 7.41777 4.37494 7.44292 4.37117C7.4794 4.36488 7.51588 4.35859 7.55236 4.3523C7.58255 4.34852 7.61148 4.34475 7.64167 4.34098C7.67312 4.3372 7.70456 4.33217 7.73727 4.32965C7.77878 4.32588 7.82029 4.32337 7.86306 4.31959C7.88319 4.31833 7.90331 4.31582 7.9247 4.31582C7.98885 4.3133 8.053 4.31079 8.11715 4.31079C8.13728 4.31079 8.15866 4.31079 8.17879 4.31204C8.21653 4.31204 8.25552 4.31204 8.29326 4.31456C8.31464 4.31456 8.33477 4.31708 8.35615 4.31833C9.2568 4.37494 10.1411 4.74602 10.8292 5.43408C10.9109 5.51585 10.9877 5.59887 11.0594 5.68566L11.8254 4.91961C11.7512 4.83407 11.6732 4.75105 11.5927 4.67054C10.7197 3.79757 9.60021 3.32334 8.45678 3.2441C8.43288 3.24032 8.40773 3.24032 8.38383 3.23906C8.36496 3.23906 8.34735 3.23655 8.32848 3.23655C8.25929 3.23403 8.19011 3.23152 8.12093 3.23152C8.11967 3.23152 8.11841 3.23152 8.11715 3.23152C8.03539 3.23152 7.95488 3.23403 7.87312 3.23781C7.83664 3.23906 7.80142 3.24284 7.76494 3.24535C7.72092 3.24787 7.67689 3.25164 7.63287 3.25542C7.58632 3.26045 7.53978 3.26674 7.49324 3.27177C7.46053 3.27554 7.42909 3.27932 7.39638 3.28435C7.34481 3.2919 7.29449 3.3007 7.24418 3.30951C7.2165 3.31454 7.18883 3.31831 7.16116 3.3246C7.10958 3.33466 7.05801 3.34599 7.00769 3.35856C6.98128 3.36485 6.9536 3.36989 6.92719 3.37743C6.87687 3.39001 6.82782 3.40385 6.77876 3.41769C6.74983 3.42523 6.72215 3.43278 6.69322 3.44159C6.64794 3.45542 6.60265 3.47052 6.55737 3.48561C6.52592 3.49567 6.49448 3.507 6.46177 3.51832C6.42152 3.53341 6.38127 3.54851 6.34101 3.5636C6.30579 3.57744 6.26931 3.59127 6.23409 3.60637C6.19887 3.62146 6.16491 3.63656 6.12969 3.65165C6.08943 3.66926 6.05044 3.68687 6.01145 3.70574C5.98126 3.71958 5.95232 3.73467 5.92214 3.74977C5.87937 3.77115 5.8366 3.79254 5.79383 3.81518C5.76867 3.82902 5.74226 3.84411 5.7171 3.85795C5.67181 3.8831 5.62779 3.90826 5.58376 3.93468C5.56112 3.94851 5.53722 3.96361 5.51458 3.97745C5.4693 4.00512 5.42527 4.03405 5.38124 4.06298C5.3586 4.07808 5.33596 4.09443 5.31332 4.11078C5.27055 4.14097 5.22778 4.1699 5.18627 4.20135C5.16111 4.22022 5.13595 4.24034 5.10954 4.26047C5.0718 4.2894 5.03406 4.31833 4.99759 4.34852C4.96362 4.3762 4.93218 4.40513 4.89947 4.4328C4.8718 4.4567 4.84412 4.4806 4.81645 4.5045C4.75607 4.55859 4.69695 4.6152 4.64035 4.6718C4.58248 4.72966 4.52714 4.78879 4.47305 4.84791C4.44789 4.87558 4.42525 4.90325 4.40135 4.93093C4.37242 4.96363 4.34348 4.99634 4.31707 5.0303C4.28688 5.06678 4.25795 5.10452 4.22902 5.14099C4.20889 5.16615 4.18876 5.19131 4.16989 5.21773C4.13845 5.25924 4.10952 5.302 4.08058 5.34351C4.06423 5.36616 4.04788 5.3888 4.03278 5.4127C4.00385 5.45672 3.97492 5.50075 3.94725 5.54603C3.93215 5.56868 3.91832 5.59258 3.90322 5.61522C3.87681 5.65924 3.85165 5.70327 3.82649 5.74855C3.81265 5.77497 3.79756 5.80013 3.78372 5.82654C3.76108 5.86805 3.7397 5.91082 3.71831 5.95359C3.70322 5.98378 3.68812 6.01271 3.67429 6.04416C3.65542 6.08315 3.63781 6.12215 3.62146 6.1624C3.60636 6.19762 3.59001 6.23284 3.57617 6.26806C3.56108 6.30328 3.5485 6.3385 3.53466 6.37373C3.51831 6.41398 3.50321 6.45549 3.48812 6.49574C3.4768 6.52719 3.46673 6.55738 3.45667 6.58883C3.44158 6.63411 3.42648 6.68065 3.41265 6.72719C3.40384 6.75487 3.39629 6.78254 3.38875 6.81021C3.37491 6.85927 3.36107 6.90959 3.34849 6.9599C3.3422 6.98632 3.33591 7.01148 3.33088 7.03789C3.3183 7.08947 3.30698 7.14104 3.29692 7.19387C3.29189 7.22029 3.28686 7.24796 3.28308 7.27437C3.27428 7.32595 3.26421 7.37752 3.25667 7.4291C3.25164 7.46054 3.24912 7.49073 3.24535 7.52218C3.23906 7.56998 3.23277 7.61778 3.22774 7.66558C3.22396 7.70709 3.22145 7.7486 3.21767 7.79011C3.21516 7.82785 3.21138 7.86684 3.20887 7.90458C3.20509 7.98508 3.20258 8.06684 3.20258 8.14735C3.20258 8.22785 3.20509 8.30962 3.20887 8.39012C3.21013 8.42912 3.2139 8.46685 3.21767 8.50585C3.22019 8.54736 3.2227 8.58887 3.22648 8.63038C3.23151 8.67944 3.2378 8.72724 3.24409 8.77504C3.24786 8.80523 3.25164 8.83667 3.25541 8.86686C3.26296 8.91969 3.27302 8.97127 3.28182 9.02284C3.28686 9.04926 3.29063 9.07567 3.29566 9.10209C3.30572 9.15492 3.3183 9.20649 3.32962 9.25932C3.33591 9.28574 3.34095 9.3109 3.34723 9.33731C3.35981 9.38763 3.37365 9.43795 3.38749 9.48826C3.39503 9.51593 3.40258 9.54361 3.41139 9.57002C3.42522 9.61657 3.44032 9.66311 3.45667 9.70839C3.46673 9.73984 3.4768 9.77003 3.48812 9.80022C3.50321 9.84173 3.51831 9.88324 3.53466 9.92349C3.5485 9.95871 3.56108 9.99393 3.57617 10.0279C3.59127 10.0644 3.60636 10.0996 3.62271 10.1348C3.64032 10.1738 3.65668 10.2128 3.67554 10.2518C3.69064 10.282 3.70573 10.3122 3.72083 10.3424C3.74221 10.3851 3.7636 10.4266 3.78498 10.4682C3.79882 10.4946 3.81391 10.521 3.82901 10.5461C3.85416 10.5902 3.87806 10.6342 3.90448 10.6782C3.91832 10.7021 3.93341 10.726 3.94851 10.7487C3.97618 10.7927 4.00385 10.8367 4.03278 10.8807C4.04914 10.9046 4.06549 10.9273 4.08184 10.9512C4.11077 10.9927 4.13971 11.0355 4.17115 11.0757C4.19128 11.1021 4.21141 11.1273 4.23153 11.1537C4.26046 11.1902 4.28814 11.2279 4.31833 11.2644C4.346 11.2984 4.37619 11.3311 4.40512 11.365C4.42902 11.3927 4.45166 11.4191 4.47556 11.4468C4.52965 11.5072 4.58626 11.5663 4.64412 11.6242C4.70198 11.682 4.7611 11.7374 4.82148 11.7927C4.8479 11.8166 4.87557 11.8393 4.90324 11.8632C4.93721 11.8921 4.96991 11.921 5.00388 11.95C5.04035 11.9801 5.07683 12.0078 5.11457 12.0367C5.14099 12.0569 5.16614 12.077 5.19256 12.0971C5.23407 12.1273 5.27558 12.1575 5.31835 12.1864C5.34099 12.2028 5.36489 12.2191 5.38753 12.2355C5.43156 12.2644 5.47558 12.2921 5.51961 12.3198C5.54351 12.3349 5.56615 12.35 5.59005 12.3638C5.63408 12.3902 5.6781 12.4154 5.72213 12.4405C5.74855 12.4556 5.7737 12.4695 5.80012 12.4833C5.84163 12.5059 5.8844 12.5273 5.92717 12.5487C5.95736 12.5638 5.98755 12.5789 6.01773 12.5927C6.05673 12.6116 6.09572 12.6292 6.13598 12.6456C6.1712 12.6607 6.20642 12.677 6.24164 12.6908C6.27686 12.7059 6.31208 12.7185 6.3473 12.7324C6.38755 12.7487 6.42906 12.7638 6.46932 12.7789C6.50076 12.7902 6.53221 12.8003 6.5624 12.8103C6.60769 12.8254 6.65423 12.8405 6.69951 12.8544C6.72718 12.8632 6.75486 12.8707 6.78253 12.8783C6.83159 12.8921 6.88191 12.9059 6.93222 12.9185C6.95864 12.9248 6.98505 12.9311 7.01147 12.9361C7.06304 12.9475 7.11461 12.96 7.16745 12.9701C7.19386 12.9751 7.22154 12.9802 7.24921 12.9852C7.30078 12.994 7.3511 13.0041 7.40267 13.0116C7.43412 13.0166 7.46557 13.0192 7.49701 13.0242C7.54481 13.0305 7.59135 13.0368 7.63915 13.0418C7.68192 13.0456 7.72469 13.0481 7.76746 13.0519C7.8052 13.0544 7.84167 13.0582 7.87941 13.0594C7.95992 13.0632 8.04168 13.0657 8.12344 13.0657C8.20017 13.0657 8.27691 13.0632 8.35364 13.0594C8.38131 13.0594 8.40773 13.0556 8.4354 13.0544C8.4832 13.0519 8.53226 13.0481 8.58006 13.0431C8.61402 13.0405 8.64672 13.0368 8.67943 13.033C8.72094 13.028 8.76119 13.0229 8.8027 13.0179C8.83918 13.0129 8.8744 13.0078 8.91088 13.0028C8.94862 12.9965 8.98635 12.9902 9.02409 12.9827C9.06057 12.9764 9.09831 12.9688 9.13479 12.9613C9.17881 12.9525 9.2241 12.9412 9.26812 12.9311C9.32724 12.9173 9.38636 12.9022 9.44423 12.8858C9.48071 12.8758 9.51718 12.8657 9.55366 12.8544C9.58763 12.8443 9.62285 12.833 9.65681 12.8217C9.69455 12.8091 9.73354 12.7965 9.77128 12.7827C9.80273 12.7714 9.83417 12.76 9.86436 12.7475C9.90587 12.7311 9.94738 12.7147 9.98889 12.6984C10.0153 12.6871 10.043 12.6758 10.0694 12.6644C10.1159 12.6443 10.1637 12.6229 10.2103 12.6003C10.2304 12.5902 10.2518 12.5814 10.2719 12.5713C10.331 12.5424 10.3889 12.5135 10.4468 12.482C10.4543 12.4783 10.4631 12.4745 10.4707 12.4695C10.6065 12.3952 10.7411 12.3147 10.8707 12.2267C10.8732 12.2254 10.8744 12.2242 10.877 12.2217C10.9361 12.1814 10.9952 12.1399 11.0531 12.0959C11.0682 12.0845 11.082 12.0732 11.0971 12.0619C11.1298 12.0367 11.1638 12.0116 11.1965 11.9852C11.3374 11.8707 11.4732 11.7512 11.6003 11.6242C12.3701 10.8543 12.8858 9.83041 13.0103 8.68824L13.0078 8.68573Z" fill="#EBEEF5"/>
<path d="M19.0595 3.11954C19.0293 3.08683 18.9903 3.06168 18.9412 3.04406C18.8922 3.02645 18.8368 3.01765 18.7727 3.01765H18.3739V4.09818H18.5853V3.72836H18.7538C18.8142 3.72836 18.8683 3.72081 18.9161 3.70697C18.9639 3.69314 19.0054 3.67049 19.0406 3.64282C19.0758 3.61515 19.1022 3.57741 19.1211 3.53338C19.14 3.48936 19.1488 3.43778 19.1488 3.37866C19.1488 3.32583 19.1412 3.27803 19.1261 3.23526C19.1111 3.1925 19.0884 3.15476 19.0595 3.12205V3.11954ZM18.8758 3.49313C18.8419 3.52332 18.7915 3.53716 18.7261 3.53716H18.584V3.20633H18.7349C18.7966 3.20633 18.8431 3.22143 18.8771 3.25036C18.911 3.27929 18.9274 3.3208 18.9274 3.37112C18.9274 3.42143 18.9098 3.46294 18.8758 3.49187V3.49313Z" fill="#EBEEF5"/>
<path d="M20.8281 3.70198C20.8746 3.68689 20.9136 3.66424 20.9463 3.63531C20.979 3.60638 21.0042 3.5699 21.0218 3.52713C21.0394 3.48437 21.0495 3.43279 21.0495 3.37745C21.0495 3.32461 21.0419 3.27681 21.0268 3.23405C21.0117 3.19128 20.9891 3.15354 20.9589 3.12084C20.9287 3.08813 20.8897 3.06297 20.8407 3.04536C20.7916 3.02775 20.7363 3.01895 20.6721 3.01895H20.2633V4.09947H20.4746V3.72965H20.5991L20.8407 4.09947H21.0935L20.8268 3.70701V3.7045L20.8281 3.70198ZM20.6256 3.53845H20.4759V3.20637H20.6344C20.696 3.20637 20.7438 3.22147 20.7778 3.2504C20.8117 3.27933 20.8281 3.32084 20.8281 3.37116C20.8281 3.42147 20.8105 3.46298 20.7752 3.49191C20.74 3.52084 20.6897 3.5372 20.6256 3.5372V3.53845Z" fill="#EBEEF5"/>
<path d="M23.0696 3.15606C23.0206 3.10826 22.9627 3.07052 22.8961 3.0441C22.8294 3.01769 22.7552 3.00385 22.6772 3.00385C22.5992 3.00385 22.5225 3.01769 22.4533 3.04536C22.3841 3.07304 22.3262 3.11077 22.2784 3.15983C22.2306 3.20889 22.1929 3.26675 22.1665 3.33468C22.1401 3.4026 22.1262 3.47682 22.1262 3.55607C22.1262 3.63531 22.1401 3.70953 22.1665 3.77745C22.1929 3.84538 22.2306 3.9045 22.2784 3.95356C22.3262 4.00262 22.3841 4.04035 22.4533 4.06803C22.5225 4.0957 22.5967 4.10954 22.6772 4.10954C22.7577 4.10954 22.8294 4.0957 22.8961 4.06928C22.9627 4.04287 23.0218 4.00513 23.0696 3.95733C23.1174 3.90953 23.1564 3.85167 23.1841 3.78249C23.2118 3.7133 23.2256 3.63783 23.2256 3.55732C23.2256 3.47682 23.2118 3.40134 23.1841 3.33216C23.1564 3.26298 23.1187 3.20511 23.0696 3.15731V3.15606ZM22.9778 3.69695C22.9615 3.74098 22.9388 3.77871 22.9099 3.81016C22.881 3.84161 22.8457 3.86551 22.8055 3.88312C22.7652 3.90073 22.7225 3.90953 22.6759 3.90953C22.613 3.90953 22.5552 3.89318 22.5048 3.86173C22.4545 3.83029 22.4155 3.78752 22.3879 3.73343C22.3602 3.67934 22.3464 3.62022 22.3464 3.55481C22.3464 3.4894 22.3602 3.43028 22.3879 3.37745C22.4155 3.32461 22.4545 3.28059 22.5048 3.2504C22.5552 3.22021 22.6118 3.20386 22.6759 3.20386C22.7401 3.20386 22.7929 3.21895 22.842 3.24914C22.891 3.27933 22.9313 3.32084 22.9589 3.37493C22.9866 3.42902 23.0017 3.4894 23.0017 3.55607C23.0017 3.60638 22.9929 3.65292 22.9766 3.69695H22.9778Z" fill="#EBEEF5"/>
<path d="M24.6407 3.71959C24.6407 3.84538 24.5967 3.90701 24.5099 3.90701C24.481 3.90701 24.452 3.89821 24.4231 3.8806C24.3942 3.86299 24.369 3.84035 24.3489 3.81393L24.2269 3.96488C24.2621 4.01142 24.3074 4.04538 24.3602 4.06928C24.4131 4.09318 24.4671 4.10576 24.5237 4.10576C24.564 4.10576 24.6005 4.10199 24.6319 4.09318C24.6634 4.08438 24.6923 4.07306 24.7175 4.0567C24.7426 4.04035 24.7627 4.02148 24.7804 4.0001C24.798 3.97871 24.8118 3.9523 24.8231 3.92211C24.8344 3.89192 24.842 3.86047 24.847 3.82651C24.8521 3.79255 24.8546 3.75481 24.8546 3.71456V3.01517H24.6395V3.71833L24.6407 3.71959Z" fill="#EBEEF5"/>
<path d="M26.2307 3.65544H26.6156V3.46675H26.2307V3.20763H26.7099V3.01643H26.0193V4.09696H26.7426V3.90576H26.2307V3.65544Z" fill="#EBEEF5"/>
<path d="M27.8006 3.20763H28.0987V4.09696H28.3113V3.20763H28.6107V3.01643H27.8006V3.20763Z" fill="#EBEEF5"/>
<path d="M30.6597 3.3309C30.6321 3.26172 30.5943 3.20386 30.5453 3.15606C30.4962 3.10826 30.4383 3.07052 30.3717 3.0441C30.305 3.01769 30.2308 3.00385 30.1528 3.00385C30.0748 3.00385 29.9981 3.01769 29.9289 3.04536C29.8597 3.07304 29.8018 3.11077 29.754 3.15983C29.7062 3.20889 29.6685 3.26675 29.6421 3.33468C29.6157 3.4026 29.6018 3.47682 29.6018 3.55607C29.6018 3.63531 29.6157 3.70953 29.6421 3.77745C29.6685 3.84538 29.7062 3.9045 29.754 3.95356C29.8018 4.00262 29.8597 4.04035 29.9289 4.06803C29.9981 4.0957 30.0723 4.10954 30.1528 4.10954C30.2333 4.10954 30.305 4.0957 30.3717 4.06928C30.4383 4.04287 30.4975 4.00513 30.5453 3.95733C30.5931 3.90953 30.6321 3.85167 30.6597 3.78249C30.6874 3.7133 30.7012 3.63783 30.7012 3.55732C30.7012 3.47682 30.6874 3.40134 30.6597 3.33216V3.3309ZM30.4547 3.69695C30.4383 3.74098 30.4157 3.77871 30.3868 3.81016C30.3578 3.84161 30.3226 3.86551 30.2824 3.88312C30.2421 3.90073 30.1993 3.90953 30.1528 3.90953C30.0899 3.90953 30.032 3.89318 29.9817 3.86173C29.9314 3.83029 29.8924 3.78752 29.8647 3.73343C29.8371 3.67934 29.8232 3.62022 29.8232 3.55481C29.8232 3.4894 29.8371 3.43028 29.8647 3.37745C29.8924 3.32461 29.9314 3.28059 29.9817 3.2504C30.032 3.22021 30.0886 3.20386 30.1528 3.20386C30.217 3.20386 30.2698 3.21895 30.3188 3.24914C30.3679 3.27933 30.4082 3.32084 30.4358 3.37493C30.4635 3.42902 30.4786 3.4894 30.4786 3.55607C30.4786 3.60638 30.4698 3.65292 30.4534 3.69695H30.4547Z" fill="#EBEEF5"/>
<path d="M21.8143 6.85547C21.7262 6.6932 21.6004 6.56993 21.4357 6.48314C21.2709 6.3976 21.0772 6.35483 20.8558 6.35483C20.4709 6.35483 20.1627 6.48062 19.9312 6.73346C19.6998 6.98629 19.584 7.32341 19.584 7.7448C19.584 8.19387 19.7061 8.54608 19.9488 8.79765C20.1916 9.05049 20.5275 9.17628 20.9539 9.17628C21.2457 9.17628 21.4923 9.10206 21.6948 8.95363C21.8961 8.8052 22.0432 8.59262 22.1363 8.31462H20.6281V7.43913H23.2143V8.54482C23.1263 8.84168 22.9766 9.11716 22.7665 9.37251C22.5552 9.62786 22.2885 9.83415 21.964 9.99139C21.6394 10.1486 21.2734 10.2279 20.8658 10.2279C20.3841 10.2279 19.9539 10.1222 19.5765 9.91214C19.1991 9.70082 18.9048 9.40773 18.6935 9.03288C18.4821 8.65803 18.3777 8.22909 18.3777 7.74732C18.3777 7.26554 18.4834 6.83535 18.6935 6.45798C18.9048 6.08061 19.1979 5.78627 19.5727 5.57494C19.9476 5.36361 20.3765 5.25921 20.8583 5.25921C21.442 5.25921 21.935 5.40009 22.3351 5.68312C22.7363 5.96614 23.0017 6.35735 23.1313 6.85799H21.8168L21.8143 6.85547Z" fill="#EBEEF5"/>
<path d="M24.7099 9.33104L24.4181 10.1927H23.174L24.9401 5.31208H26.3162L28.0823 10.1927H26.8244L26.5326 9.33104H24.7099ZM26.2257 8.41278L25.6206 6.62658L25.0231 8.41278H26.2257Z" fill="#EBEEF5"/>
<path d="M32.2145 8.11088C32.3856 8.33101 32.4711 8.58259 32.4711 8.86562C32.4711 9.27317 32.329 9.59645 32.0434 9.83545C31.7579 10.0744 31.3604 10.1939 30.8509 10.1939H28.5779V5.31333H30.7742C31.2698 5.31333 31.6585 5.42654 31.939 5.65422C32.2195 5.8819 32.3592 6.19008 32.3592 6.57877C32.3592 6.86557 32.2837 7.10457 32.1327 7.29451C31.9818 7.48445 31.7818 7.61653 31.5315 7.69075C31.8145 7.75112 32.0409 7.89075 32.2132 8.11088H32.2145ZM29.7679 7.28696H30.5465C30.7415 7.28696 30.8912 7.24419 30.9943 7.15866C31.0988 7.07312 31.1503 6.94608 31.1503 6.78003C31.1503 6.61399 31.0988 6.48569 30.9943 6.39764C30.8899 6.30958 30.7403 6.26556 30.5465 6.26556H29.7679V7.28696ZM31.105 9.09707C31.2145 9.0065 31.2686 8.87568 31.2686 8.7046C31.2686 8.53353 31.212 8.39894 31.0988 8.30082C30.9855 8.20396 30.8283 8.15491 30.6296 8.15491H29.7679V9.23292H30.6434C30.8421 9.23292 30.9969 9.18763 31.1063 9.09707H31.105Z" fill="#EBEEF5"/>
<path d="M34.2371 9.33104L33.9453 10.1927H32.7013L34.4673 5.31208H35.8435L37.6096 10.1927H36.3517L36.0598 9.33104H34.2371ZM35.7529 8.41278L35.1479 6.62658L34.5504 8.41278H35.7529Z" fill="#EBEEF5"/>
<path d="M40.6323 10.1927L39.6172 8.34989H39.3317V10.1927H38.143V5.31208H40.138C40.5229 5.31208 40.85 5.37875 41.1217 5.51335C41.3934 5.64794 41.5959 5.83159 41.7305 6.06556C41.8651 6.29953 41.9317 6.55991 41.9317 6.84797C41.9317 7.1725 41.8399 7.46182 41.6575 7.71717C41.4739 7.97252 41.2047 8.1524 40.8474 8.25932L41.9732 10.1914H40.6311L40.6323 10.1927ZM39.3329 7.50962H40.0701C40.2877 7.50962 40.4512 7.45679 40.5606 7.34986C40.6701 7.24294 40.7242 7.09326 40.7242 6.89828C40.7242 6.70331 40.6701 6.56746 40.5606 6.46054C40.4512 6.35362 40.2889 6.30078 40.0701 6.30078H39.3329V7.51087V7.50962Z" fill="#EBEEF5"/>
<path d="M43.8651 5.31208V10.1927H42.6764V5.31208H43.8651Z" fill="#EBEEF5"/>
<path d="M48.0991 5.31208V6.26431H46.806V10.1914H45.6173V6.26431H44.3242V5.31208H48.0991Z" fill="#EBEEF5"/>
<path d="M48.9394 9.33104L48.6476 10.1927H47.4035L49.1696 5.31208H50.5457L52.3118 10.1927H51.0539L50.7621 9.33104H48.9394ZM50.4552 8.41278L49.8501 6.62658L49.2526 8.41278H50.4552Z" fill="#EBEEF5"/>
<path d="M57.073 10.1927H55.8843L53.8955 7.18257V10.1927H52.7068V5.31208H53.8955L55.8843 8.33605V5.31208H57.073V10.1927Z" fill="#EBEEF5"/>
<path d="M60.834 5.61775C61.2189 5.82153 61.5158 6.10833 61.7271 6.47689C61.9384 6.84545 62.0428 7.27062 62.0428 7.75239C62.0428 8.23416 61.9372 8.6543 61.7271 9.02411C61.5158 9.39519 61.2176 9.68199 60.8302 9.88577C60.4428 10.0895 59.995 10.1914 59.4855 10.1914H57.6578V5.31082H59.4855C60 5.31082 60.4491 5.41271 60.834 5.61649V5.61775ZM60.4591 8.79518C60.7095 8.54989 60.834 8.20146 60.834 7.75239C60.834 7.30332 60.7095 6.95237 60.4591 6.70205C60.2088 6.45173 59.8591 6.3272 59.4101 6.3272H58.8465V9.16374H59.4101C59.8591 9.16374 60.2101 9.04047 60.4591 8.79518Z" fill="#EBEEF5"/>
<path d="M63.619 9.92099C63.2366 9.7084 62.9334 9.41028 62.7082 9.02789C62.4831 8.64549 62.3711 8.21529 62.3711 7.73855C62.3711 7.26181 62.4831 6.83287 62.7082 6.45299C62.9334 6.0731 63.2366 5.77624 63.619 5.56366C64.0014 5.35107 64.4215 5.24415 64.8806 5.24415C65.3397 5.24415 65.7599 5.35107 66.1423 5.56366C66.5247 5.7775 66.8253 6.0731 67.0455 6.45299C67.2656 6.83287 67.3763 7.26181 67.3763 7.73855C67.3763 8.21529 67.2656 8.64549 67.0429 9.02789C66.8203 9.41028 66.5197 9.7084 66.1398 9.92099C65.7599 10.1348 65.3398 10.2405 64.8819 10.2405C64.424 10.2405 64.0026 10.1336 63.6202 9.92099H63.619ZM65.8152 8.7675C66.0492 8.50838 66.1662 8.16497 66.1662 7.73855C66.1662 7.31212 66.0492 6.96369 65.8152 6.70582C65.5813 6.44921 65.2693 6.31965 64.8806 6.31965C64.4919 6.31965 64.1724 6.4467 63.9385 6.70205C63.7045 6.9574 63.5875 7.30206 63.5875 7.73729C63.5875 8.17252 63.7045 8.51215 63.9385 8.77002C64.1724 9.02663 64.4869 9.15619 64.8806 9.15619C65.2743 9.15619 65.5813 9.02663 65.8152 8.7675Z" fill="#EBEEF5"/>
<path d="M19.8331 11.6607L19.2255 13.272H18.9827L18.3752 11.6607H18.5991L19.106 13.0506L19.6129 11.6607H19.8343H19.8331Z" fill="#EBEEF5"/>
<path d="M20.9212 11.8317V12.3701H21.5086V12.5437H20.9212V13.0984H21.5778V13.272H20.7111V11.6581H21.5778V11.8317H20.9212Z" fill="#EBEEF5"/>
<path d="M24.1791 11.672V13.272H23.969V12.0783L23.437 13.272H23.2885L22.7539 12.077V13.272H22.5439V11.672H22.7703L23.3627 12.994L23.9552 11.672H24.1791Z" fill="#EBEEF5"/>
<path d="M27.6685 12.1273C27.6232 12.033 27.5591 11.96 27.4748 11.9085C27.3905 11.8569 27.2911 11.8305 27.1792 11.8305C27.0672 11.8305 26.9653 11.8569 26.8748 11.9085C26.7842 11.96 26.7138 12.0342 26.6622 12.1298C26.6106 12.2267 26.5842 12.3374 26.5842 12.4644C26.5842 12.5915 26.6106 12.7022 26.6622 12.7978C26.7138 12.8934 26.7842 12.9676 26.8748 13.0192C26.9653 13.0707 27.066 13.0972 27.1792 13.0972C27.3364 13.0972 27.466 13.0506 27.5679 12.9563C27.6697 12.8619 27.7289 12.7349 27.7465 12.5751H27.1037V12.4041H27.9704V12.5663C27.9578 12.6984 27.9163 12.8204 27.8458 12.9311C27.7754 13.0418 27.6811 13.1286 27.5666 13.1928C27.4509 13.2569 27.3226 13.2884 27.1804 13.2884C27.0307 13.2884 26.8949 13.2531 26.7716 13.1827C26.6483 13.1123 26.5502 13.0154 26.4785 12.8896C26.4068 12.7651 26.3716 12.6242 26.3716 12.467C26.3716 12.3097 26.4068 12.1688 26.4785 12.043C26.5502 11.9173 26.6471 11.8191 26.7716 11.75C26.8949 11.6795 27.0307 11.6443 27.1804 11.6443C27.3515 11.6443 27.5024 11.6871 27.6345 11.7713C27.7666 11.8556 27.8622 11.9751 27.9226 12.1298H27.671L27.6685 12.1273Z" fill="#EBEEF5"/>
<path d="M29.8471 12.9135H29.144L29.0144 13.272H28.793L29.3754 11.6695H29.6182L30.1981 13.272H29.9767L29.8471 12.9135ZM29.7868 12.7424L29.4949 11.9286L29.2031 12.7424H29.7868Z" fill="#EBEEF5"/>
<path d="M32.0686 12.5135C32.1176 12.5525 32.1554 12.6003 32.1843 12.6569C32.2132 12.7135 32.2271 12.7751 32.2271 12.8393C32.2271 12.9211 32.2057 12.994 32.1642 13.0607C32.1227 13.1261 32.0623 13.1777 31.983 13.2154C31.9038 13.2531 31.8095 13.272 31.7025 13.272H31.1013V11.6607H31.6799C31.7893 11.6607 31.8824 11.6783 31.9591 11.7147C32.0359 11.7512 32.0937 11.8003 32.1327 11.8619C32.1717 11.9236 32.1906 11.9927 32.1906 12.0695C32.1906 12.1651 32.1642 12.2443 32.1126 12.306C32.061 12.3688 31.9931 12.4129 31.9076 12.4418C31.9667 12.4506 32.0195 12.4745 32.0686 12.5135ZM31.3113 12.3563H31.6648C31.7629 12.3563 31.8396 12.3336 31.8937 12.2871C31.9478 12.2405 31.9742 12.1764 31.9742 12.0946C31.9742 12.0129 31.9478 11.9487 31.8937 11.9022C31.8396 11.8556 31.7617 11.833 31.6598 11.833H31.3101V12.355L31.3113 12.3563ZM31.9277 13.0255C31.9868 12.9764 32.0157 12.9072 32.0157 12.8192C32.0157 12.7311 31.9843 12.6594 31.9227 12.6078C31.861 12.5563 31.778 12.5299 31.6749 12.5299H31.3101V13.0984H31.6824C31.7868 13.0984 31.8686 13.0733 31.9277 13.0242V13.0255Z" fill="#EBEEF5"/>
<path d="M34.1177 12.9135H33.4145L33.285 13.272H33.0636L33.646 11.6695H33.8888L34.4686 13.272H34.2473L34.1177 12.9135ZM34.0573 12.7424L33.7655 11.9286L33.4736 12.7424H34.0573Z" fill="#EBEEF5"/>
<path d="M36.2196 13.272L35.836 12.6129H35.5819V13.272H35.3718V11.6607H35.8926C36.0146 11.6607 36.1177 11.682 36.2008 11.7235C36.285 11.7651 36.3479 11.8217 36.3895 11.8921C36.431 11.9625 36.4523 12.0443 36.4523 12.1349C36.4523 12.2456 36.4209 12.3437 36.3567 12.428C36.2926 12.5122 36.197 12.5688 36.0687 12.5965L36.4737 13.272H36.2196ZM35.5819 12.4443H35.8913C36.0058 12.4443 36.0913 12.4166 36.1479 12.36C36.2045 12.3034 36.2335 12.2292 36.2335 12.1349C36.2335 12.0405 36.2058 11.9651 36.1492 11.9135C36.0926 11.8607 36.0071 11.8355 35.8913 11.8355H35.5819V12.4456V12.4443Z" fill="#EBEEF5"/>
<path d="M37.6348 11.6607V13.272H37.4247V11.6607H37.6348Z" fill="#EBEEF5"/>
<path d="M39.6323 11.6607V11.8317H39.1933V13.272H38.9832V11.8317H38.5417V11.6607H39.6336H39.6323Z" fill="#EBEEF5"/>
<path d="M41.2147 12.9135H40.5115L40.382 13.272H40.1606L40.743 11.6695H40.9858L41.5657 13.272H41.3443L41.2147 12.9135ZM41.1543 12.7424L40.8625 11.9286L40.5707 12.7424H41.1543Z" fill="#EBEEF5"/>
<path d="M43.3166 13.272L42.933 12.6129H42.6789V13.272H42.4688V11.6607H42.9896C43.1116 11.6607 43.2148 11.682 43.2978 11.7235C43.3821 11.7651 43.4449 11.8217 43.4865 11.8921C43.528 11.9625 43.5494 12.0443 43.5494 12.1349C43.5494 12.2456 43.5179 12.3437 43.4538 12.428C43.3896 12.5122 43.294 12.5688 43.1657 12.5965L43.5707 13.272H43.3166ZM42.6776 12.4443H42.9871C43.1015 12.4443 43.1871 12.4166 43.2437 12.36C43.3003 12.3034 43.3292 12.2292 43.3292 12.1349C43.3292 12.0405 43.3016 11.9651 43.2449 11.9135C43.1883 11.8607 43.1028 11.8355 42.9871 11.8355H42.6776V12.4456V12.4443Z" fill="#EBEEF5"/>
<path d="M45.8135 12.0405C45.8839 11.9147 45.9808 11.8166 46.1041 11.7462C46.2261 11.6757 46.3632 11.6393 46.5116 11.6393C46.6877 11.6393 46.8412 11.682 46.972 11.7663C47.1028 11.8506 47.1984 11.9713 47.2588 12.1273H47.0072C46.962 12.0305 46.8978 11.955 46.8148 11.9034C46.7305 11.8506 46.6299 11.8242 46.5129 11.8242C46.3959 11.8242 46.299 11.8506 46.2097 11.9034C46.1204 11.9563 46.05 12.0305 45.9997 12.1261C45.9494 12.2229 45.9229 12.3349 45.9229 12.4644C45.9229 12.594 45.9481 12.7047 45.9997 12.8003C46.05 12.8972 46.1204 12.9714 46.2097 13.0229C46.299 13.0758 46.3997 13.1009 46.5129 13.1009C46.6261 13.1009 46.7305 13.0745 46.8148 13.0229C46.8991 12.9714 46.9632 12.8972 47.0072 12.8003H47.2588C47.1984 12.955 47.1028 13.0733 46.972 13.1575C46.8412 13.2418 46.6877 13.2833 46.5116 13.2833C46.3619 13.2833 46.2261 13.2481 46.1041 13.1777C45.9821 13.1072 45.8852 13.0104 45.8135 12.8846C45.7431 12.76 45.7066 12.6192 45.7066 12.4619C45.7066 12.3047 45.7418 12.1638 45.8135 12.038V12.0405Z" fill="#EBEEF5"/>
<path d="M48.5394 13.1827C48.4161 13.1123 48.318 13.0141 48.2463 12.8896C48.1746 12.7638 48.1394 12.6229 48.1394 12.4657C48.1394 12.3085 48.1746 12.1676 48.2463 12.0418C48.318 11.916 48.4149 11.8179 48.5394 11.7487C48.6627 11.6783 48.7985 11.643 48.9482 11.643C49.0979 11.643 49.2363 11.6783 49.3595 11.7487C49.4828 11.8191 49.5797 11.916 49.6514 12.0418C49.7218 12.1663 49.7583 12.3085 49.7583 12.467C49.7583 12.6255 49.7231 12.7676 49.6514 12.8921C49.5809 13.0167 49.4828 13.1148 49.3595 13.1852C49.2363 13.2557 49.0991 13.2909 48.9482 13.2909C48.7973 13.2909 48.6627 13.2557 48.5394 13.1852V13.1827ZM49.2526 13.0267C49.3432 12.9739 49.4136 12.8997 49.4652 12.8028C49.5168 12.706 49.5432 12.5927 49.5432 12.4657C49.5432 12.3387 49.5168 12.2229 49.4652 12.1273C49.4136 12.0305 49.3432 11.9563 49.2539 11.9047C49.1646 11.8519 49.0627 11.8254 48.9482 11.8254C48.8337 11.8254 48.7318 11.8519 48.6425 11.9047C48.5532 11.9575 48.4828 12.0317 48.4312 12.1273C48.3796 12.2242 48.3532 12.3361 48.3532 12.4657C48.3532 12.5953 48.3796 12.706 48.4312 12.8028C48.4828 12.8997 48.5532 12.9751 48.6438 13.0267C48.7344 13.0796 48.835 13.106 48.9482 13.106C49.0614 13.106 49.162 13.0796 49.2526 13.0267Z" fill="#EBEEF5"/>
<path d="M52.3181 11.672V13.272H52.108V12.0783L51.576 13.272H51.4275L50.8929 12.077V13.272H50.6828V11.672H50.9093L51.5017 12.994L52.0942 11.672H52.3181Z" fill="#EBEEF5"/>
<path d="M55.5395 12.9135H54.8364L54.7068 13.272H54.4854L55.0678 11.6695H55.3106L55.8905 13.272H55.6691L55.5395 12.9135ZM55.4792 12.7424L55.1873 11.9286L54.8955 12.7424H55.4792Z" fill="#EBEEF5"/>
<path d="M59.278 12.1273C59.2327 12.033 59.1685 11.96 59.0843 11.9085C59 11.8569 58.9006 11.8305 58.7887 11.8305C58.6767 11.8305 58.5748 11.8569 58.4843 11.9085C58.3937 11.96 58.3232 12.0342 58.2717 12.1298C58.2201 12.2267 58.1937 12.3374 58.1937 12.4644C58.1937 12.5915 58.2201 12.7022 58.2717 12.7978C58.3232 12.8934 58.3937 12.9676 58.4843 13.0192C58.5748 13.0707 58.6755 13.0972 58.7887 13.0972C58.9459 13.0972 59.0755 13.0506 59.1774 12.9563C59.2792 12.8619 59.3384 12.7349 59.356 12.5751H58.7132V12.4041H59.5799V12.5663C59.5673 12.6984 59.5258 12.8204 59.4553 12.9311C59.3849 13.0418 59.2906 13.1286 59.1761 13.1928C59.0604 13.2569 58.9321 13.2884 58.7899 13.2884C58.6402 13.2884 58.5044 13.2531 58.3811 13.1827C58.2578 13.1123 58.1597 13.0154 58.088 12.8896C58.0163 12.7651 57.9811 12.6242 57.9811 12.467C57.9811 12.3097 58.0163 12.1688 58.088 12.043C58.1597 11.9173 58.2566 11.8191 58.3811 11.75C58.5044 11.6795 58.6402 11.6443 58.7899 11.6443C58.961 11.6443 59.1119 11.6871 59.244 11.7713C59.3761 11.8556 59.4717 11.9751 59.5321 12.1298H59.2805L59.278 12.1273Z" fill="#EBEEF5"/>
<path d="M60.7145 11.8317V12.3701H61.3019V12.5437H60.7145V13.0984H61.3711V13.272H60.5044V11.6581H61.3711V11.8317H60.7145Z" fill="#EBEEF5"/>
<path d="M63.6051 13.272H63.395L62.5485 11.989V13.272H62.3384V11.6581H62.5485L63.395 12.9387V11.6581H63.6051V13.272Z" fill="#EBEEF5"/>
<path d="M65.6026 11.6607V11.8317H65.1636V13.272H64.9536V11.8317H64.512V11.6607H65.6039H65.6026Z" fill="#EBEEF5"/>
<path d="M66.7197 11.8317V12.3701H67.3071V12.5437H66.7197V13.0984H67.3763V13.272H66.5096V11.6581H67.3763V11.8317H66.7197Z" fill="#EBEEF5"/>
</svg>
