<svg width="61" height="17" viewBox="0 0 61 17" fill="none" xmlns="http://www.w3.org/2000/svg">
<path fill-rule="evenodd" clip-rule="evenodd" d="M14.7035 1.06874e-05C16.009 1.06874e-05 17.0672 1.0546 17.0673 2.3555V14.6515C17.0673 15.9525 16.009 17.007 14.7035 17.007H2.36385C1.05832 17.0069 0 15.9524 0 14.6515V2.3555C6.77448e-05 1.05463 1.05836 7.10675e-05 2.36385 1.06874e-05H14.7035ZM7.25859 3.00416C7.07278 3.00416 6.91451 3.11119 6.84614 3.28356L2.83445 13.3999C2.77891 13.5403 2.79554 13.686 2.88028 13.8109C2.96501 13.9357 3.09527 14.0038 3.2469 14.0038H5.48755C5.6734 14.0038 5.83236 13.8959 5.90001 13.7235L9.87375 3.60666C9.92856 3.46693 9.91209 3.32149 9.82743 3.19665C9.74199 3.07248 9.61225 3.00416 9.4613 3.00416H7.25859ZM11.1974 6.50573C11.0116 6.50578 10.8536 6.61336 10.7859 6.78562L8.82414 11.7794C8.76935 11.9192 8.7858 12.0646 8.87046 12.1895C8.95591 12.3136 9.08564 12.3819 9.23659 12.3819H10.334C10.5197 12.382 10.6776 12.489 10.746 12.6613L11.1678 13.7244C11.2362 13.896 11.394 14.0038 11.5797 14.0038H13.8219C13.9728 14.0038 14.1033 13.935 14.188 13.8109C14.2727 13.686 14.2889 13.5403 14.2333 13.3999L11.6103 6.78513C11.5419 6.61276 11.3832 6.50573 11.1974 6.50573Z" fill="#EBEEF5"/>
<path d="M20.5049 7.20495L23.154 0H24.1138L26.7884 7.20495H26.1741L23.6403 0.268746L21.0936 7.20495H20.5049ZM21.7974 4.83743L21.9126 4.32553H25.3679L25.4703 4.83743H21.7974Z" fill="#EBEEF5"/>
<path d="M27.2529 7.20495L29.9404 3.37852L27.5217 0H28.2511L30.2987 2.969L32.3591 0H33.0758L30.6826 3.37852L33.3829 7.20495H32.6662L30.2987 3.78804L27.9312 7.20495H27.2529Z" fill="#EBEEF5"/>
<path d="M35.3929 6.9746V0.230354H35.9688V6.9746H35.3929ZM34.3819 7.20495V6.69306H36.967V7.20495H34.3819ZM34.3819 0.524695V0H36.967V0.524695H34.3819Z" fill="#EBEEF5"/>
<path d="M41.2572 7.38412C40.3273 7.38412 39.6064 7.10258 39.0945 6.53949C38.5826 5.96787 38.3266 5.1659 38.3266 4.13357V0H38.9153V4.13357C38.9153 4.58575 38.9707 4.98247 39.0817 5.32373C39.1926 5.65647 39.3504 5.93801 39.5552 6.16836C39.7599 6.39018 40.0073 6.55655 40.2974 6.66746C40.5875 6.77837 40.9074 6.83383 41.2572 6.83383C41.7691 6.83383 42.1957 6.73572 42.537 6.53949C42.8868 6.34326 43.1512 6.04465 43.3304 5.64367C43.5181 5.24268 43.6119 4.73932 43.6119 4.13357V0H44.1878V4.13357C44.1878 5.18296 43.9361 5.9892 43.4328 6.55229C42.9379 7.10684 42.2128 7.38412 41.2572 7.38412Z" fill="#EBEEF5"/>
<path d="M45.5237 7.20495V0H46.5347L49.1837 6.92341H49.2093L51.8328 0H52.8438V7.20495H52.2551L52.2679 0.345531H52.2551L49.6188 7.20495H48.7358L46.1123 0.345531H46.0867L46.1123 7.20495H45.5237Z" fill="#EBEEF5"/>
<path d="M20.5049 16.8278V9.62289H23.2307C23.4611 9.62289 23.7042 9.63569 23.9602 9.66128C24.2161 9.67835 24.4636 9.721 24.7024 9.78926C24.9499 9.85751 25.1717 9.96415 25.3679 10.1092C25.5641 10.2457 25.7177 10.4291 25.8286 10.6595C25.9481 10.8898 26.0078 11.1799 26.0078 11.5297C26.0078 11.8027 25.9523 12.0587 25.8414 12.2976C25.739 12.5279 25.5471 12.7156 25.2655 12.8606C24.9925 13.0057 24.5915 13.0867 24.0626 13.1038V13.155C24.6683 13.1635 25.1333 13.2488 25.4575 13.4109C25.7902 13.573 26.0206 13.7863 26.1486 14.0508C26.2765 14.3067 26.3405 14.5926 26.3405 14.9082C26.3405 15.2666 26.2765 15.5652 26.1486 15.804C26.0206 16.0344 25.8499 16.2178 25.6367 16.3543C25.4234 16.4908 25.1845 16.5932 24.92 16.6615C24.6555 16.7297 24.3825 16.7767 24.101 16.8022C23.828 16.8193 23.572 16.8278 23.3331 16.8278H20.5049ZM21.5543 15.9576H23.2435C23.6104 15.9576 23.9431 15.9363 24.2417 15.8936C24.5403 15.8424 24.7792 15.7315 24.9584 15.5609C25.1461 15.3903 25.2399 15.1301 25.2399 14.7803C25.2399 14.4049 25.1418 14.1319 24.9456 13.9612C24.7579 13.7821 24.5062 13.6669 24.1905 13.6157C23.8749 13.556 23.5251 13.5261 23.1412 13.5261H21.5543V15.9576ZM21.5543 12.6943H23.1028C23.4526 12.6943 23.764 12.6729 24.037 12.6303C24.3185 12.5876 24.5403 12.4938 24.7024 12.3487C24.8645 12.1952 24.9456 11.9563 24.9456 11.6321C24.9456 11.2738 24.8603 11.0178 24.6896 10.8642C24.519 10.7021 24.2929 10.604 24.0114 10.5699C23.7384 10.5272 23.4398 10.5059 23.1156 10.5059H21.5543V12.6943Z" fill="#EBEEF5"/>
<path d="M27.4133 16.8278V9.62289H29.9344C30.5487 9.62289 31.0691 9.68688 31.4957 9.81485C31.9308 9.94282 32.2635 10.1604 32.4939 10.4675C32.7242 10.7661 32.8394 11.1799 32.8394 11.7089C32.8394 12.0757 32.7754 12.4042 32.6474 12.6943C32.528 12.9843 32.3446 13.2147 32.0972 13.3853C31.8497 13.5474 31.5426 13.6285 31.1757 13.6285C31.4573 13.6285 31.6748 13.6839 31.8284 13.7949C31.9905 13.8972 32.11 14.038 32.1867 14.2172C32.2635 14.3878 32.3147 14.5712 32.3403 14.7675C32.3659 14.9637 32.383 15.1556 32.3915 15.3433C32.4086 15.531 32.4384 15.6931 32.4811 15.8296C32.5237 15.9661 32.5963 16.06 32.6986 16.1112C32.8096 16.1624 32.9674 16.1496 33.1721 16.0728V16.7127C33.0527 16.815 32.8991 16.8833 32.7114 16.9174C32.5237 16.9601 32.3318 16.9473 32.1356 16.879C31.9479 16.8193 31.7858 16.6913 31.6492 16.4951C31.5213 16.2904 31.4573 15.996 31.4573 15.6121C31.4573 15.2538 31.4402 14.9552 31.4061 14.7163C31.3805 14.4774 31.3165 14.294 31.2141 14.166C31.1118 14.0295 30.9539 13.9314 30.7406 13.8716C30.5273 13.8034 30.2373 13.7693 29.8704 13.7693C29.5121 13.7607 29.0514 13.765 28.4883 13.7821V16.8278H27.4133ZM28.4883 12.9886H29.9728C30.4079 12.9886 30.7662 12.963 31.0478 12.9118C31.3293 12.8521 31.5383 12.7369 31.6748 12.5663C31.8199 12.3871 31.8924 12.1269 31.8924 11.7857C31.8924 11.3847 31.8071 11.0946 31.6364 10.9154C31.4658 10.7363 31.2184 10.6254 30.8942 10.5827C30.57 10.5315 30.169 10.5059 29.6912 10.5059H28.4883V12.9886Z" fill="#EBEEF5"/>
<path d="M37.2797 17.007C36.1279 17.007 35.2492 16.67 34.6435 15.996C34.0377 15.3135 33.7348 14.3963 33.7348 13.2446C33.7348 12.4852 33.8628 11.8283 34.1188 11.2738C34.3832 10.7107 34.7757 10.2756 35.2961 9.96842C35.8251 9.65275 36.4863 9.49492 37.2797 9.49492C38.4315 9.49492 39.306 9.83618 39.9032 10.5187C40.5089 11.1927 40.8118 12.1013 40.8118 13.2446C40.8118 13.9868 40.6753 14.6437 40.4023 15.2154C40.1378 15.7785 39.7454 16.2178 39.2249 16.5335C38.7045 16.8492 38.0561 17.007 37.2797 17.007ZM37.2669 15.9832C37.8215 15.9832 38.2822 15.868 38.649 15.6377C39.0244 15.3988 39.3017 15.0746 39.4809 14.6651C39.6686 14.247 39.7624 13.7735 39.7624 13.2446C39.7624 12.7071 39.6728 12.2336 39.4937 11.824C39.3145 11.406 39.0372 11.0818 38.6618 10.8514C38.295 10.6126 37.83 10.4931 37.2669 10.4931C36.4479 10.4931 35.8251 10.7405 35.3985 11.2354C34.9804 11.7302 34.7714 12.3999 34.7714 13.2446C34.7714 13.765 34.861 14.2342 35.0402 14.6523C35.2193 15.0618 35.4923 15.386 35.8592 15.6249C36.2346 15.8638 36.7038 15.9832 37.2669 15.9832Z" fill="#EBEEF5"/>
<path d="M43.0181 14.4731V13.2574L46.563 9.62289H47.9451V9.76366L43.0181 14.4731ZM42.0071 16.8278V9.62289H43.0693V16.8278H42.0071ZM46.8701 16.8278L44.0035 13.0526L44.7713 12.2976L48.0986 16.6871V16.8278H46.8701Z" fill="#EBEEF5"/>
<path d="M48.9613 16.8278V9.62289H53.9523V10.5443H50.0107V12.7327H53.0821V13.6157H50.0107V15.9576H54.0802V16.8278H48.9613Z" fill="#EBEEF5"/>
<path d="M55.1582 16.8278V9.62289H57.6793C58.2936 9.62289 58.814 9.68688 59.2406 9.81485C59.6757 9.94282 60.0085 10.1604 60.2388 10.4675C60.4692 10.7661 60.5844 11.1799 60.5844 11.7089C60.5844 12.0757 60.5204 12.4042 60.3924 12.6943C60.2729 12.9843 60.0895 13.2147 59.8421 13.3853C59.5947 13.5474 59.2875 13.6285 58.9207 13.6285C59.2022 13.6285 59.4198 13.6839 59.5734 13.7949C59.7355 13.8972 59.8549 14.038 59.9317 14.2172C60.0085 14.3878 60.0597 14.5712 60.0852 14.7675C60.1108 14.9637 60.1279 15.1556 60.1364 15.3433C60.1535 15.531 60.1834 15.6931 60.226 15.8296C60.2687 15.9661 60.3412 16.06 60.4436 16.1112C60.5545 16.1624 60.7123 16.1496 60.9171 16.0728V16.7127C60.7976 16.815 60.6441 16.8833 60.4564 16.9174C60.2687 16.9601 60.0767 16.9473 59.8805 16.879C59.6928 16.8193 59.5307 16.6913 59.3942 16.4951C59.2662 16.2904 59.2022 15.996 59.2022 15.6121C59.2022 15.2538 59.1852 14.9552 59.151 14.7163C59.1254 14.4774 59.0615 14.294 58.9591 14.166C58.8567 14.0295 58.6989 13.9314 58.4856 13.8716C58.2723 13.8034 57.9822 13.7693 57.6153 13.7693C57.257 13.7607 56.7963 13.765 56.2332 13.7821V16.8278H55.1582ZM56.2332 12.9886H57.7177C58.1528 12.9886 58.5112 12.963 58.7927 12.9118C59.0743 12.8521 59.2833 12.7369 59.4198 12.5663C59.5648 12.3871 59.6373 12.1269 59.6373 11.7857C59.6373 11.3847 59.552 11.0946 59.3814 10.9154C59.2108 10.7363 58.9633 10.6254 58.6391 10.5827C58.3149 10.5315 57.914 10.5059 57.4362 10.5059H56.2332V12.9886Z" fill="#EBEEF5"/>
</svg>
