<svg width="71" height="24" viewBox="0 0 71 24" fill="none" xmlns="http://www.w3.org/2000/svg">
<path d="M0 21.3452L4.04922 23.8325L8.90828 15.8498L16.6596 20.651L19.147 16.6018L11.3957 11.9163L4.74337 13.3046L0 21.3452Z" fill="#EBEEF5"/>
<path d="M22.5021 2.48738L18.4529 0L13.5938 7.98275L5.84244 3.18153L3.35507 7.23075L11.1064 11.9163L17.7587 10.528L22.5021 2.48738Z" fill="#EBEEF5"/>
<path d="M21.0071 14.6838L22.8245 12.3009L22.8018 12.9494L21.0599 10.6268H22.3795L23.4805 12.1425L22.9828 12.1576L24.1215 10.6268H25.3733L23.6238 12.9268V12.2933L25.4336 14.6838H24.0989L22.9451 13.07L23.4353 13.1379L22.2891 14.6838H21.0071Z" fill="#EBEEF5"/>
<path d="M27.8929 14.7441C27.4304 14.7441 27.0232 14.6536 26.6713 14.4726C26.3244 14.2917 26.0554 14.0453 25.8644 13.7336C25.6734 13.4169 25.5778 13.0575 25.5778 12.6553C25.5778 12.2481 25.6708 11.8886 25.8568 11.5769C26.0479 11.2602 26.3068 11.0139 26.6336 10.8379C26.9603 10.6569 27.3298 10.5664 27.7421 10.5664C28.1392 10.5664 28.4962 10.6519 28.8129 10.8228C29.1346 10.9887 29.3885 11.23 29.5745 11.5468C29.7605 11.8585 29.8535 12.233 29.8535 12.6704C29.8535 12.7156 29.851 12.7684 29.846 12.8287C29.841 12.884 29.8359 12.9368 29.8309 12.9871H26.5355V12.3009H29.2126L28.7601 12.5045C28.7601 12.2933 28.7174 12.1098 28.6319 11.954C28.5464 11.7981 28.4283 11.6775 28.2775 11.592C28.1267 11.5015 27.9507 11.4563 27.7496 11.4563C27.5485 11.4563 27.3701 11.5015 27.2142 11.592C27.0634 11.6775 26.9453 11.8006 26.8598 11.9615C26.7743 12.1174 26.7316 12.3034 26.7316 12.5195V12.7005C26.7316 12.9217 26.7794 13.1178 26.8749 13.2887C26.9754 13.4546 27.1137 13.5828 27.2896 13.6733C27.4706 13.7588 27.6818 13.8015 27.9231 13.8015C28.1392 13.8015 28.3278 13.7688 28.4886 13.7035C28.6545 13.6381 28.8053 13.5401 28.9411 13.4094L29.567 14.0881C29.381 14.2992 29.1472 14.4626 28.8657 14.5782C28.5841 14.6888 28.2599 14.7441 27.8929 14.7441Z" fill="#EBEEF5"/>
<path d="M30.6367 14.6838V9.08843H31.8131V14.6838H30.6367Z" fill="#EBEEF5"/>
<path d="M34.9183 14.7441C34.4558 14.7441 34.0486 14.6536 33.6967 14.4726C33.3498 14.2917 33.0809 14.0453 32.8898 13.7336C32.6988 13.4169 32.6033 13.0575 32.6033 12.6553C32.6033 12.2481 32.6963 11.8886 32.8823 11.5769C33.0733 11.2602 33.3322 11.0139 33.659 10.8379C33.9858 10.6569 34.3553 10.5664 34.7675 10.5664C35.1647 10.5664 35.5216 10.6519 35.8383 10.8228C36.1601 10.9887 36.4139 11.23 36.5999 11.5468C36.786 11.8585 36.879 12.233 36.879 12.6704C36.879 12.7156 36.8764 12.7684 36.8714 12.8287C36.8664 12.884 36.8614 12.9368 36.8563 12.9871H33.561V12.3009H36.238L35.7855 12.5045C35.7855 12.2933 35.7428 12.1098 35.6573 11.954C35.5719 11.7981 35.4537 11.6775 35.3029 11.592C35.1521 11.5015 34.9761 11.4563 34.775 11.4563C34.574 11.4563 34.3955 11.5015 34.2396 11.592C34.0888 11.6775 33.9707 11.8006 33.8852 11.9615C33.7997 12.1174 33.757 12.3034 33.757 12.5195V12.7005C33.757 12.9217 33.8048 13.1178 33.9003 13.2887C34.0008 13.4546 34.1391 13.5828 34.315 13.6733C34.496 13.7588 34.7072 13.8015 34.9485 13.8015C35.1647 13.8015 35.3532 13.7688 35.5141 13.7035C35.68 13.6381 35.8308 13.5401 35.9665 13.4094L36.5924 14.0881C36.4064 14.2992 36.1726 14.4626 35.8911 14.5782C35.6096 14.6888 35.2853 14.7441 34.9183 14.7441Z" fill="#EBEEF5"/>
<path d="M37.6622 14.6838V10.6268H38.7857V11.773L38.6274 11.4412C38.748 11.1546 38.9416 10.9385 39.208 10.7927C39.4745 10.6419 39.7987 10.5664 40.1808 10.5664V11.6523C40.1305 11.6473 40.0853 11.6448 40.0451 11.6448C40.0049 11.6398 39.9621 11.6373 39.9169 11.6373C39.5951 11.6373 39.3337 11.7303 39.1326 11.9163C38.9366 12.0973 38.8385 12.3813 38.8385 12.7684V14.6838H37.6622Z" fill="#EBEEF5"/>
<path d="M43.1037 14.6838V13.892L43.0283 13.7186V12.3009C43.0283 12.0495 42.9504 11.8534 42.7945 11.7127C42.6437 11.5719 42.4099 11.5015 42.0932 11.5015C41.877 11.5015 41.6634 11.5367 41.4522 11.6071C41.2461 11.6725 41.0702 11.7629 40.9244 11.8786L40.5021 11.0566C40.7233 10.9008 40.9897 10.7801 41.3014 10.6946C41.6131 10.6092 41.9298 10.5664 42.2516 10.5664C42.8699 10.5664 43.35 10.7122 43.6919 11.0038C44.0337 11.2954 44.2047 11.7504 44.2047 12.3687V14.6838H43.1037ZM41.867 14.7441C41.5503 14.7441 41.2788 14.6913 41.0526 14.5858C40.8263 14.4752 40.6529 14.3269 40.5322 14.1408C40.4116 13.9548 40.3513 13.7462 40.3513 13.5149C40.3513 13.2736 40.4091 13.0625 40.5247 12.8815C40.6454 12.7005 40.8339 12.5598 41.0903 12.4592C41.3467 12.3536 41.681 12.3009 42.0932 12.3009H43.1716V12.9871H42.2214C41.9449 12.9871 41.7539 13.0323 41.6483 13.1228C41.5478 13.2133 41.4975 13.3264 41.4975 13.4622C41.4975 13.613 41.5553 13.7336 41.6709 13.8241C41.7916 13.9096 41.955 13.9523 42.1611 13.9523C42.3571 13.9523 42.5331 13.9071 42.6889 13.8166C42.8448 13.7211 42.9579 13.5828 43.0283 13.4018L43.2093 13.9448C43.1238 14.2062 42.968 14.4048 42.7417 14.5405C42.5155 14.6762 42.2239 14.7441 41.867 14.7441Z" fill="#EBEEF5"/>
<path d="M46.9283 14.7441C46.4508 14.7441 46.0787 14.6235 45.8123 14.3822C45.5458 14.1358 45.4126 13.7713 45.4126 13.2887V9.72941H46.589V13.2736C46.589 13.4446 46.6343 13.5778 46.7247 13.6733C46.8152 13.7638 46.9384 13.809 47.0942 13.809C47.2803 13.809 47.4386 13.7588 47.5693 13.6582L47.886 14.4877C47.7654 14.5732 47.6196 14.6385 47.4487 14.6838C47.2828 14.724 47.1093 14.7441 46.9283 14.7441ZM44.7867 11.6222V10.7173H47.5995V11.6222H44.7867Z" fill="#EBEEF5"/>
<path d="M50.4346 14.7441C49.9721 14.7441 49.5649 14.6536 49.213 14.4726C48.8661 14.2917 48.5972 14.0453 48.4061 13.7336C48.2151 13.4169 48.1196 13.0575 48.1196 12.6553C48.1196 12.2481 48.2126 11.8886 48.3986 11.5769C48.5896 11.2602 48.8485 11.0139 49.1753 10.8379C49.5021 10.6569 49.8716 10.5664 50.2838 10.5664C50.681 10.5664 51.0379 10.6519 51.3546 10.8228C51.6764 10.9887 51.9303 11.23 52.1163 11.5468C52.3023 11.8585 52.3953 12.233 52.3953 12.6704C52.3953 12.7156 52.3928 12.7684 52.3877 12.8287C52.3827 12.884 52.3777 12.9368 52.3727 12.9871H49.0773V12.3009H51.7543L51.3018 12.5045C51.3018 12.2933 51.2591 12.1098 51.1737 11.954C51.0882 11.7981 50.97 11.6775 50.8192 11.592C50.6684 11.5015 50.4925 11.4563 50.2914 11.4563C50.0903 11.4563 49.9118 11.5015 49.756 11.592C49.6051 11.6775 49.487 11.8006 49.4015 11.9615C49.3161 12.1174 49.2733 12.3034 49.2733 12.5195V12.7005C49.2733 12.9217 49.3211 13.1178 49.4166 13.2887C49.5172 13.4546 49.6554 13.5828 49.8314 13.6733C50.0123 13.7588 50.2235 13.8015 50.4648 13.8015C50.681 13.8015 50.8695 13.7688 51.0304 13.7035C51.1963 13.6381 51.3471 13.5401 51.4828 13.4094L52.1087 14.0881C51.9227 14.2992 51.6889 14.4626 51.4074 14.5782C51.1259 14.6888 50.8016 14.7441 50.4346 14.7441Z" fill="#EBEEF5"/>
<path d="M53.6234 14.7441C53.4223 14.7441 53.2489 14.6762 53.1031 14.5405C52.9623 14.3997 52.8919 14.2213 52.8919 14.0051C52.8919 13.7889 52.9623 13.6155 53.1031 13.4848C53.2489 13.349 53.4223 13.2812 53.6234 13.2812C53.8295 13.2812 54.0029 13.349 54.1437 13.4848C54.2845 13.6155 54.3549 13.7889 54.3549 14.0051C54.3549 14.2213 54.2845 14.3997 54.1437 14.5405C54.0029 14.6762 53.8295 14.7441 53.6234 14.7441Z" fill="#EBEEF5"/>
<path d="M56.6075 14.7215C56.2354 14.7215 55.9489 14.6209 55.7478 14.4199C55.5467 14.2188 55.4462 13.9347 55.4462 13.5677V9.85006H55.9816V13.5376C55.9816 13.7688 56.0394 13.9473 56.155 14.073C56.2757 14.1987 56.4466 14.2615 56.6678 14.2615C56.9041 14.2615 57.1001 14.1936 57.256 14.0579L57.4445 14.4425C57.3389 14.538 57.2107 14.6084 57.0599 14.6536C56.9141 14.6989 56.7633 14.7215 56.6075 14.7215ZM54.7373 11.1697V10.7248H57.1881V11.1697H54.7373Z" fill="#EBEEF5"/>
<path d="M59.9609 14.7215C59.5486 14.7215 59.1867 14.636 58.875 14.4651C58.5633 14.2891 58.3195 14.0504 58.1435 13.7487C57.9676 13.4421 57.8796 13.0927 57.8796 12.7005C57.8796 12.3084 57.9625 11.9615 58.1284 11.6599C58.2994 11.3582 58.5306 11.122 58.8222 10.951C59.1188 10.7751 59.4506 10.6871 59.8176 10.6871C60.1896 10.6871 60.5189 10.7726 60.8055 10.9435C61.097 11.1094 61.3258 11.3457 61.4917 11.6523C61.6576 11.954 61.7405 12.3034 61.7405 12.7005C61.7405 12.7257 61.738 12.7533 61.733 12.7835C61.733 12.8086 61.733 12.8363 61.733 12.8664H58.2868V12.4668H61.4464L61.2353 12.6251C61.2353 12.3386 61.1725 12.0847 61.0468 11.8635C60.9261 11.6373 60.7602 11.4613 60.5491 11.3356C60.3379 11.2099 60.0941 11.1471 59.8176 11.1471C59.5461 11.1471 59.3023 11.2099 59.0861 11.3356C58.87 11.4613 58.7015 11.6373 58.5809 11.8635C58.4602 12.0897 58.3999 12.3486 58.3999 12.6402V12.7232C58.3999 13.0248 58.4653 13.2912 58.596 13.5225C58.7317 13.7487 58.9177 13.9272 59.154 14.0579C59.3953 14.1836 59.6693 14.2464 59.976 14.2464C60.2173 14.2464 60.441 14.2037 60.6471 14.1182C60.8583 14.0328 61.0392 13.902 61.19 13.7261L61.4917 14.073C61.3157 14.2841 61.0945 14.445 60.8281 14.5556C60.5667 14.6662 60.2776 14.7215 59.9609 14.7215Z" fill="#EBEEF5"/>
<path d="M64.4742 14.7215C64.0821 14.7215 63.7302 14.636 63.4185 14.4651C63.1118 14.2891 62.8705 14.0504 62.6946 13.7487C62.5186 13.4421 62.4306 13.0927 62.4306 12.7005C62.4306 12.3034 62.5186 11.954 62.6946 11.6523C62.8705 11.3507 63.1118 11.1144 63.4185 10.9435C63.7302 10.7726 64.0821 10.6871 64.4742 10.6871C64.8111 10.6871 65.1152 10.7525 65.3867 10.8832C65.6582 11.0139 65.8718 11.2099 66.0277 11.4714L65.628 11.7428C65.4923 11.5417 65.3238 11.3934 65.1228 11.2979C64.9217 11.2024 64.703 11.1546 64.4667 11.1546C64.1852 11.1546 63.9313 11.22 63.7051 11.3507C63.4788 11.4764 63.3004 11.6549 63.1697 11.8861C63.0389 12.1174 62.9736 12.3888 62.9736 12.7005C62.9736 13.0122 63.0389 13.2837 63.1697 13.5149C63.3004 13.7462 63.4788 13.9272 63.7051 14.0579C63.9313 14.1836 64.1852 14.2464 64.4667 14.2464C64.703 14.2464 64.9217 14.1987 65.1228 14.1031C65.3238 14.0076 65.4923 13.8618 65.628 13.6658L66.0277 13.9372C65.8718 14.1936 65.6582 14.3897 65.3867 14.5254C65.1152 14.6561 64.8111 14.7215 64.4742 14.7215Z" fill="#EBEEF5"/>
<path d="M69.0415 10.6871C69.3632 10.6871 69.6448 10.7499 69.8861 10.8756C70.1324 10.9963 70.3234 11.1823 70.4592 11.4337C70.5999 11.685 70.6703 12.0017 70.6703 12.3838V14.6838H70.1349V12.4366C70.1349 12.0193 70.0294 11.7051 69.8182 11.494C69.6121 11.2778 69.3205 11.1697 68.9435 11.1697C68.6619 11.1697 68.4156 11.2275 68.2045 11.3432C67.9983 11.4538 67.8375 11.6171 67.7218 11.8333C67.6112 12.0445 67.5559 12.3009 67.5559 12.6025V14.6838H67.0205V9.08843H67.5559V11.8107L67.4504 11.6071C67.576 11.3205 67.7771 11.0968 68.0536 10.936C68.3301 10.7701 68.6594 10.6871 69.0415 10.6871Z" fill="#EBEEF5"/>
</svg>
