<svg width="66" height="19" viewBox="0 0 66 19" fill="none" xmlns="http://www.w3.org/2000/svg">
<path d="M2.23533 10.059V7.99563H15.8193V10.059H2.23533Z" fill="#EBEEF5"/>
<path d="M2.23534 2.23534H7.7377V0H0V7.7377H2.23534V2.23534Z" fill="#EBEEF5"/>
<path d="M18.0546 7.73771V1.14887e-05H10.3169V2.23535H15.8193V7.73771H18.0546Z" fill="#EBEEF5"/>
<path d="M2.23534 15.8193H7.7377V18.0547H0V10.317H2.23534V15.8193Z" fill="#EBEEF5"/>
<path d="M18.0546 10.3169V18.0546H10.3169V15.8193H15.8193V10.3169H18.0546Z" fill="#EBEEF5"/>
<path d="M21.7494 7.33537L24.4416 0.146965H25.417L28.1352 7.33537H27.511L24.9358 0.415093L22.3477 7.33537H21.7494ZM23.063 4.97328L23.18 4.46256H26.6916L26.7956 4.97328H23.063Z" fill="#EBEEF5"/>
<path d="M29.8558 6.82465C30.2547 6.82465 30.5625 6.82465 30.7793 6.82465C30.996 6.82465 31.1564 6.82465 31.2605 6.82465C31.798 6.82465 32.2879 6.78209 32.7301 6.69697C33.1723 6.61185 33.5538 6.45863 33.8746 6.23732C34.1954 6.00749 34.4382 5.69255 34.6029 5.29248C34.7677 4.88391 34.85 4.36467 34.85 3.73478C34.85 3.0368 34.7026 2.46224 34.4078 2.0111C34.1131 1.55996 33.6969 1.22374 33.1593 1.00242C32.6217 0.78111 31.9888 0.670454 31.2605 0.670454H29.8558V6.82465ZM35.4873 3.73478C35.4873 4.67962 35.3052 5.41591 34.9411 5.94365C34.5856 6.46289 34.0827 6.82465 33.4324 7.02894C32.7908 7.23323 32.0321 7.33537 31.1564 7.33537C31.0264 7.33537 30.8139 7.33537 30.5191 7.33537C30.2243 7.33537 29.8038 7.33537 29.2576 7.33537V0.146965C29.8385 0.146965 30.272 0.146965 30.5582 0.146965C30.8443 0.146965 31.0437 0.146965 31.1564 0.146965C32.0321 0.146965 32.7908 0.283157 33.4324 0.555542C34.0827 0.819415 34.5856 1.21522 34.9411 1.74297C35.3052 2.27072 35.4873 2.93465 35.4873 3.73478Z" fill="#EBEEF5"/>
<path d="M41.4338 0.146965H42.0841L39.4179 7.33537H38.4165L35.7633 0.146965H36.4006L38.9237 7.04171L41.4338 0.146965Z" fill="#EBEEF5"/>
<path d="M43.2633 7.53608V0.0092917H43.8485V7.53608H43.2633Z" fill="#EBEEF5"/>
<path d="M47.9041 7.50136C47.5226 7.50136 47.1541 7.45454 46.7986 7.36091C46.4431 7.27579 46.118 7.1396 45.8232 6.95233C45.5284 6.75655 45.2943 6.51396 45.1209 6.22455C44.9475 5.92663 44.8564 5.56912 44.8478 5.15204H45.446C45.446 5.17757 45.4547 5.25418 45.472 5.38186C45.4894 5.50954 45.5327 5.66276 45.6021 5.84151C45.6801 6.02026 45.8059 6.19476 45.9793 6.365C46.1613 6.53524 46.4085 6.67995 46.7206 6.79911C47.0414 6.90977 47.4489 6.9651 47.9431 6.9651C48.394 6.9651 48.7538 6.91403 49.0226 6.81188C49.3001 6.70123 49.5082 6.56929 49.6469 6.41607C49.7856 6.25434 49.8767 6.10113 49.92 5.95642C49.972 5.81172 49.998 5.70106 49.998 5.62445C50.0067 5.301 49.9243 5.04138 49.7509 4.8456C49.5775 4.64131 49.3434 4.47959 49.0486 4.36042C48.7538 4.23274 48.433 4.12634 48.0862 4.04122C47.7394 3.9561 47.3882 3.86672 47.0327 3.77309C46.6859 3.67094 46.3651 3.54752 46.0703 3.40281C45.7755 3.2496 45.5414 3.04957 45.368 2.80272C45.2033 2.54736 45.1296 2.21964 45.1469 1.81958C45.1642 1.44505 45.2943 1.12585 45.5371 0.861975C45.7885 0.58959 46.118 0.381045 46.5255 0.236341C46.9417 0.0916365 47.3969 0.0192845 47.8911 0.0192845C48.3853 0.0192845 48.8319 0.108661 49.2307 0.287413C49.6382 0.457654 49.959 0.713014 50.1931 1.0535C50.4359 1.38546 50.5486 1.80681 50.5313 2.31753H49.946C49.9634 1.96003 49.8983 1.66636 49.7509 1.43654C49.6035 1.20671 49.4171 1.02796 49.1917 0.900279C48.9663 0.772598 48.7321 0.687478 48.4894 0.644918C48.2466 0.593846 48.0298 0.56831 47.8391 0.56831C47.2408 0.56831 46.7466 0.691734 46.3564 0.938583C45.9749 1.17692 45.7755 1.48335 45.7582 1.85788C45.7495 2.18134 45.8319 2.44096 46.0053 2.63673C46.1787 2.83251 46.4128 2.98998 46.7076 3.10915C47.0024 3.21981 47.3232 3.31769 47.67 3.40281C48.0255 3.48793 48.3767 3.57731 48.7235 3.67094C49.0703 3.76458 49.3868 3.888 49.6729 4.04122C49.9677 4.19443 50.1975 4.40298 50.3622 4.66685C50.5356 4.92221 50.618 5.25418 50.6093 5.66276C50.592 6.05431 50.4619 6.38628 50.2191 6.65867C49.9764 6.93105 49.6556 7.1396 49.2567 7.2843C48.8579 7.429 48.407 7.50136 47.9041 7.50136Z" fill="#EBEEF5"/>
<path d="M54.8978 7.51412C53.7533 7.51412 52.882 7.1779 52.2837 6.50545C51.6854 5.82449 51.3863 4.90944 51.3863 3.76032C51.3863 3.00275 51.5164 2.34732 51.7765 1.79404C52.0366 1.23225 52.4268 0.798135 52.947 0.491702C53.4672 0.176757 54.1175 0.0192845 54.8978 0.0192845C56.0423 0.0192845 56.9094 0.359765 57.499 1.04073C58.0972 1.71318 58.3964 2.61971 58.3964 3.76032C58.3964 4.50087 58.262 5.15629 57.9932 5.7266C57.7331 6.28839 57.3429 6.72676 56.8227 7.04171C56.3111 7.35665 55.6695 7.51412 54.8978 7.51412ZM54.8978 6.9651C55.5481 6.9651 56.0857 6.83316 56.5106 6.56929C56.9441 6.2969 57.2692 5.92237 57.486 5.4457C57.7114 4.96051 57.8241 4.39872 57.8241 3.76032C57.8241 3.11341 57.7157 2.55161 57.499 2.07494C57.2909 1.59827 56.9658 1.22799 56.5236 0.964119C56.09 0.700246 55.5481 0.56831 54.8978 0.56831C53.9354 0.56831 53.2071 0.849207 52.7129 1.411C52.2187 1.97279 51.9716 2.7559 51.9716 3.76032C51.9716 4.39021 52.0756 4.94775 52.2837 5.43293C52.4918 5.90961 52.8126 6.28414 53.2461 6.55652C53.6883 6.82891 54.2389 6.9651 54.8978 6.9651Z" fill="#EBEEF5"/>
<path d="M59.7436 7.33537V0.146965H62.0196C62.6352 0.146965 63.1554 0.206549 63.5803 0.325717C64.0051 0.444886 64.3259 0.649174 64.5427 0.938583C64.7681 1.22799 64.8808 1.63657 64.8808 2.16431C64.8808 2.48777 64.8202 2.78995 64.6988 3.07085C64.5774 3.35174 64.3866 3.58157 64.1265 3.76032C63.8751 3.93056 63.5456 4.01568 63.1381 4.01568C63.4762 4.01568 63.7407 4.07952 63.9314 4.2072C64.1222 4.32637 64.2566 4.48384 64.3346 4.67962C64.4213 4.87539 64.4733 5.0882 64.4907 5.31802C64.5167 5.54784 64.5297 5.77341 64.5297 5.99473C64.5297 6.21604 64.5427 6.41182 64.5687 6.58206C64.5947 6.7523 64.6554 6.87147 64.7508 6.93956C64.8462 7.00766 64.9979 7.00766 65.206 6.93956V7.36091C65.1626 7.39496 65.0759 7.42475 64.9459 7.45028C64.8245 7.47582 64.6901 7.46731 64.5427 7.42475C64.3953 7.38219 64.2696 7.2843 64.1655 7.13108C64.0615 6.97787 64.0095 6.74378 64.0095 6.42884C64.0095 5.93514 63.9878 5.53933 63.9444 5.24141C63.9097 4.94349 63.8274 4.71792 63.6973 4.56471C63.5759 4.41149 63.3809 4.30509 63.1121 4.2455C62.8433 4.18592 62.4835 4.15613 62.0326 4.15613C61.5904 4.15613 61.0268 4.16038 60.3418 4.1689V7.33537H59.7436ZM60.3418 3.69648H62.2537C62.7306 3.69648 63.1207 3.65392 63.4242 3.5688C63.7363 3.47517 63.9661 3.32195 64.1135 3.10915C64.2696 2.88784 64.3476 2.5814 64.3476 2.18985C64.3476 1.73871 64.2522 1.40674 64.0615 1.19394C63.8707 0.972631 63.5976 0.827927 63.2421 0.75983C62.8866 0.691734 62.4531 0.657687 61.9416 0.657687H60.3418V3.69648Z" fill="#EBEEF5"/>
<path d="M22.8083 17.8657H21.7494V10.6466H22.8083V17.8657ZM26.5589 10.6466H27.605V17.8657H26.5589V10.6466ZM27.1585 14.5831H22.2597V13.7497H27.1585V14.5831Z" fill="#EBEEF5"/>
<path d="M32.1972 18.0452C31.049 18.0452 30.173 17.7075 29.5692 17.0322C28.9653 16.3483 28.6634 15.4294 28.6634 14.2754C28.6634 13.5146 28.791 12.8564 29.0461 12.3007C29.3098 11.7365 29.701 11.3006 30.2198 10.9928C30.7471 10.6765 31.4062 10.5184 32.1972 10.5184C33.3453 10.5184 34.2171 10.8603 34.8124 11.5442C35.4163 12.2195 35.7182 13.1299 35.7182 14.2754C35.7182 15.0191 35.5821 15.6773 35.3099 16.25C35.0463 16.8142 34.6551 17.2545 34.1363 17.5708C33.6175 17.887 32.9711 18.0452 32.1972 18.0452ZM32.1844 17.0194C32.7372 17.0194 33.1965 16.904 33.5622 16.6732C33.9364 16.4338 34.2128 16.109 34.3914 15.6987C34.5785 15.2798 34.6721 14.8054 34.6721 14.2754C34.6721 13.7368 34.5828 13.2624 34.4042 12.8521C34.2256 12.4332 33.9492 12.1084 33.5749 11.8776C33.2092 11.6382 32.7457 11.5186 32.1844 11.5186C31.3679 11.5186 30.7471 11.7665 30.3218 12.2623C29.9051 12.7581 29.6967 13.4291 29.6967 14.2754C29.6967 14.7968 29.786 15.267 29.9646 15.6859C30.1432 16.0962 30.4154 16.421 30.7811 16.6604C31.1553 16.8997 31.6231 17.0194 32.1844 17.0194Z" fill="#EBEEF5"/>
<path d="M39.9572 18.0452C38.9706 18.0452 38.2137 17.7631 37.6864 17.1989C37.1676 16.6262 36.9082 15.8226 36.9082 14.7883V10.6466H38.0181V14.7755C38.0181 15.1943 38.0691 15.5491 38.1712 15.8397C38.2817 16.1218 38.4263 16.3526 38.6049 16.5321C38.7835 16.7031 38.9876 16.8313 39.2173 16.9168C39.4554 16.9937 39.702 17.0322 39.9572 17.0322C40.3399 17.0322 40.6759 16.9638 40.965 16.8271C41.2627 16.6817 41.4923 16.4424 41.6539 16.109C41.824 15.7756 41.9091 15.3311 41.9091 14.7755V10.6466H43.0189V14.7883C43.0189 15.8397 42.7595 16.6475 42.2407 17.2117C41.7305 17.7674 40.9693 18.0452 39.9572 18.0452Z" fill="#EBEEF5"/>
<path d="M47.1898 18.0195C46.7986 18.0195 46.4201 17.9725 46.0544 17.8785C45.6887 17.7845 45.357 17.6391 45.0593 17.4425C44.7616 17.2459 44.5235 16.9937 44.3449 16.686C44.1663 16.3697 44.0728 15.9936 44.0642 15.5576H45.1359C45.1359 15.5833 45.1444 15.6517 45.1614 15.7628C45.1784 15.8739 45.2209 16.0021 45.2889 16.1475C45.3655 16.2928 45.4761 16.4338 45.6206 16.5706C45.7737 16.7074 45.9821 16.8228 46.2457 16.9168C46.5179 17.0023 46.8581 17.045 47.2663 17.045C47.581 17.045 47.8447 17.0108 48.0573 16.9425C48.2699 16.8741 48.44 16.7843 48.5676 16.6732C48.6952 16.5621 48.7845 16.4467 48.8355 16.327C48.895 16.2073 48.9248 16.1004 48.9248 16.0064C48.9248 15.7414 48.8397 15.5277 48.6696 15.3653C48.508 15.2029 48.2869 15.0746 48.0063 14.9806C47.7256 14.878 47.4152 14.7883 47.075 14.7113C46.7433 14.6259 46.4116 14.5361 46.0799 14.4421C45.7482 14.3395 45.442 14.207 45.1614 14.0446C44.8892 13.8822 44.6766 13.6727 44.5235 13.4163C44.3704 13.1513 44.3024 12.8136 44.3194 12.4033C44.3449 12.0101 44.481 11.6724 44.7276 11.3903C44.9743 11.1082 45.3102 10.8945 45.7355 10.7492C46.1692 10.5953 46.6625 10.5184 47.2153 10.5184C47.7171 10.5184 48.1764 10.6082 48.5931 10.7877C49.0183 10.9672 49.3585 11.2365 49.6137 11.5955C49.8773 11.946 50.0049 12.3948 49.9964 12.9418H48.9631C48.9716 12.6427 48.912 12.4033 48.7844 12.2238C48.6569 12.0357 48.491 11.8904 48.2869 11.7878C48.0913 11.6852 47.8872 11.6169 47.6746 11.5827C47.4619 11.5399 47.2706 11.5186 47.1005 11.5186C46.6242 11.5186 46.2287 11.6083 45.9141 11.7878C45.6079 11.9588 45.4505 12.2024 45.442 12.5187C45.4335 12.7922 45.5143 13.0102 45.6844 13.1726C45.8545 13.3351 46.0799 13.4633 46.3606 13.5573C46.6412 13.6514 46.9516 13.7368 47.2918 13.8138C47.632 13.8907 47.968 13.9762 48.2997 14.0702C48.6314 14.1643 48.9333 14.2925 49.2054 14.4549C49.4861 14.6088 49.703 14.8182 49.8561 15.0832C50.0177 15.3482 50.09 15.6901 50.0729 16.109C50.0559 16.5108 49.9199 16.8527 49.6647 17.1348C49.4096 17.4169 49.0694 17.6349 48.6441 17.7887C48.2189 17.9426 47.7341 18.0195 47.1898 18.0195Z" fill="#EBEEF5"/>
<path d="M51.2981 17.8657V10.6466H56.2735V11.5698H52.3442V13.7625H55.406V14.6472H52.3442V16.9937H56.4011V17.8657H51.2981Z" fill="#EBEEF5"/>
</svg>
