<svg width="67" height="22" viewBox="0 0 67 22" fill="none" xmlns="http://www.w3.org/2000/svg">
<path d="M32.489 7.98115C32.489 7.68472 32.383 7.44252 32.1709 7.25695C31.9588 7.07138 31.6877 6.9786 31.36 6.9786H26.2219V8.68124L29.8368 8.68486L26.4774 12.8192L26.0472 13.3915C25.952 13.5506 25.9038 13.7048 25.9038 13.853C25.9038 14.4784 26.2858 14.7917 27.0497 14.7917H32.1878V13.0891H28.5764L32.1082 8.87284C32.3625 8.58605 32.4902 8.28962 32.4902 7.98235L32.489 7.98115Z" fill="#EBEEF5"/>
<path d="M46.0487 6.75567C44.9136 6.75567 43.9484 7.13645 43.1531 7.8992C42.3579 8.66196 41.9602 9.5669 41.9602 10.6152V18.1777H43.8062V14.5471C44.469 14.7267 45.6065 14.917 45.9704 14.917C47.1477 14.917 48.1285 14.5242 48.913 13.7398C49.6974 12.9553 50.0902 11.9793 50.0902 10.8129C50.0902 9.64643 49.7034 8.69208 48.9286 7.91728C48.1538 7.14368 47.1947 6.75567 46.0487 6.75567ZM47.5441 12.4589C47.1091 12.8457 46.4885 13.0397 45.6824 13.0397C45.4378 13.0397 45.2811 13.0204 45.0944 12.9915C44.4738 12.8963 44.0243 12.789 43.8062 12.7312V10.7598C43.8062 10.1453 44.0231 9.62956 44.4581 9.21143C44.8931 8.7933 45.4077 8.58364 46.0017 8.58364C46.5958 8.58364 47.1368 8.79571 47.561 9.21987C47.9851 9.64402 48.1972 10.1646 48.1972 10.7791C48.1972 11.5105 47.9791 12.0709 47.5453 12.4577L47.5441 12.4589Z" fill="#EBEEF5"/>
<path d="M54.4848 3.0889C53.5196 3.0877 52.681 3.42509 51.97 4.1035C51.2579 4.7807 50.9012 5.58081 50.9 6.50383L50.9627 7.1726L51.2314 7.92089L52.9822 7.4148C52.8557 7.13886 52.7918 6.89545 52.793 6.68217C52.793 6.21584 52.9509 5.82061 53.2642 5.49767C53.5775 5.17473 53.951 5.01327 54.386 5.01447C54.821 5.01447 55.2018 5.18076 55.5308 5.50972C55.8694 5.8182 56.0393 6.18451 56.0381 6.60867C56.0381 7.26659 55.7657 7.70641 55.2247 7.92812L54.9066 8.03898C54.1956 8.30287 53.598 8.58846 53.116 8.89573C52.6328 9.203 52.1785 9.57293 51.7543 10.0067C51.329 10.4405 51.0844 10.9864 51.0193 11.6443L50.7759 14.7785L57.5214 14.7893L57.5238 13.0071L52.8942 12.9999L53.087 11.6961C53.1943 11.049 53.6618 10.5514 54.4896 10.2031L55.6199 9.74404C55.9067 9.61751 56.2489 9.39459 56.6466 9.07768C57.0454 8.75956 57.3575 8.42096 57.5865 8.06067C57.8154 7.70038 57.9299 7.20152 57.9311 6.56529C57.9323 5.61094 57.5949 4.79396 56.9165 4.11314C56.2393 3.43353 55.4283 3.09252 54.4836 3.09131L54.4848 3.0889Z" fill="#EBEEF5"/>
<path d="M65.8201 7.8727C65.0369 7.08584 64.056 6.69301 62.8787 6.6906C62.5148 6.6906 61.3773 6.87858 60.7146 7.05692L60.7206 3.4263L58.8746 3.42389L58.8625 10.9864C58.8613 12.0347 59.2566 12.9409 60.0519 13.7048C60.8459 14.4688 61.8099 14.852 62.945 14.8532C64.091 14.8556 65.0513 14.4688 65.8261 13.6964C66.601 12.9228 66.9902 11.9588 66.9926 10.8032C66.995 9.63679 66.6034 8.65955 65.8201 7.8739V7.8727ZM64.4609 12.389C64.0355 12.8119 63.5162 13.024 62.9004 13.0228C62.3064 13.0228 61.7919 12.8119 61.3581 12.3926C60.9243 11.9733 60.7074 11.4575 60.7086 10.843L60.7122 8.87163C60.9303 8.81499 61.3798 8.70775 62.0015 8.61376C62.1895 8.58484 62.3461 8.56677 62.5908 8.56677C63.3969 8.56797 64.0163 8.76197 64.4513 9.14998C64.885 9.53799 65.1019 10.0971 65.1007 10.8297C65.1007 11.4443 64.8863 11.9636 64.4621 12.3878L64.4609 12.389Z" fill="#EBEEF5"/>
<path d="M37.0065 6.74001C35.8377 6.74001 34.8484 7.14368 34.041 7.95222C33.2337 8.75956 32.8288 9.74886 32.8288 10.9177C32.8288 12.0865 33.2217 13.0252 34.0085 13.7952C34.7954 14.5664 35.7569 14.9508 36.8945 14.9508L37.5644 14.8869C37.697 14.8664 38.4935 14.7339 39.1586 14.6062V14.8074H41.0239V11.1081C41.0239 9.81151 40.6468 8.75956 39.8925 7.95102C39.1381 7.14368 38.1754 6.7388 37.0065 6.7388V6.74001ZM39.1586 12.771C38.5393 12.9095 37.8199 13.0421 37.7235 13.0638C37.5644 13.0999 37.3668 13.1168 37.133 13.1168C36.4522 13.1168 35.8811 12.8951 35.4196 12.4492C34.9568 12.0046 34.7255 11.4587 34.7255 10.8129C34.7255 10.2092 34.9436 9.68499 35.3786 9.24035C35.8148 8.79571 36.3353 8.57279 36.9414 8.57279C37.6114 8.57279 38.1476 8.80897 38.5513 9.28253C38.955 9.75609 39.1574 10.3851 39.1574 11.1719V12.771H39.1586Z" fill="#EBEEF5"/>
<path d="M11.2126 7.5847C11.55 7.35094 11.9115 7.14609 12.2489 6.91353C12.6405 6.64361 13.3623 6.18572 13.531 5.74108C13.6599 5.40248 13.5997 4.9964 13.6057 4.64093C12.9152 4.21677 12.7839 3.33593 13.4563 2.81658C14.0781 2.33579 15.0565 2.75512 15.1348 3.53595C15.1854 4.04205 14.9782 4.39631 14.5468 4.64093C14.5227 5.15666 14.6058 5.67601 14.4058 6.16523C14.1624 6.7629 13.378 7.29912 12.8574 7.66423C12.0585 8.22576 11.2066 8.71378 10.4101 9.28012C10.3293 9.32952 10.2161 9.32591 10.2233 9.20902V3.16723C10.5149 0.276468 13.8527 -1.00805 16.0663 0.910291C17.0182 1.73571 17.4147 2.95274 17.3074 4.1987C17.9677 4.28184 18.6425 4.60719 19.1788 4.99399C20.7501 6.12547 21.5116 8.3089 20.6452 10.1104C21.0646 10.567 21.4068 11.0972 21.5502 11.7082C22.0707 13.9326 20.5295 16.1461 18.3835 16.7016C18.3871 17.6463 18.2075 18.5501 17.7364 19.3707C16.7061 21.1673 14.4167 22.2265 12.4441 21.295C12.1766 21.1685 11.8247 21.0131 11.8609 20.6636C11.8838 20.4479 12.2597 20.1672 12.4682 20.1684C12.6441 20.1684 12.9502 20.3467 13.137 20.4045C15.2758 21.0576 17.2327 19.3779 17.3653 17.2511C17.3833 16.9523 17.2954 16.2112 17.4363 15.9955C17.593 15.7557 17.9569 15.7702 18.2111 15.6979C19.8355 15.24 21.0188 13.4325 20.4813 11.7624C20.309 11.2274 20.1126 11.0888 19.721 10.7454C19.2233 10.3104 19.6138 10.0429 19.7716 9.58257C20.4139 7.71123 19.2077 5.66637 17.3086 5.24342C17.3833 6.18813 17.1797 7.06536 16.4471 7.69797L6.66016 13.9675C6.07092 14.2591 5.26961 14.0844 4.62735 14.1302C4.24898 14.9532 3.0452 14.9026 2.71383 14.0663C2.21015 12.7927 4.01401 12.0142 4.62856 13.2301C5.04066 13.1951 5.51783 13.2734 5.9215 13.2301C6.03477 13.218 6.13117 13.1566 6.23721 13.1216C9.20389 11.1286 12.2862 9.30783 15.2626 7.33286C15.8554 6.93883 16.2555 6.6894 16.3193 5.90736C16.3796 5.16871 16.3868 3.53234 16.1518 2.85875C15.512 1.02235 13.043 0.402992 11.75 1.95742C11.5054 2.25264 11.2126 2.87201 11.2126 3.25519V7.58711V7.5847ZM14.3672 3.66248C14.3672 3.50703 14.2407 3.38051 14.0853 3.38051C13.9298 3.38051 13.8033 3.50703 13.8033 3.66248C13.8033 3.81792 13.9298 3.94444 14.0853 3.94444C14.2407 3.94444 14.3672 3.81792 14.3672 3.66248ZM3.69951 13.3759C3.2862 13.3927 3.34886 14.0133 3.7694 13.9277C4.0839 13.8639 4.00076 13.3626 3.69951 13.3759Z" fill="#EBEEF5"/>
<path d="M9.79313 0.537941C9.85097 0.609035 9.83651 0.750018 9.80759 0.833162C9.79192 0.877747 9.61117 1.17658 9.57503 1.22237C9.26173 1.62243 8.86288 1.26937 8.49656 1.17176C6.90116 0.750018 5.46723 2.02851 5.34312 3.59258C5.3142 3.95287 5.38167 4.36979 5.34312 4.72045C5.32745 4.8554 5.27805 4.94698 5.1708 5.02772C4.98523 5.1699 4.47553 5.18557 4.21404 5.25546C2.53911 5.70371 1.2546 7.62687 1.84986 9.34156C2.32222 10.7008 3.58384 10.1332 4.65145 10.2646C5.10332 10.32 5.73353 11.2876 6.09382 11.5877C6.32156 12.013 5.94199 12.4745 5.48169 12.2564C5.24431 12.1444 4.84907 11.5792 4.61892 11.3696C4.48276 11.2442 4.38636 11.2105 4.19958 11.196C3.32115 11.1274 2.37524 11.4057 1.63056 10.7731C0.278562 12.4986 1.30641 15.0327 3.31513 15.6629C3.54166 15.734 3.8899 15.7473 4.07065 15.8376C4.50927 16.0569 4.32611 16.8763 4.35262 17.3053C4.4924 19.5297 6.8144 21.3986 8.94241 20.231C10.0221 19.6394 10.1896 18.7236 10.2233 17.5897C10.257 16.4558 10.1944 15.2255 10.2221 14.047L8.09048 15.4569C7.57234 15.8292 7.6832 16.4004 7.68681 16.9631C7.95311 17.1306 8.20134 17.3403 8.2893 17.6584C8.54476 18.5802 7.57595 19.3562 6.73246 18.8766C5.99381 18.4561 6.06611 17.3921 6.80838 17.0173C6.83971 16.4558 6.70716 15.8846 6.95298 15.3617C7.11444 15.0183 7.37593 14.7797 7.67356 14.5579C8.71346 13.7819 9.93411 13.159 10.9981 12.4083C11.0788 12.3685 11.1608 12.3119 11.2246 12.4083L11.2114 18.3488C11.1114 19.8442 10.0462 21.0733 8.62911 21.495C6.36735 22.1662 3.94654 20.4262 3.43562 18.2223C3.31874 17.7162 3.32236 17.2342 3.26693 16.7257C0.384601 16.0328 -1.09994 12.3733 0.956969 10.0513C0.842495 9.83802 0.768991 9.60425 0.720792 9.36566C0.614753 8.83668 0.597883 8.3354 0.693077 7.8028C1.00517 6.05436 2.54996 4.51801 4.29357 4.19387C4.24537 3.38532 4.37431 2.6539 4.77075 1.94898C5.66003 0.377678 7.41328 -0.406767 9.16051 0.227055C9.26293 0.264409 9.74493 0.478897 9.79433 0.539146L9.79313 0.537941ZM7.55065 17.9572C7.55065 17.8006 7.42292 17.6728 7.26627 17.6728C7.10962 17.6728 6.9819 17.8006 6.9819 17.9572C6.9819 18.1139 7.10962 18.2416 7.26627 18.2416C7.42292 18.2416 7.55065 18.1139 7.55065 17.9572Z" fill="#EBEEF5"/>
<path d="M13.6105 16.939C14.3841 17.3632 14.3648 18.5212 13.5454 18.8778C12.2923 19.4237 11.4584 17.521 12.7092 16.9342V12.6203L12.6791 12.2275C12.702 11.9552 12.6513 11.6467 12.6791 11.3792C12.7393 10.8189 13.5635 10.8394 13.6358 11.4395L13.6539 13.8482L15.9542 16.0931C16.5326 16.0304 17.017 16.4257 16.9989 17.0246C16.9712 17.9066 15.8578 18.2922 15.3373 17.5548C15.13 17.2607 15.1842 16.9752 15.2348 16.6438L13.6117 15.0628V16.939H13.6105ZM16.0012 16.8185C15.812 16.8607 15.8337 17.139 16.0072 17.1945C16.382 17.3138 16.4049 16.7269 16.0012 16.8185ZM13.4093 17.8885C13.4093 17.7319 13.2828 17.6054 13.1261 17.6054C12.9695 17.6054 12.8429 17.7319 12.8429 17.8885C12.8429 18.0452 12.9695 18.1717 13.1261 18.1717C13.2828 18.1717 13.4093 18.0452 13.4093 17.8885Z" fill="#EBEEF5"/>
<path d="M16.047 12.3998C16.2904 12.6276 16.5121 12.9059 16.8664 12.9168C17.6075 11.854 19.2571 12.7577 18.7221 13.9518C18.3027 14.8881 16.9146 14.7532 16.7411 13.7362C16.4784 13.7337 16.2073 13.6952 15.9831 13.5482C15.7735 13.412 14.7034 12.3516 14.5866 12.1516C14.3998 11.8311 14.3697 11.1298 14.4034 10.761C14.4998 9.71271 15.5734 8.83789 16.6242 8.9608C16.9254 8.2366 17.9063 8.07514 18.4015 8.70173C19.2221 9.74163 17.8195 11.0515 16.8688 10.1501C16.6471 9.93925 16.7483 9.77537 16.3603 9.81152C15.9542 9.85008 15.4722 10.2104 15.3445 10.602C15.2626 10.8538 15.2565 11.5527 15.4144 11.772C15.5313 11.9335 15.8819 12.2456 16.0446 12.3974L16.047 12.3998ZM17.8762 9.39098C17.8762 9.23674 17.7508 9.11142 17.5966 9.11142C17.4424 9.11142 17.3171 9.23674 17.3171 9.39098C17.3171 9.54522 17.4424 9.67054 17.5966 9.67054C17.7508 9.67054 17.8762 9.54522 17.8762 9.39098ZM18.0509 13.5084C18.0509 13.3494 17.922 13.2192 17.7617 13.2192C17.6014 13.2192 17.4725 13.3482 17.4725 13.5084C17.4725 13.6687 17.6014 13.7976 17.7617 13.7976C17.922 13.7976 18.0509 13.6687 18.0509 13.5084Z" fill="#EBEEF5"/>
<path d="M8.33871 4.65418C8.3628 5.19642 8.2905 5.79289 8.33268 6.32911C8.39293 7.09909 9.50272 7.27743 9.60032 8.08116C9.64611 8.45229 9.64491 9.45243 9.60032 9.82477C9.53044 10.4164 8.7243 10.3658 8.67128 9.74404C8.63393 9.30663 8.72069 8.78969 8.67128 8.36071C8.63875 8.07634 8.37485 7.96427 8.1917 7.79678C7.7567 7.39914 7.47594 7.16657 7.42894 6.52793C7.38195 5.88929 7.46268 5.25426 7.43135 4.63972C6.48182 4.24207 6.73005 2.7491 7.75429 2.64788C8.97132 2.52738 9.40994 4.1276 8.3375 4.65538L8.33871 4.65418ZM8.09891 3.90709C8.31702 3.68899 8.06397 3.27086 7.75549 3.46486C7.40725 3.68417 7.82418 4.18183 8.09891 3.90709Z" fill="#EBEEF5"/>
<path d="M4.79966 6.5195C5.47807 6.43997 6.06249 7.03644 5.99139 7.71123C5.98175 7.80522 5.91066 7.89438 5.94801 7.97873L6.93731 8.99454C7.01563 9.11142 7.10359 9.24638 7.13974 9.38495C7.21084 9.65607 7.21325 10.8225 7.1771 11.1274C7.13251 11.4961 6.63486 11.6455 6.38663 11.3527C6.36614 11.3286 6.28661 11.2009 6.28059 11.1768C6.19986 10.8562 6.31433 10.2068 6.27095 9.832C6.25167 9.66933 6.19142 9.56931 6.09141 9.44761C5.84559 9.14757 5.48771 8.85717 5.22984 8.55833C5.08524 8.56436 4.98403 8.61497 4.82135 8.60171C3.59588 8.49688 3.55853 6.66771 4.79966 6.52191V6.5195ZM4.90932 7.28346C4.62615 7.29912 4.51408 7.73412 4.85509 7.80401C5.29371 7.89318 5.31419 7.26056 4.90932 7.28346Z" fill="#EBEEF5"/>
</svg>
