<svg width="67" height="22" viewBox="0 0 67 22" fill="none" xmlns="http://www.w3.org/2000/svg">
<path d="M16.4498 11.2773C16.9343 11.1162 17.4343 11.4769 17.4343 11.9874V16.8863C17.4343 17.17 17.2738 17.4294 17.0199 17.556L9.05118 21.5305C8.84089 21.6354 8.5935 21.6354 8.38321 21.5305L0.414317 17.556C0.16045 17.4294 0 17.17 0 16.8863V11.9874C5.89439e-06 11.4769 0.500003 11.1162 0.984463 11.2773L6.083 12.9731C6.08838 12.9826 6.09366 12.9921 6.09866 13.0017L8.00408 17.6443C8.30331 18.223 9.13099 18.223 9.43021 17.6443L11.3356 13.0017C11.3406 12.9921 11.3457 12.9825 11.3511 12.9731L16.4498 11.2773Z" fill="#EBEEF5"/>
<path d="M8.48461 0.0370634C8.63573 -0.0123526 8.79866 -0.0123563 8.94978 0.0370634L16.9186 2.64332C17.2262 2.74394 17.4343 3.03095 17.4343 3.3546V8.17396C17.4343 8.68451 16.9343 9.04518 16.4498 8.88408L11.4252 7.2128C11.391 7.17056 11.3609 7.12482 11.3356 7.07601L9.43021 1.46407C9.13099 0.88535 8.30331 0.88535 8.00408 1.46407L6.09866 7.07601C6.0734 7.12487 6.04315 7.17062 6.00886 7.21289L0.984463 8.88408C0.500001 9.0452 0 8.68452 0 8.17396V3.3546C0 3.03094 0.208096 2.74393 0.515722 2.64332L8.48461 0.0370634Z" fill="#EBEEF5"/>
<path d="M8.29699 5.58274C8.47336 5.24163 8.96118 5.24163 9.13755 5.58274L10.2607 8.31916C10.3057 8.40621 10.3766 8.47713 10.4637 8.52214L12.6358 9.64525C12.9769 9.82162 12.9769 10.3094 12.6358 10.4858L10.4637 11.6089C10.3766 11.6539 10.3057 11.7248 10.2607 11.8119L9.13755 14.5483C8.96118 14.8894 8.47336 14.8894 8.29699 14.5483L7.17388 11.8119C7.12887 11.7248 7.05795 11.6539 6.9709 11.6089L4.79874 10.4858C4.45763 10.3094 4.45763 9.82162 4.79874 9.64525L6.9709 8.52214C7.05795 8.47713 7.12887 8.40621 7.17388 8.31916L8.29699 5.58274Z" fill="#EBEEF5"/>
<path d="M40.5294 13.5183V3.20435H42.1535V4.49097H42.4488C42.6456 4.12537 42.9691 3.7879 43.419 3.47855C43.869 3.1692 44.5017 3.01453 45.3173 3.01453C46.1188 3.01453 46.7656 3.19029 47.2578 3.54183C47.764 3.89336 48.1296 4.32223 48.3545 4.82844H48.6498C48.8889 4.32223 49.2474 3.89336 49.7255 3.54183C50.2177 3.19029 50.8996 3.01453 51.7715 3.01453C52.4605 3.01453 53.0651 3.15514 53.5854 3.43637C54.1056 3.71759 54.5134 4.12537 54.8087 4.6597C55.118 5.17997 55.2727 5.8057 55.2727 6.53689V13.5183H53.6065V6.68453C53.6065 5.99553 53.4026 5.45417 52.9948 5.06045C52.6011 4.65267 52.0456 4.44878 51.3285 4.44878C50.5692 4.44878 49.9435 4.69485 49.4513 5.187C48.9732 5.67915 48.7342 6.38924 48.7342 7.31729V13.5183H47.0679V6.68453C47.0679 5.99553 46.864 5.45417 46.4563 5.06045C46.0626 4.65267 45.5071 4.44878 44.79 4.44878C44.0307 4.44878 43.405 4.69485 42.9128 5.187C42.4347 5.67915 42.1957 6.38924 42.1957 7.31729V13.5183H40.5294Z" fill="#EBEEF5"/>
<path d="M33.7545 13.7083C33.0092 13.7083 32.3202 13.5466 31.6875 13.2232C31.0688 12.8998 30.5766 12.4217 30.211 11.7889C29.8595 11.1421 29.6837 10.3617 29.6837 9.4477V3.20447H31.35V9.32114C31.35 10.3476 31.6031 11.0929 32.1093 11.5569C32.6296 12.0209 33.3256 12.2529 34.1974 12.2529C35.1817 12.2529 35.9902 11.9295 36.623 11.2827C37.2557 10.6359 37.5721 9.67268 37.5721 8.3931V3.20447H39.2384V13.5184H37.6143V11.7678H37.319C37.094 12.26 36.7073 12.7099 36.159 13.1177C35.6106 13.5114 34.8091 13.7083 33.7545 13.7083Z" fill="#EBEEF5"/>
<path d="M61.3759 13.5183C58.3597 13.5183 56.1661 11.8455 56.1661 8.28588C56.1661 4.60955 58.4863 3.01453 61.2915 3.01453C64.1178 3.01453 66.1848 4.64845 66.1848 8.03301C66.1848 8.36369 66.1637 8.5582 66.1216 8.75272H57.7902C57.9168 11.1258 59.1823 12.2734 61.397 12.2734C62.7468 12.2734 63.9702 11.865 64.4975 10.4839H66.0372C65.3201 12.7208 63.464 13.5183 61.3759 13.5183ZM57.7902 7.56618H64.5607C64.5397 5.44596 63.2952 4.23997 61.2704 4.23997C59.351 4.23997 57.959 5.3098 57.7902 7.56618Z" fill="#EBEEF5"/>
<path d="M22.7306 13.5189V3.20349H24.2453V12.2182H29.088V13.5189H22.7306Z" fill="#EBEEF5"/>
<g opacity="0.7">
<path d="M22.7784 18.3566V15.3339H24.9032V15.8095H23.3785V16.663H24.7343V17.1386H23.3785V18.3566H22.7784Z" fill="#EBEEF5"/>
<path d="M25.615 18.3566V15.3339H26.2151V18.3566H25.615Z" fill="#EBEEF5"/>
<path d="M27.0755 18.3566V15.3339H27.7067L28.8268 17.1297L29.0358 17.5431L29.0135 15.3339H29.6092V18.3566H28.9824L27.8622 16.5652L27.6489 16.1429L27.6755 18.3566H27.0755Z" fill="#EBEEF5"/>
<path d="M32.5833 18.3566L32.3522 17.7298H31.0631L30.8319 18.3566H30.2318L31.3698 15.3339H32.0766L33.2145 18.3566H32.5833ZM31.6187 16.2318L31.2364 17.2675H32.1788L31.7965 16.2318L31.7076 15.9206L31.6187 16.2318Z" fill="#EBEEF5"/>
<path d="M33.8338 18.3566V15.3339H34.465L35.5852 17.1297L35.7941 17.5431L35.7719 15.3339H36.3675V18.3566H35.7407L34.6206 16.5652L34.4072 16.1429L34.4339 18.3566H33.8338Z" fill="#EBEEF5"/>
<path d="M39.8573 16.2674H39.2305C39.1372 15.9384 38.8838 15.7651 38.546 15.7651C38.0392 15.7651 37.7458 16.1785 37.7458 16.8497C37.7458 17.5253 38.0348 17.9254 38.546 17.9254C38.866 17.9254 39.1194 17.7609 39.2216 17.4453H39.8528C39.6928 18.0765 39.1727 18.4233 38.5549 18.4233C37.6703 18.4233 37.1324 17.8276 37.1324 16.8497C37.1324 15.8762 37.6792 15.2672 38.5638 15.2672C39.1905 15.2672 39.7195 15.6095 39.8573 16.2674Z" fill="#EBEEF5"/>
<path d="M40.5748 18.3566V15.3339H42.6995V15.8095H41.1748V16.5652H42.5306V17.0364H41.1748V17.8809H42.6995V18.3566H40.5748Z" fill="#EBEEF5"/>
</g>
</svg>
