<svg width="47" height="35" viewBox="0 0 47 35" fill="none" xmlns="http://www.w3.org/2000/svg">
<path fill-rule="evenodd" clip-rule="evenodd" d="M22.2888 23.2527C23.0778 23.2527 23.7808 23.5683 24.2973 24.0847C24.7994 24.6012 25.1149 25.3042 25.115 26.0788C25.115 27.5277 24.039 28.7185 22.6331 28.8907C23.0204 29.2493 23.3935 29.6366 23.7665 30.0383C25.1437 31.5016 26.5496 33.008 29.218 33.008C29.3647 33.008 29.515 33.0033 29.6692 32.9941L29.6646 32.9905C31.2311 32.8949 33.0369 32.2338 34.2834 31.7636C35.0215 31.4441 36.7189 30.8134 36.9357 30.1578C37.0765 29.7317 36.9676 29.1554 36.5671 28.7882C36.1359 28.3929 35.8198 27.9334 35.7994 27.4026C35.7906 27.1736 35.8947 26.8677 36.0922 26.6747C36.2898 26.4817 36.4663 26.3009 36.6999 26.1483C37.6286 25.5402 39.2868 25.0918 40.4565 24.8398L41.8019 24.55L43.5734 24.1485C44.0721 24.0356 44.5115 23.8754 44.9826 23.7076C46.0221 23.3373 46.55 23.122 46.4573 23.3401C46.3008 23.7076 45.0507 24.1895 45.0507 24.1895C44.0246 24.5456 43.0443 24.9226 42.0258 25.2938L41.4023 25.521C40.6582 25.7924 40.4433 25.7997 39.782 26.2142C39.3067 26.5119 38.8797 26.901 39.0269 27.3949C39.1021 27.6463 39.3532 27.8015 39.5956 27.9519L40.5665 28.554C41.0744 28.8689 41.3894 29.1811 41.694 29.6147C41.7393 29.6792 41.8878 30.1565 41.8882 30.244L41.8919 30.7728C41.8946 31.162 41.613 31.7204 41.3422 32.069C40.728 32.8595 40.2903 33.2529 39.3892 33.8705C39.1805 34.0135 38.9698 34.1386 38.7224 34.2396L38.3944 34.3736C38.2088 34.4494 38.0249 34.5719 37.8139 34.5696C37.802 34.4605 37.7913 34.4076 37.7054 34.3133L38.6802 33.6846L39.4989 33.1093C39.5598 33.0664 39.6358 33.0128 39.6906 32.9673L40.3486 32.4201C40.5634 32.2413 40.736 32.0352 40.9243 31.8359C41.0425 31.7108 41.1235 31.575 41.2018 31.4331C41.3786 31.1129 41.5317 30.7777 41.4914 30.4329C41.4178 29.8008 41.0207 29.2823 40.3816 28.8943L39.2311 28.1961C38.6146 27.8217 38.3955 27.6147 38.5324 27.0029C38.6333 26.5522 39.1698 26.0991 39.6421 25.849C40.0594 25.6278 40.476 25.4229 40.9405 25.2639L41.8006 24.9695C41.6498 24.8889 41.5335 24.9656 41.4066 24.9932L40.1709 25.2619C39.7827 25.3464 39.419 25.4566 39.0408 25.5634L39.04 25.5637C38.193 25.8031 37.3927 26.0466 36.8315 26.5942C36.6657 26.7559 36.462 26.9353 36.4324 27.1497C36.4013 27.3758 36.3508 27.6643 36.4432 27.8811C36.6507 28.3681 37.2846 28.8575 37.4173 29.3228L37.5017 29.6185C38.331 32.5144 32.4203 34.1871 30.676 34.4539C30.6674 34.4561 30.6588 34.4584 30.6502 34.4606L30.6492 34.458C30.1348 34.5354 29.6541 34.5716 29.2036 34.5716C25.8897 34.5716 24.1251 32.6923 22.6331 31.0999C21.4854 29.8805 20.5816 28.905 19.2044 28.9049V33.008H17.3395V23.2527H22.2888ZM34.5263 32.2004C34.394 32.259 34.2644 32.3182 34.1838 32.3989H34.1842L34.5297 32.2983L35.3028 31.9487C35.3484 31.928 35.3852 31.8772 35.3684 31.8282L34.5263 32.2004ZM19.2044 27.3557H21.9875C22.6761 27.3557 23.25 26.7817 23.2501 26.0788C23.25 25.3759 22.6761 24.8165 21.9875 24.8165H19.2044V27.3557Z" fill="#EBEEF5"/>
<path d="M38.0933 31.9473C38.165 31.9604 38.1845 32.05 38.15 32.0874C38.0948 32.1472 38.0461 32.2167 37.9908 32.2617C37.5569 32.6149 37.077 32.9031 36.5522 33.178C35.953 33.4917 35.371 33.7964 34.7346 34.0599L34.049 34.3434H34.0481C34.0079 34.3599 33.9065 34.3598 33.87 34.3615C33.8335 34.3633 33.7744 34.2675 33.8085 34.2518L34.4899 33.9414L34.182 33.9188C34.1695 33.8895 34.2251 33.8254 34.2834 33.8024C35.4147 33.3569 36.5281 32.8953 37.5002 32.2748L37.9486 31.9882C37.9924 31.9604 38.0523 31.9398 38.0933 31.9473Z" fill="#EBEEF5"/>
<path fill-rule="evenodd" clip-rule="evenodd" d="M13.372 23.2671C14.6631 23.2671 15.7247 24.3143 15.7247 25.6198C15.7247 26.4231 15.3229 27.1405 14.6917 27.5708C15.5812 28.0586 16.1981 29.0198 16.1981 30.1101C16.1981 31.7168 14.8926 33.008 13.2858 33.008H8.10699V23.2671H13.372ZM9.9719 31.4586H12.8268C13.6445 31.4586 14.3188 30.7844 14.3188 29.9523C14.3188 29.1203 13.6445 28.4459 12.8268 28.4459H9.9719V31.4586ZM9.9719 26.8965H12.8268C13.4006 26.8965 13.8598 26.4231 13.8598 25.8493C13.8598 25.2755 13.4006 24.8165 12.8268 24.8165H9.9719V26.8965Z" fill="#EBEEF5"/>
<path fill-rule="evenodd" clip-rule="evenodd" d="M30.6239 23.8408L33.3351 31.3008H31.3554L30.7958 29.7658H28.4719L27.9125 31.3008H25.9327L28.644 23.8408L28.8593 23.2527H30.4086L30.6239 23.8408ZM29.0457 28.2164H30.2364L29.634 26.581L29.0457 28.2164Z" fill="#EBEEF5"/>
<path d="M38.6599 28.7961C39.1862 29.0941 39.625 29.6886 39.5986 30.1544C39.5932 30.2495 39.5671 30.3552 39.5453 30.4547C39.5134 30.6001 39.2027 31.1092 38.9476 31.1661C38.7374 31.0732 39.2204 30.6433 39.2504 30.4805C39.1196 30.1122 39.2341 29.9966 39.0656 29.6803C38.9452 29.4542 38.8283 29.2516 38.6944 29.0372C38.6422 28.9539 38.5863 28.8799 38.6599 28.7961Z" fill="#EBEEF5"/>
<path d="M37.6464 26.7901C37.6847 26.7951 37.7184 26.8741 37.6946 26.9066C37.3199 27.4118 37.8386 27.7328 37.8031 27.9403H37.8028C37.7902 28.0148 37.5876 27.9469 37.5555 27.8981C37.4772 27.7785 37.3859 27.665 37.341 27.5448C37.2393 27.2711 37.4818 26.7692 37.6464 26.7901Z" fill="#EBEEF5"/>
<path d="M38.8508 25.8097C38.8505 25.8318 38.8168 25.8999 38.7873 25.9232L38.2452 26.3497H38.2448C38.2161 26.3723 38.0815 26.3945 38.0905 26.3673C38.1524 26.1827 38.5931 25.8582 38.8508 25.8097Z" fill="#EBEEF5"/>
<path d="M4.94721 11.5344C6.80754 11.5344 8.23113 12.3378 9.06266 13.578L7.51227 14.635C6.9908 13.8599 6.10286 13.3666 4.94721 13.3666C3.00235 13.3666 1.83257 14.7619 1.83254 16.4672C1.83257 18.1866 3.00236 19.5818 4.94721 19.5819C6.10286 19.5819 6.9908 19.0886 7.51227 18.3135L9.06266 19.3705C8.23113 20.6107 6.82166 21.4141 4.94721 21.4141C1.86077 21.414 0.00035507 19.2013 0.000326947 16.4672C0.000352573 13.7472 1.86077 11.5344 4.94721 11.5344Z" fill="#EBEEF5"/>
<path d="M12.0174 15.7061H16.3019V11.6894H18.1341V21.2589H16.3019V17.2422H12.0174V21.2589H10.1852V11.6894H12.0174V15.7061Z" fill="#EBEEF5"/>
<path d="M21.0875 21.2589H19.2552V11.6894H21.0875V21.2589Z" fill="#EBEEF5"/>
<path fill-rule="evenodd" clip-rule="evenodd" d="M23.4559 0.14402C24.2483 0.14402 24.9544 0.461148 25.4731 0.979862C25.9774 1.49857 26.2944 2.20454 26.2944 2.98258C26.2944 4.20731 25.5308 5.24473 24.4501 5.64818C25.1705 6.15248 26.0479 7.20421 26.6418 7.76288C28.5428 9.55118 30.6022 10.7058 32.8205 11.501L33.7065 11.7928L33.1404 13.2383L32.4773 12.9754C31.7045 12.7392 30.9412 12.4494 30.1491 12.064V21.2589H28.3169V18.8912L24.0467 14.2968V21.2589H22.2144V11.6894H24.1029L28.3169 16.1994V11.6894H29.4258C28.2591 11.0479 27.0097 10.1826 25.5652 8.96686C24.0058 7.65446 22.5626 5.82114 20.358 5.82114V9.94198H18.485V0.14402H23.4559ZM20.358 4.26503H23.1533C23.8449 4.26503 24.4213 3.68861 24.4213 2.98258C24.4213 2.27656 23.8449 1.71468 23.1533 1.71468H20.358V4.26503Z" fill="#EBEEF5"/>
<path d="M37.1955 14.4985L36.7618 14.2157C36.2557 13.8856 35.6294 14.3926 35.8321 14.9531L36.1818 15.9192L35.3803 16.5676C34.9182 16.9413 35.1881 17.7013 35.7954 17.6789L36.8198 17.6408L37.1836 18.5999L37.2055 18.6514C37.441 19.1477 38.1606 19.1068 38.3514 18.602L38.3688 18.5499L38.4678 18.2057L39.5155 21.2589H37.5847C36.8941 19.2577 35.6397 18.6094 34.3995 18.6094C34.3008 18.6094 34.2163 18.6234 34.1176 18.6234L33.2156 21.2589H31.2707L34.5686 11.6894H36.2317L37.1955 14.4985Z" fill="#EBEEF5"/>
<path d="M38.7037 14.4901C38.8411 14.3826 39.0354 14.5114 38.9896 14.6798L38.6369 15.9799L39.7495 16.7304C39.8935 16.8275 39.8306 17.053 39.6568 17.0621L38.3145 17.1324L37.9416 18.4271C37.8933 18.5946 37.6601 18.605 37.5983 18.4423L37.1216 17.1857L35.7785 17.2352C35.6046 17.2416 35.5235 17.0227 35.659 16.913L36.7067 16.066L36.2493 14.8021C36.1901 14.6384 36.3734 14.4926 36.5189 14.5876L37.6431 15.3208L38.7037 14.4901Z" fill="#EBEEF5"/>
<path d="M13.1439 0C15.0459 1.72967e-05 16.5012 0.821252 17.3369 2.08919L15.7662 3.16992C15.2331 2.37746 14.3254 1.8731 13.1439 1.87308C11.1556 1.87308 9.95966 3.29957 9.95964 5.043C9.95964 6.80086 11.1555 8.22731 13.1439 8.22731C14.1237 8.22729 14.9161 7.86708 15.4636 7.30515V5.83552H13.288V4.26503H17.3369V8.01119C16.5012 9.27915 15.0459 10.1005 13.1439 10.1006C9.98843 10.1006 8.08639 7.83829 8.08639 5.043C8.08641 2.26214 9.98845 0 13.1439 0Z" fill="#EBEEF5"/>
<path fill-rule="evenodd" clip-rule="evenodd" d="M32.735 0C35.9049 0 37.7925 2.26214 37.7925 5.043C37.7925 7.8383 35.9049 10.1006 32.735 10.1006C29.5795 10.1005 27.692 7.83829 27.692 5.043C27.692 2.26214 29.5795 4.35402e-06 32.735 0ZM32.735 1.87308C30.761 1.87309 29.5651 3.29957 29.565 5.043C29.565 6.80086 30.761 8.2273 32.735 8.22731C34.7234 8.22731 35.9193 6.80087 35.9193 5.043C35.9192 3.29957 34.7233 1.87308 32.735 1.87308Z" fill="#EBEEF5"/>
<path fill-rule="evenodd" clip-rule="evenodd" d="M8.42903 9.94198H6.45509C5.74906 7.89597 4.46665 7.23322 3.19869 7.23322C3.09785 7.23323 3.01133 7.24761 2.91049 7.24761L1.98833 9.94198H0L3.37165 0.15857H5.07194L8.42903 9.94198ZM3.44374 5.70589C3.99125 5.7203 4.5532 5.79238 5.10071 5.99409L4.22171 3.44374L3.44374 5.70589Z" fill="#EBEEF5"/>
</svg>
