<svg width="72" height="31" viewBox="0 0 72 31" fill="none" xmlns="http://www.w3.org/2000/svg">
<path d="M19.0384 16.2394H20.0708C20.0956 16.4685 20.1912 16.6842 20.3444 16.8564C20.5164 17.0486 20.7334 17.1951 20.9761 17.2826C21.2654 17.3893 21.5722 17.441 21.8806 17.4351C22.1358 17.4427 22.3903 17.4052 22.6324 17.3243C22.807 17.2666 22.9604 17.1584 23.0732 17.0133C23.17 16.8764 23.2202 16.7121 23.2164 16.5445C23.2205 16.466 23.2074 16.3876 23.178 16.3147C23.1485 16.2418 23.1034 16.1763 23.0459 16.1227C22.8914 16.0001 22.7128 15.9115 22.5216 15.8627C22.2243 15.7766 21.9227 15.706 21.618 15.6514C21.3195 15.5973 21.025 15.523 20.7365 15.429C20.4672 15.3435 20.2095 15.225 19.9693 15.0761C19.7535 14.9448 19.5709 14.7654 19.4357 14.552C19.3012 14.3298 19.2334 14.0736 19.2404 13.814C19.2377 13.5018 19.3335 13.1968 19.5141 12.9421C19.7207 12.6646 20.0027 12.4522 20.3265 12.3302C20.744 12.1714 21.1885 12.0958 21.6351 12.1078C22.4199 12.1078 23.02 12.2885 23.4355 12.6498C23.8509 13.0112 24.0521 13.5015 24.039 14.1208H23.0289C23.0101 13.7316 22.868 13.4501 22.6026 13.2762C22.3372 13.1024 21.9999 13.0157 21.5907 13.0163C21.2714 13.0066 20.9545 13.0747 20.6675 13.2149C20.5503 13.2719 20.4526 13.3623 20.3867 13.4746C20.3207 13.587 20.2894 13.7163 20.2967 13.8464C20.2929 13.959 20.3226 14.0702 20.3819 14.166C20.4573 14.2698 20.558 14.3528 20.6743 14.4071C20.8534 14.4949 21.0415 14.5632 21.2352 14.6108C21.4728 14.6762 21.7652 14.7458 22.1124 14.8196C22.3958 14.8662 22.6751 14.9345 22.9479 15.0241C23.1887 15.1014 23.4181 15.2106 23.6299 15.3488C23.822 15.4754 23.9799 15.6476 24.0893 15.85C24.2087 16.0821 24.2674 16.3407 24.2598 16.6016C24.2654 16.9222 24.1748 17.2371 23.9998 17.5058C23.803 17.7874 23.5267 18.004 23.2062 18.128C22.8504 18.2791 22.3909 18.3547 21.8277 18.3547C21.4496 18.3614 21.0726 18.3099 20.7101 18.2021C20.4194 18.1138 20.145 17.9788 19.8977 17.8024C19.6914 17.6555 19.511 17.4752 19.364 17.2689C19.2411 17.0986 19.1472 16.9091 19.0861 16.7082C19.0376 16.557 19.0213 16.3973 19.0384 16.2394Z" fill="#EBEEF5"/>
<path d="M26.9631 18.3359C26.5575 18.3402 26.1583 18.2344 25.808 18.03C25.4586 17.8252 25.1702 17.5311 24.9725 17.1777C24.7679 16.7901 24.6614 16.3583 24.6623 15.9201C24.6632 15.4818 24.7715 15.0504 24.9777 14.6637C25.1797 14.3079 25.4743 14.0134 25.8301 13.8114C26.1984 13.6055 26.6145 13.5003 27.0364 13.5063C27.5314 13.5063 27.9244 13.6143 28.2154 13.8302C28.5078 14.05 28.7252 14.3548 28.8377 14.7029C28.9663 15.1002 29.0285 15.516 29.0218 15.9335C29.0193 16.2045 28.9818 16.474 28.9102 16.7354C28.8375 17.0142 28.72 17.2792 28.5623 17.5203C28.4015 17.7639 28.185 17.9658 27.9307 18.1092C27.6337 18.2687 27.3 18.3469 26.9631 18.3359ZM27.2785 17.4837C27.5861 17.4927 27.891 17.4242 28.1651 17.2843C28.4015 17.1595 28.5956 16.9673 28.7226 16.732C28.8516 16.4862 28.917 16.2119 28.9127 15.9343C28.9208 15.6421 28.8536 15.3528 28.7175 15.094C28.5889 14.8639 28.3953 14.6768 28.1608 14.5563C27.8866 14.4221 27.5837 14.3568 27.2785 14.3662C26.7841 14.3662 26.4007 14.5117 26.1285 14.8026C25.8563 15.0935 25.7202 15.4707 25.7202 15.9343C25.715 16.2162 25.7837 16.4944 25.9197 16.7414C26.0483 16.9723 26.2399 17.162 26.4721 17.2885C26.7198 17.4213 26.9975 17.4882 27.2785 17.4828V17.4837ZM28.9127 13.6146H29.9519V18.2354H28.9869C28.9622 18.0001 28.9434 17.7982 28.9315 17.6277C28.9195 17.4573 28.9127 17.2954 28.9127 17.1402V13.6146Z" fill="#EBEEF5"/>
<path d="M34.62 16.0349L34.6294 16.3323C34.6166 16.4133 34.5902 16.5335 34.5501 16.6945C34.5027 16.8752 34.4376 17.0507 34.3558 17.2186C34.2624 17.4127 34.1437 17.5935 34.0028 17.7564C33.8521 17.931 33.6673 18.0731 33.4598 18.174C33.2131 18.2885 32.9431 18.3439 32.6713 18.3359C32.4443 18.3364 32.2183 18.3078 31.9987 18.2507C31.7772 18.1942 31.569 18.0949 31.3857 17.9584C31.1949 17.8123 31.0435 17.621 30.945 17.4019C30.8232 17.1212 30.765 16.8171 30.7745 16.5113V13.6137H31.8052V16.3136C31.8052 16.6042 31.852 16.8317 31.9484 16.9954C32.0383 17.1546 32.1808 17.2775 32.3516 17.3431C32.5444 17.4153 32.7492 17.4503 32.9551 17.4462C33.2495 17.4556 33.5402 17.378 33.7906 17.2229C34.0128 17.0816 34.2013 16.8934 34.343 16.6715C34.4723 16.4774 34.5661 16.2618 34.62 16.0349ZM35.5944 18.2345H34.5629V13.6137H35.5944V18.2345Z" fill="#EBEEF5"/>
<path d="M38.4903 18.3359C38.0816 18.3411 37.6791 18.2354 37.3258 18.03C36.9768 17.8263 36.6895 17.5317 36.4946 17.1777C36.2857 16.7956 36.1802 16.3655 36.1886 15.9301C36.1788 15.4891 36.2824 15.0531 36.4895 14.6637C36.6803 14.3112 36.9628 14.0168 37.3071 13.8114C37.6371 13.6327 38.0028 13.5297 38.3776 13.5098C38.7524 13.4899 39.1269 13.5536 39.4741 13.6964C39.7256 13.812 39.943 13.9908 40.1049 14.2154C40.2657 14.4474 40.3814 14.7076 40.4459 14.9824C40.5191 15.2926 40.5548 15.6105 40.5525 15.9292C40.5504 16.2003 40.5128 16.4699 40.4408 16.7312C40.3684 17.01 40.2509 17.2752 40.093 17.5161C39.9329 17.76 39.7165 17.962 39.4621 18.105C39.1644 18.2668 38.829 18.3465 38.4903 18.3359ZM38.8057 17.4837C39.1133 17.4926 39.4182 17.4241 39.6923 17.2843C39.9283 17.1592 40.122 16.967 40.249 16.732C40.3777 16.4861 40.4428 16.2119 40.4382 15.9343C40.4471 15.6422 40.3801 15.3527 40.2439 15.094C40.1148 14.8632 39.9214 14.6749 39.6872 14.552C39.4142 14.4145 39.1112 14.3474 38.8057 14.3569C38.3107 14.3569 37.9271 14.5037 37.6549 14.7975C37.3826 15.0912 37.2462 15.4702 37.2457 15.9343C37.2407 16.2162 37.3098 16.4945 37.446 16.7414C37.5743 16.9723 37.7656 17.162 37.9976 17.2885C38.2459 17.4213 38.5242 17.4882 38.8057 17.4828V17.4837ZM40.4382 11.7593H41.4782V18.2362H40.5132C40.5013 18.0939 40.4851 17.9175 40.4672 17.707C40.4493 17.4965 40.4382 17.3081 40.4382 17.1411V11.7593Z" fill="#EBEEF5"/>
<path d="M43.6964 11.6561V12.649H42.462V11.6561H43.6964ZM42.5549 13.6163H43.5941V18.2371H42.5549V13.6163Z" fill="#EBEEF5"/>
<path d="M50.0354 17.4547L49.7285 17.4462L51.0746 13.6111H52.2092L50.4088 18.2319H49.4318L47.9929 14.3816H48.3185L46.8429 18.2319H45.8676L44.1047 13.6111H45.2368L46.5453 17.4521H46.2419L47.5598 13.6111H48.7661L50.0354 17.4547Z" fill="#EBEEF5"/>
<path d="M54.9167 18.3359C54.4412 18.3439 53.9695 18.2492 53.534 18.0581C53.14 17.8847 52.8046 17.6012 52.5681 17.2416C52.3375 16.845 52.2161 16.3944 52.2161 15.9356C52.2161 15.4768 52.3375 15.0262 52.5681 14.6296C52.8049 14.2669 53.1398 13.979 53.534 13.7995C53.9679 13.6025 54.4402 13.5044 54.9167 13.5123C55.3902 13.5037 55.8596 13.6019 56.29 13.7995C56.6786 13.9804 57.0076 14.2679 57.2389 14.6287C57.4668 15.0263 57.5867 15.4765 57.5867 15.9348C57.5867 16.393 57.4668 16.8432 57.2389 17.2408C57.0074 17.5992 56.6769 17.8828 56.2875 18.0572C55.8563 18.2488 55.3885 18.3439 54.9167 18.3359ZM54.9167 17.4922C55.1987 17.4954 55.4778 17.4351 55.7334 17.3158C55.9778 17.2015 56.1828 17.0173 56.3224 16.7866C56.4652 16.5252 56.54 16.2321 56.54 15.9343C56.54 15.6365 56.4652 15.3435 56.3224 15.0821C56.1811 14.8509 55.9787 14.6631 55.7376 14.5392C55.4835 14.41 55.2017 14.3448 54.9167 14.3492C54.6306 14.3454 54.3476 14.409 54.0906 14.535C53.8465 14.6566 53.6402 14.8425 53.4939 15.0727C53.3466 15.3348 53.2693 15.6303 53.2693 15.9309C53.2693 16.2315 53.3466 16.527 53.4939 16.7891C53.637 17.0199 53.8444 17.2038 54.0906 17.3184C54.3498 17.4365 54.6319 17.4958 54.9167 17.4922Z" fill="#EBEEF5"/>
<path d="M58.2022 13.6137H59.232V18.2345H58.2022V13.6137ZM60.9046 14.4949C60.6042 14.4864 60.3073 14.5604 60.0461 14.7088C59.8206 14.8391 59.6258 15.0164 59.4749 15.2287C59.3439 15.4099 59.2437 15.6114 59.1783 15.8252L59.1689 15.3062C59.1826 15.201 59.2042 15.0971 59.2337 14.9952C59.2773 14.8375 59.3343 14.6838 59.4042 14.5358C59.4869 14.3598 59.5929 14.1959 59.7196 14.0483C59.8558 13.8882 60.0231 13.7574 60.2115 13.664C60.427 13.5587 60.6647 13.5067 60.9046 13.5123V14.4949Z" fill="#EBEEF5"/>
<path d="M62.4995 11.7584H61.4689V18.2345H62.4995V11.7584Z" fill="#EBEEF5"/>
<path d="M66.3689 16.7124H67.3246C67.3721 16.945 67.5085 17.1498 67.7048 17.2834C67.9094 17.4294 68.185 17.5022 68.5317 17.5016C68.7092 17.5085 68.8865 17.4834 69.0551 17.4274C69.165 17.3908 69.2597 17.3189 69.3245 17.2229C69.3782 17.1335 69.4057 17.0307 69.4038 16.9263C69.4073 16.8686 69.3988 16.8108 69.3788 16.7565C69.3589 16.7023 69.3279 16.6527 69.2878 16.611C69.1894 16.5245 69.0729 16.461 68.9468 16.4252C68.7648 16.3678 68.5787 16.3242 68.3902 16.2948C68.1617 16.2394 67.9358 16.1781 67.7133 16.109C67.5031 16.0467 67.3007 15.961 67.1097 15.8534C66.9379 15.7604 66.7915 15.6266 66.6835 15.4639C66.5774 15.2896 66.5244 15.0883 66.5309 14.8844C66.528 14.6847 66.5777 14.4878 66.675 14.3134C66.7739 14.1402 66.912 13.9925 67.0782 13.8822C67.2661 13.7579 67.4732 13.6655 67.6911 13.6086C67.9413 13.5415 68.1994 13.5088 68.4584 13.5114C68.8046 13.4996 69.149 13.566 69.466 13.7057C69.7205 13.8227 69.9338 14.0137 70.0781 14.2537C70.2203 14.4985 70.2926 14.7777 70.2869 15.0608H69.385C69.3355 14.8128 69.2392 14.6347 69.0977 14.5222C68.9562 14.4097 68.7414 14.3517 68.4575 14.3517C68.1736 14.3517 67.9562 14.4012 67.8079 14.5C67.7382 14.5426 67.6808 14.6026 67.6416 14.6743C67.6025 14.7459 67.5828 14.8266 67.5846 14.9082C67.5823 14.9678 67.5942 15.027 67.6192 15.0811C67.6443 15.1351 67.6818 15.1825 67.7286 15.2193C67.8527 15.3107 67.9926 15.3783 68.1412 15.4187C68.3211 15.4741 68.5317 15.5304 68.7729 15.5892C68.9951 15.6517 69.2054 15.715 69.4038 15.7792C69.5902 15.8391 69.7693 15.92 69.9374 16.0204C70.1018 16.1167 70.2365 16.2564 70.3267 16.4242C70.417 16.5919 70.4592 16.7813 70.4489 16.9715C70.4557 17.234 70.376 17.4916 70.2221 17.7044C70.0538 17.9206 69.8264 18.0834 69.5674 18.1731C69.2365 18.2888 68.8873 18.3437 68.5368 18.3351C68.2279 18.3411 67.9198 18.3005 67.6229 18.2149C67.3928 18.1478 67.1761 18.0411 66.9827 17.8996C66.8272 17.7852 66.6935 17.6437 66.588 17.482C66.5027 17.3508 66.4386 17.207 66.3979 17.0559C66.3669 16.9442 66.3571 16.8277 66.3689 16.7124Z" fill="#EBEEF5"/>
<path d="M4.82162 15.0548C6.6374 15.5295 8.33213 16.2122 9.88535 17.2306C11.8921 18.5464 13.3208 20.325 14.1554 22.5792C14.99 24.8333 15.3736 27.1565 15.4273 29.5428C15.441 30.1811 15.4273 30.1828 14.788 30.1836C13.1367 30.1836 11.4846 30.1743 9.83335 30.1964C9.37471 30.2024 9.23661 30.0524 9.22212 29.5913C9.11471 26.6435 8.72257 23.7536 7.34667 21.0818C5.91024 18.2899 3.72363 16.3673 0.73569 15.3719C0.514898 15.2986 0.297515 15.2133 0 15.1051C0.140687 15.0213 0.287107 14.9476 0.438174 14.8844C4.25131 13.6913 6.69963 11.1218 8.0619 7.41714C8.88113 5.19025 9.13602 2.87644 9.21871 0.53366C9.23406 0.107544 9.34829 -0.00494861 9.766 0.000164782C11.4974 0.0214706 13.2296 0.015505 14.9619 0.000164782C15.331 0.000164782 15.4554 0.0913537 15.4444 0.487641C15.3659 3.30001 14.9005 6.02715 13.7087 8.59748C12.5238 11.1499 10.494 12.8322 7.97921 13.9572C7.12673 14.3407 6.20008 14.575 5.30839 14.8793C5.14471 14.9338 4.98189 14.996 4.82162 15.0548Z" fill="#EBEEF5"/>
<path d="M48.7903 22.822V19.7224H49.1476V20.8666H49.1779C49.2041 20.8262 49.2405 20.7747 49.2869 20.7122C49.3343 20.6486 49.402 20.5921 49.4898 20.5427C49.5786 20.4922 49.6987 20.467 49.8501 20.467C50.0459 20.467 50.2185 20.5159 50.3679 20.6138C50.5172 20.7117 50.6338 20.8504 50.7176 21.03C50.8014 21.2096 50.8432 21.4215 50.8432 21.6657C50.8432 21.9119 50.8014 22.1253 50.7176 22.3059C50.6338 22.4855 50.5177 22.6247 50.3694 22.7236C50.221 22.8215 50.0499 22.8704 49.8562 22.8704C49.7068 22.8704 49.5872 22.8457 49.4973 22.7963C49.4075 22.7458 49.3384 22.6888 49.2899 22.6253C49.2415 22.5607 49.2041 22.5072 49.1779 22.4648H49.1355V22.822H48.7903ZM49.1416 21.6596C49.1416 21.8352 49.1673 21.9901 49.2188 22.1243C49.2703 22.2575 49.3454 22.3619 49.4444 22.4376C49.5433 22.5122 49.6644 22.5496 49.8077 22.5496C49.9571 22.5496 50.0817 22.5102 50.1816 22.4315C50.2826 22.3518 50.3583 22.2449 50.4087 22.1107C50.4602 21.9755 50.486 21.8251 50.486 21.6596C50.486 21.4962 50.4607 21.3489 50.4103 21.2177C50.3608 21.0855 50.2856 20.9811 50.1847 20.9044C50.0848 20.8267 49.9591 20.7879 49.8077 20.7879C49.6624 20.7879 49.5402 20.8247 49.4413 20.8983C49.3424 20.971 49.2677 21.0729 49.2173 21.2041C49.1668 21.3342 49.1416 21.4861 49.1416 21.6596Z" fill="#EBEEF5"/>
<path d="M51.5366 23.6938C51.4761 23.6938 51.4221 23.6887 51.3746 23.6786C51.3272 23.6696 51.2944 23.6605 51.2762 23.6514L51.3671 23.3366C51.4539 23.3588 51.5306 23.3669 51.5972 23.3608C51.6638 23.3548 51.7228 23.325 51.7743 23.2715C51.8268 23.219 51.8747 23.1338 51.9181 23.0157L51.9847 22.8341L51.1248 20.4973H51.5124L52.1543 22.3498H52.1785L52.8204 20.4973H53.208L52.2209 23.161C52.1765 23.2811 52.1215 23.3805 52.0559 23.4592C51.9903 23.5389 51.9141 23.5979 51.8273 23.6363C51.7415 23.6746 51.6446 23.6938 51.5366 23.6938Z" fill="#EBEEF5"/>
<path d="M55.3025 19.7224V22.822H54.9271V19.7224H55.3025Z" fill="#EBEEF5"/>
<path d="M57.9084 20.4973L57.0485 22.822H56.6851L55.8252 20.4973H56.2128L56.8547 22.3498H56.8789L57.5208 20.4973H57.9084Z" fill="#EBEEF5"/>
<path d="M58.6101 23.6938C58.5496 23.6938 58.4956 23.6887 58.4481 23.6786C58.4007 23.6696 58.3679 23.6605 58.3497 23.6514L58.4406 23.3366C58.5274 23.3588 58.6041 23.3669 58.6707 23.3608C58.7373 23.3548 58.7963 23.325 58.8478 23.2715C58.9003 23.219 58.9482 23.1338 58.9916 23.0157L59.0582 22.8341L58.1983 20.4973H58.5859L59.2278 22.3498H59.252L59.8939 20.4973H60.2815L59.2944 23.161C59.25 23.2811 59.195 23.3805 59.1294 23.4592C59.0638 23.5389 58.9876 23.5979 58.9008 23.6363C58.815 23.6746 58.7181 23.6938 58.6101 23.6938Z" fill="#EBEEF5"/>
<path d="M61.831 20.0553V19.7224H64.1564V20.0553H63.1815V22.822H62.806V20.0553H61.831Z" fill="#EBEEF5"/>
<path d="M65.3252 22.8704C65.1011 22.8704 64.9078 22.821 64.7454 22.7221C64.5839 22.6222 64.4592 22.483 64.3714 22.3044C64.2846 22.1248 64.2412 21.9159 64.2412 21.6778C64.2412 21.4397 64.2846 21.2298 64.3714 21.0482C64.4592 20.8656 64.5813 20.7233 64.7378 20.6214C64.8952 20.5185 65.0789 20.467 65.2889 20.467C65.41 20.467 65.5296 20.4872 65.6477 20.5275C65.7657 20.5679 65.8732 20.6335 65.9701 20.7243C66.067 20.8141 66.1442 20.9332 66.2018 21.0815C66.2593 21.2298 66.2881 21.4124 66.2881 21.6294V21.7807H64.4956V21.472H65.9247C65.9247 21.3408 65.8985 21.2238 65.846 21.1208C65.7945 21.0179 65.7208 20.9367 65.6249 20.8772C65.5301 20.8176 65.418 20.7879 65.2889 20.7879C65.1465 20.7879 65.0234 20.8232 64.9195 20.8938C64.8165 20.9634 64.7373 21.0542 64.6818 21.1662C64.6263 21.2782 64.5985 21.3983 64.5985 21.5264V21.7323C64.5985 21.9079 64.6288 22.0567 64.6893 22.1788C64.7509 22.2998 64.8362 22.3922 64.9452 22.4557C65.0542 22.5183 65.1809 22.5496 65.3252 22.5496C65.4191 22.5496 65.5038 22.5365 65.5795 22.5102C65.6562 22.483 65.7223 22.4426 65.7779 22.3891C65.8334 22.3347 65.8763 22.2671 65.9065 22.1863L66.2517 22.2832C66.2154 22.4002 66.1543 22.5032 66.0685 22.592C65.9827 22.6797 65.8768 22.7483 65.7506 22.7978C65.6244 22.8462 65.4826 22.8704 65.3252 22.8704Z" fill="#EBEEF5"/>
<path d="M67.7763 22.8704C67.5582 22.8704 67.3705 22.819 67.2131 22.7161C67.0556 22.6131 66.9345 22.4714 66.8497 22.2908C66.7649 22.1102 66.7226 21.9038 66.7226 21.6717C66.7226 21.4356 66.7659 21.2273 66.8527 21.0467C66.9406 20.8651 67.0627 20.7233 67.2191 20.6214C67.3766 20.5185 67.5603 20.467 67.7702 20.467C67.9337 20.467 68.0811 20.4973 68.2123 20.5578C68.3435 20.6184 68.451 20.7031 68.5347 20.8121C68.6185 20.9211 68.6705 21.0482 68.6907 21.1935H68.3334C68.3061 21.0875 68.2456 20.9937 68.1517 20.912C68.0589 20.8292 67.9337 20.7879 67.7763 20.7879C67.637 20.7879 67.5148 20.8242 67.4099 20.8968C67.3059 20.9685 67.2247 21.0699 67.1661 21.201C67.1086 21.3312 67.0798 21.4841 67.0798 21.6596C67.0798 21.8392 67.1081 21.9956 67.1646 22.1288C67.2221 22.262 67.3029 22.3654 67.4069 22.4391C67.5118 22.5127 67.635 22.5496 67.7763 22.5496C67.8691 22.5496 67.9534 22.5334 68.0291 22.5011C68.1048 22.4689 68.1689 22.4224 68.2213 22.3619C68.2738 22.3014 68.3112 22.2287 68.3334 22.144H68.6907C68.6705 22.2812 68.6205 22.4048 68.5408 22.5148C68.4621 22.6237 68.3576 22.7105 68.2274 22.7751C68.0982 22.8387 67.9478 22.8704 67.7763 22.8704Z" fill="#EBEEF5"/>
<path d="M69.5703 21.4235V22.822H69.213V19.7224H69.5703V20.8605H69.6005C69.6551 20.7404 69.7368 20.6451 69.8458 20.5745C69.9558 20.5028 70.1022 20.467 70.2849 20.467C70.4433 20.467 70.5821 20.4988 70.7012 20.5624C70.8203 20.6249 70.9126 20.7213 70.9782 20.8514C71.0448 20.9806 71.0781 21.145 71.0781 21.3448V22.822H70.7209V21.369C70.7209 21.1844 70.6729 21.0416 70.577 20.9407C70.4822 20.8388 70.3505 20.7879 70.1819 20.7879C70.0648 20.7879 69.9599 20.8126 69.867 20.862C69.7752 20.9115 69.7025 20.9836 69.649 21.0785C69.5965 21.1733 69.5703 21.2883 69.5703 21.4235Z" fill="#EBEEF5"/>
<path d="M63.4662 15.2969C63.8276 15.3866 64.1718 15.5352 64.4849 15.7366C64.8786 15.991 65.178 16.3672 65.3374 16.8079C65.5008 17.2569 65.5873 17.7303 65.5932 18.2081C65.5932 18.3359 65.5932 18.3368 65.4653 18.3368C65.1337 18.3368 64.8021 18.3368 64.4705 18.3368C64.3784 18.3368 64.3511 18.3078 64.3477 18.2149C64.3264 17.6235 64.2471 17.0431 63.9709 16.5104C63.8382 16.2398 63.6523 15.9988 63.4242 15.8017C63.1961 15.6045 62.9306 15.4555 62.6436 15.3633C62.5993 15.3489 62.5583 15.3318 62.4961 15.3097C62.5236 15.2935 62.5521 15.279 62.5814 15.2662C63.3486 15.0267 63.8388 14.5111 64.1158 13.7671C64.2666 13.3217 64.3449 12.855 64.3477 12.3848C64.3477 12.2996 64.3741 12.2766 64.4577 12.2774C64.8055 12.2817 65.1533 12.2774 65.5011 12.2774C65.5753 12.2774 65.6 12.2953 65.5983 12.3754C65.5946 12.9361 65.476 13.4901 65.2496 14.0032C65.0118 14.5145 64.6043 14.8554 64.0988 15.0796C63.9283 15.1563 63.7416 15.2031 63.5626 15.2645L63.4662 15.2969Z" fill="#EBEEF5"/>
<path d="M4.82932 15.0548C6.6451 15.5295 8.33983 16.2122 9.89389 17.2306C11.8998 18.5464 13.3285 20.325 14.1631 22.5792C14.9977 24.8333 15.3822 27.1565 15.435 29.5428C15.4486 30.1811 15.435 30.1828 14.7965 30.1836C13.1444 30.1836 11.4923 30.1743 9.84104 30.1964C9.38241 30.2024 9.24431 30.0524 9.22981 29.5913C9.1224 26.6435 8.73026 23.7536 7.35436 21.0818C5.91793 18.2899 3.73132 16.3673 0.744237 15.3719C0.522592 15.2986 0.30521 15.2133 0.008547 15.1051C0.148863 15.0212 0.295011 14.9474 0.445869 14.8844" fill="#EBEEF5"/>
</svg>
