<svg width="81" height="13" viewBox="0 0 81 13" fill="none" xmlns="http://www.w3.org/2000/svg">
<path d="M21.064 6.74124C21.064 6.781 21.0691 6.83616 21.0793 6.90544C21.0896 6.97471 21.1319 7.09401 21.2063 7.26206C21.2808 7.43011 21.3872 7.5802 21.5258 7.70849C21.6643 7.83805 21.8875 7.95607 22.1954 8.06511C22.5033 8.17415 22.865 8.22931 23.282 8.22931C23.967 8.22931 24.4775 8.12284 24.8149 7.90989C25.1523 7.69694 25.3204 7.42113 25.3204 7.08375C25.3204 6.80666 25.2113 6.57062 24.9932 6.37691C24.7752 6.18321 24.4878 6.0267 24.1299 5.9074C23.7733 5.7881 23.3807 5.67649 22.9548 5.57258C22.5277 5.46867 22.1018 5.35194 21.6746 5.22237C21.2474 5.09409 20.8561 4.94015 20.4995 4.76056C20.1429 4.58224 19.8517 4.33209 19.6285 4.00882C19.4053 3.68683 19.2885 3.31225 19.2783 2.88507V2.84017C19.2783 1.95759 19.6285 1.26486 20.3276 0.764562C21.0268 0.26426 21.9773 0.0128251 23.1768 0.0128251C23.8913 0.0128251 24.5135 0.105192 25.0446 0.288635C25.5756 0.472079 25.9643 0.697856 26.2132 0.965966C26.4608 1.23408 26.6571 1.49962 26.8007 1.7626C26.9444 2.02558 27.0265 2.25135 27.0458 2.43993L27.0753 2.70804H25.0215C25.0215 2.67853 25.0138 2.64133 24.9997 2.59643C24.9843 2.55153 24.9406 2.46943 24.8662 2.35141C24.7918 2.23211 24.6956 2.12564 24.5763 2.03199C24.457 1.93835 24.2761 1.85368 24.0337 1.77928C23.79 1.70487 23.5103 1.66767 23.1934 1.66767C22.5879 1.66767 22.1197 1.77158 21.7875 1.98068C21.4552 2.18849 21.2884 2.44763 21.2884 2.75422V2.81323C21.3077 3.04157 21.4321 3.23528 21.6605 3.39307C21.8888 3.55214 22.1839 3.67785 22.5456 3.77278C22.9074 3.86771 23.3025 3.95879 23.7284 4.04859C24.1543 4.13839 24.5815 4.25256 25.0086 4.3911C25.4345 4.52965 25.8245 4.70155 26.1773 4.90423C26.5288 5.1082 26.8149 5.39299 27.0329 5.75988C27.251 6.12676 27.3601 6.56292 27.3601 7.06964C27.3601 7.96248 27.0034 8.65392 26.2889 9.14525C25.5744 9.63657 24.5725 9.88159 23.2832 9.88159C22.738 9.88159 22.239 9.82386 21.7875 9.71097C21.3359 9.5968 20.9665 9.448 20.6791 9.26455C20.3918 9.08111 20.1378 8.87714 19.9197 8.65393C19.7016 8.43072 19.5374 8.20494 19.4284 7.9766C19.3193 7.74825 19.2295 7.543 19.1602 7.35956C19.091 7.17611 19.0512 7.02474 19.0409 6.90544L19.0114 6.74124H21.0652H21.064Z" fill="#EBEEF5"/>
<path d="M28.0874 1.17635C28.0874 0.849227 28.199 0.570854 28.4222 0.342512C28.6454 0.114169 28.9161 0 29.233 0C29.5498 0 29.8385 0.114169 30.0668 0.342512C30.2951 0.570854 30.4093 0.847944 30.4093 1.17635C30.4093 1.50475 30.2951 1.76388 30.0668 1.98709C29.8385 2.2103 29.5614 2.32191 29.233 2.32191C28.9251 2.32191 28.657 2.20774 28.4299 1.9794C28.2016 1.75105 28.0874 1.48294 28.0874 1.17635ZM30.2002 3.03644V9.73278H28.2952V3.03644H30.2002Z" fill="#EBEEF5"/>
<path d="M34.1128 6.32432L31.1367 3.03516H33.3688L35.1545 5.01456L36.9556 3.03516H39.1736L36.2718 6.24992L39.4122 9.7315H37.1801L35.2161 7.55839L33.2662 9.7315H31.0482L34.1141 6.32303L34.1128 6.32432Z" fill="#EBEEF5"/>
<path d="M40.3769 3.0364V2.27697C40.3769 1.4239 40.5475 0.858171 40.89 0.579798C41.2325 0.302708 41.8649 0.16288 42.7873 0.16288H43.9624V1.77026H42.7873C42.5987 1.77026 42.4691 1.80746 42.3999 1.88186C42.3306 1.95627 42.296 2.0884 42.296 2.27569V3.03512H43.9624V4.6425H42.296V9.73146H40.3769V4.6425H39.5879V3.03512H40.3769V3.0364Z" fill="#EBEEF5"/>
<path d="M45.1669 3.88435C45.8417 3.21985 46.7692 2.8876 47.9494 2.8876C49.1296 2.8876 50.0596 3.21985 50.7395 3.88435C51.4194 4.54886 51.7594 5.38269 51.7594 6.38457C51.7594 7.38646 51.422 8.22927 50.7472 8.8848C50.0622 9.5493 49.1296 9.88155 47.9494 9.88155C46.7692 9.88155 45.8391 9.54673 45.1592 8.8771C44.4793 8.20747 44.1394 7.3762 44.1394 6.38457C44.1394 5.39295 44.4819 4.54886 45.1656 3.88435H45.1669ZM46.0893 6.38457C46.0893 6.96056 46.2483 7.43649 46.5652 7.81364C46.8821 8.19079 47.3439 8.37936 47.9494 8.37936C48.5549 8.37936 49.0038 8.18822 49.3258 7.80594C49.6478 7.42366 49.8095 6.9503 49.8095 6.38457C49.8095 5.78934 49.6504 5.30829 49.3335 4.9414C49.0154 4.57451 48.5549 4.39107 47.9494 4.39107C47.3439 4.39107 46.8833 4.57451 46.5652 4.9414C46.2471 5.30829 46.0893 5.78934 46.0893 6.38457Z" fill="#EBEEF5"/>
<path d="M52.4431 0.164164H54.3622V7.61993C54.3622 7.80851 54.3968 7.93936 54.4661 8.01376C54.5354 8.08817 54.665 8.12537 54.8535 8.12537H55.3897V9.73274H54.8535C53.9312 9.73274 53.2987 9.5942 52.9562 9.31583C52.6137 9.03874 52.4431 8.47301 52.4431 7.61993V0.164164Z" fill="#EBEEF5"/>
<path d="M56.7431 3.82534C57.3576 3.21087 58.1722 2.90299 59.1831 2.90299C59.2921 2.90299 59.4011 2.90812 59.5102 2.91839C60.294 2.95815 60.9033 3.27116 61.3408 3.85613V0.165444H63.2599V9.73402H61.3844V8.81167C60.9675 9.45693 60.353 9.8033 59.5397 9.85333C59.4011 9.86359 59.2613 9.86872 59.1228 9.86872C58.1401 9.86872 57.3294 9.55828 56.6892 8.93868C56.0491 8.31907 55.7297 7.47241 55.7297 6.40125C55.7297 5.33009 56.0671 4.50139 56.7418 3.82662L56.7431 3.82534ZM57.6809 6.39997C57.6809 7.0247 57.8566 7.50576 58.2094 7.84314C58.5609 8.18053 59.006 8.34858 59.541 8.34858C60.0759 8.34858 60.5428 8.18053 60.8802 7.84314C61.2176 7.50576 61.3857 7.01957 61.3857 6.38457C61.3857 5.69955 61.2189 5.20181 60.8866 4.8888C60.5544 4.57579 60.1054 4.41929 59.5397 4.41929C58.974 4.41929 58.5481 4.59119 58.2004 4.93242C57.8528 5.27493 57.6796 5.76369 57.6796 6.39868L57.6809 6.39997Z" fill="#EBEEF5"/>
<path d="M64.2707 5.9741H65.066C65.066 5.98692 65.066 6.00104 65.0686 6.02028C65.0712 6.03824 65.0814 6.07288 65.102 6.12162C65.1225 6.17037 65.1507 6.21399 65.1879 6.24991C65.2251 6.28711 65.2841 6.32046 65.3649 6.35125C65.447 6.38204 65.5445 6.39743 65.6587 6.39743H65.6767C66.0025 6.39743 66.1654 6.29994 66.1654 6.10366V6.09083C66.1616 5.99334 66.0679 5.91381 65.8845 5.85223C65.701 5.79066 65.4983 5.74319 65.2764 5.70856C65.0545 5.67392 64.8467 5.59695 64.653 5.47636C64.4593 5.35578 64.3566 5.19414 64.3438 4.99017V4.93501C64.3438 4.7195 64.4554 4.52579 64.6799 4.35389C64.9044 4.18327 65.2097 4.09733 65.5971 4.09733C65.8383 4.09733 66.0487 4.12683 66.2296 4.18584C66.4104 4.24485 66.5438 4.31669 66.6272 4.40264C66.7106 4.48859 66.7773 4.57325 66.8261 4.6592C66.8748 4.74515 66.903 4.81827 66.912 4.87985L66.9248 4.9658H66.1231C66.1231 4.9581 66.1205 4.94656 66.1167 4.93244C66.1128 4.91833 66.1 4.89524 66.0795 4.86189C66.0589 4.82982 66.032 4.80032 65.9999 4.77338C65.9679 4.74644 65.9165 4.72206 65.8473 4.70025C65.778 4.67845 65.6959 4.6669 65.6023 4.6669C65.447 4.6669 65.3265 4.69384 65.2418 4.74644C65.1597 4.79519 65.1199 4.85419 65.1199 4.92346C65.1199 4.92731 65.1225 4.95041 65.1263 4.99402C65.1302 5.03636 65.1969 5.08254 65.3252 5.13128C65.4535 5.18003 65.6061 5.22236 65.7844 5.257C65.9614 5.29164 66.1398 5.33397 66.3194 5.38272C66.499 5.43146 66.6542 5.511 66.7837 5.62132C66.9146 5.73164 66.9839 5.87147 66.9916 6.04337V6.11008C66.9916 6.35894 66.8774 6.5642 66.649 6.7284C66.4207 6.89132 66.0743 6.97342 65.61 6.97342C65.3688 6.97342 65.1584 6.93878 64.9775 6.86951C64.7966 6.80024 64.6619 6.71685 64.5773 6.61936C64.4926 6.52186 64.4233 6.42437 64.372 6.32944C64.3207 6.23323 64.2912 6.15113 64.2835 6.08185L64.2707 5.97795V5.9741Z" fill="#EBEEF5"/>
<path d="M67.1044 4.15762H67.4598V3.35073H68.2487V4.15762H68.9094V4.81828H68.2551V6.04209C68.2551 6.11906 68.2692 6.17294 68.2975 6.20372C68.3257 6.23451 68.377 6.24991 68.4501 6.24991H68.9094V6.91056H68.4501C68.0704 6.91056 67.8113 6.85411 67.6702 6.73994C67.5291 6.62577 67.4598 6.39358 67.4598 6.04337V4.81956H67.1044V4.15762Z" fill="#EBEEF5"/>
<path d="M69.9998 5.64954C69.9998 5.90226 70.0447 6.08442 70.1345 6.19731C70.2243 6.30892 70.3692 6.36536 70.5694 6.36536C70.7041 6.36536 70.8131 6.34227 70.8965 6.2948C70.9799 6.24862 71.0414 6.17422 71.0799 6.07416C71.1184 5.9741 71.1428 5.87404 71.153 5.77398C71.1633 5.67392 71.1684 5.54435 71.1684 5.38528V4.15634H71.9574V6.90799H71.1864V6.57189C71.0158 6.83231 70.7682 6.96572 70.4462 6.96957H70.3975C69.9728 6.96957 69.6701 6.86053 69.4866 6.64245C69.3032 6.42437 69.2108 6.0934 69.2108 5.64826V4.15634H69.9998V5.64954Z" fill="#EBEEF5"/>
<path d="M72.668 4.48217C72.9208 4.22946 73.2556 4.10246 73.6712 4.10246C73.7161 4.10246 73.761 4.10503 73.8059 4.10887C74.1279 4.12555 74.3793 4.25383 74.5576 4.49372V2.97742H75.3466V6.91056H74.5756V6.53084C74.405 6.79639 74.151 6.93878 73.8175 6.95931C73.7597 6.96316 73.7033 6.96572 73.6468 6.96572C73.2428 6.96572 72.9105 6.83872 72.6475 6.58344C72.3845 6.32816 72.2524 5.98051 72.2524 5.5405C72.2524 5.10049 72.391 4.75926 72.668 4.48217ZM73.0529 5.5405C73.0529 5.79707 73.1247 5.99462 73.2697 6.13317C73.4147 6.27171 73.5968 6.34099 73.8175 6.34099C74.0381 6.34099 74.2292 6.27171 74.3678 6.13317C74.5063 5.99462 74.5756 5.7945 74.5756 5.53409C74.5756 5.25315 74.5076 5.0479 74.3704 4.91962C74.2331 4.79133 74.0496 4.72719 73.8175 4.72719C73.5853 4.72719 73.4095 4.79775 73.2671 4.93886C73.1247 5.07997 73.0529 5.28009 73.0529 5.54179V5.5405Z" fill="#EBEEF5"/>
<path d="M75.7507 3.39306C75.7507 3.25836 75.7969 3.14419 75.8879 3.05055C75.9803 2.9569 76.0906 2.90943 76.2215 2.90943C76.3523 2.90943 76.4703 2.9569 76.564 3.05055C76.6576 3.14419 76.7051 3.25836 76.7051 3.39306C76.7051 3.52775 76.6576 3.63423 76.564 3.72659C76.4703 3.81895 76.3562 3.86385 76.2215 3.86385C76.0945 3.86385 75.9854 3.81639 75.8918 3.72274C75.7981 3.6291 75.7507 3.51877 75.7507 3.39306ZM76.6191 4.15762V6.90928H75.8366V4.15762H76.6191Z" fill="#EBEEF5"/>
<path d="M77.4222 4.50655C77.6993 4.23331 78.0803 4.09733 78.5665 4.09733C79.0527 4.09733 79.4337 4.23459 79.7133 4.50655C79.993 4.77979 80.1328 5.1223 80.1328 5.53409C80.1328 5.94588 79.9943 6.29224 79.7172 6.56163C79.4362 6.83487 79.0527 6.97085 78.5678 6.97085C78.0828 6.97085 77.7006 6.83359 77.4209 6.55778C77.1413 6.28326 77.0014 5.94074 77.0014 5.53281C77.0014 5.12487 77.1425 4.77851 77.4235 4.50527L77.4222 4.50655ZM77.8019 5.53409C77.8019 5.77013 77.8673 5.9664 77.9982 6.12162C78.129 6.27685 78.3176 6.35382 78.5665 6.35382C78.8153 6.35382 79.0001 6.27556 79.1322 6.11777C79.2643 5.96127 79.331 5.76628 79.331 5.53409C79.331 5.28907 79.2656 5.09152 79.1348 4.94143C79.0039 4.79005 78.8141 4.71565 78.5665 4.71565C78.3189 4.71565 78.1277 4.79134 77.9982 4.94143C77.8673 5.0928 77.8019 5.29035 77.8019 5.53409Z" fill="#EBEEF5"/>
<path d="M21.6168 11.013L21.1537 12.7538H20.8035L20.6367 12.124L20.4674 11.3453H20.4225L20.2557 12.124L20.089 12.7538H19.7362L19.2731 11.013H19.5617L19.7837 11.8469L19.9158 12.4613L20.0479 11.8469L20.2673 11.013H20.6252L20.8445 11.8469L20.9792 12.4639L21.1114 11.8469L21.3307 11.013H21.6194H21.6168Z" fill="#EBEEF5"/>
<path d="M22.0504 11.013H22.3313V12.7538H22.0504V11.013Z" fill="#EBEEF5"/>
<path d="M23.441 12.1047H23.1729V12.7538H22.8919V11.013H23.6103C23.9887 11.013 24.203 11.2375 24.203 11.5659C24.203 11.852 24.0413 12.038 23.7655 12.0906L24.2851 12.7551H23.9387L23.441 12.106V12.1047ZM23.1729 11.8559H23.5808C23.8117 11.8559 23.9195 11.7366 23.9195 11.5672C23.9195 11.3979 23.8104 11.2811 23.5808 11.2811H23.1729V11.8559Z" fill="#EBEEF5"/>
<path d="M24.9983 11.7327H25.7924V12.0008H24.9983V12.4857H25.854V12.7538H24.7174V11.013H25.854V11.2811H24.9983V11.7327Z" fill="#EBEEF5"/>
<path d="M27.8128 11.8841C27.8128 12.3869 27.4267 12.7551 26.9226 12.7551H26.3132V11.0143H26.9226C27.4306 11.0143 27.8128 11.3799 27.8128 11.8854V11.8841ZM27.5319 11.8841C27.5319 11.5313 27.2753 11.2824 26.9251 11.2824H26.5942V12.487H26.9251C27.2753 12.487 27.5319 12.2407 27.5319 11.8854V11.8841Z" fill="#EBEEF5"/>
<path d="M30.4131 11.2824H29.8808V12.7551H29.5998V11.2824H29.07V11.0143H30.4131V11.2824Z" fill="#EBEEF5"/>
<path d="M32.5375 11.8841C32.5349 12.3959 32.1449 12.7846 31.6344 12.7846C31.1238 12.7846 30.7313 12.3972 30.7313 11.8841C30.7313 11.3709 31.1238 10.9835 31.6344 10.9835C32.1449 10.9835 32.5349 11.3722 32.5375 11.8841ZM31.0148 11.8841C31.0148 12.2471 31.2803 12.5165 31.6344 12.5165C31.9884 12.5165 32.2514 12.2484 32.2514 11.8841C32.2514 11.5198 31.9846 11.2516 31.6344 11.2516C31.2842 11.2516 31.0148 11.5198 31.0148 11.8841Z" fill="#EBEEF5"/>
<path d="M35.0236 12.2869H34.2667L34.0897 12.7551H33.7908L34.4656 11.0143H34.8235L35.4982 12.7551H35.1993L35.0223 12.2869H35.0236ZM34.921 12.0213L34.6452 11.2927L34.3694 12.0213H34.9223H34.921Z" fill="#EBEEF5"/>
<path d="M35.7625 11.8841C35.7625 11.3697 36.1435 10.9835 36.6605 10.9835C37.0633 10.9835 37.384 11.2273 37.4943 11.5877H37.1928C37.1005 11.3838 36.9042 11.2516 36.6579 11.2516C36.3026 11.2516 36.046 11.5198 36.046 11.8841C36.046 12.2484 36.3026 12.5165 36.6579 12.5165C36.9042 12.5165 37.1005 12.3844 37.1928 12.1804H37.4943C37.3853 12.5409 37.0646 12.7846 36.6605 12.7846C36.1435 12.7846 35.7625 12.3985 35.7625 11.8841Z" fill="#EBEEF5"/>
<path d="M37.8856 11.8841C37.8856 11.3697 38.2666 10.9835 38.7836 10.9835C39.1864 10.9835 39.5071 11.2273 39.6174 11.5877H39.3159C39.2236 11.3838 39.0273 11.2516 38.781 11.2516C38.4256 11.2516 38.1691 11.5198 38.1691 11.8841C38.1691 12.2484 38.4256 12.5165 38.781 12.5165C39.0273 12.5165 39.2236 12.3844 39.3159 12.1804H39.6174C39.5083 12.5409 39.1876 12.7846 38.7836 12.7846C38.2666 12.7846 37.8856 12.3985 37.8856 11.8841Z" fill="#EBEEF5"/>
<path d="M40.3563 11.7327H41.1504V12.0008H40.3563V12.4857H41.2119V12.7538H40.0754V11.013H41.2119V11.2811H40.3563V11.7327Z" fill="#EBEEF5"/>
<path d="M42.7449 12.4857V12.7538H41.6699V11.013H41.9508V12.4857H42.7449Z" fill="#EBEEF5"/>
<path d="M43.4556 11.7327H44.2497V12.0008H43.4556V12.4857H44.3112V12.7538H43.1747V11.013H44.3112V11.2811H43.4556V11.7327Z" fill="#EBEEF5"/>
<path d="M45.3349 12.1047H45.0668V12.7538H44.7859V11.013H45.5043C45.8827 11.013 46.0969 11.2375 46.0969 11.5659C46.0969 11.852 45.9353 12.038 45.6595 12.0906L46.179 12.7551H45.8327L45.3349 12.106V12.1047ZM45.0668 11.8559H45.4748C45.7057 11.8559 45.8134 11.7366 45.8134 11.5672C45.8134 11.3979 45.7044 11.2811 45.4748 11.2811H45.0668V11.8559Z" fill="#EBEEF5"/>
<path d="M47.7159 12.2869H46.9603L46.7832 12.7551H46.4843L47.1591 11.0143H47.517L48.1918 12.7551H47.8929L47.7159 12.2869ZM47.6145 12.0213L47.3387 11.2927L47.0629 12.0213H47.6158H47.6145Z" fill="#EBEEF5"/>
<path d="M49.6016 11.2824H49.0692V12.7551H48.7883V11.2824H48.2585V11.0143H49.6016V11.2824Z" fill="#EBEEF5"/>
<path d="M50.3161 11.7327H51.1102V12.0008H50.3161V12.4857H51.1718V12.7538H50.0352V11.013H51.1718V11.2811H50.3161V11.7327Z" fill="#EBEEF5"/>
<path d="M11.7481 12.7552H3.20449C3.00052 12.7552 2.81323 12.6461 2.71189 12.4691L0 7.72521H3.68299L4.9966 10.0215C5.07356 10.1562 5.21724 10.2395 5.37246 10.2395H10.913C11.852 10.2395 12.4588 9.35696 12.0329 8.61164L9.99319 5.04539H13.6762L15.2079 7.72521C16.524 10.0279 14.646 12.7552 11.7468 12.7552H11.7481Z" fill="#EBEEF5"/>
<path d="M17.3592 5.04408H13.6775L12.3639 2.74783C12.2869 2.61313 12.1432 2.52975 11.988 2.52975H6.4475C5.50847 2.52975 4.9017 3.41233 5.32759 4.15765L7.366 7.7239H3.6843L2.15261 5.04408C0.836429 2.7427 2.7132 0.0141306 5.61366 0.0141306H14.156C14.36 0.0141306 14.5472 0.123172 14.6486 0.300202L17.3605 5.0428L17.3592 5.04408Z" fill="#EBEEF5"/>
</svg>
