<svg width="302" height="197" viewBox="0 0 302 197" fill="none" xmlns="http://www.w3.org/2000/svg">
<path fill-rule="evenodd" clip-rule="evenodd" d="M275.817 169.501C267.435 178.009 257.361 184.64 245.604 189.389C234.247 193.976 221.725 196.347 208.043 196.497V196.505C207.676 196.505 207.311 196.503 206.946 196.503C206.828 196.503 206.71 196.505 206.59 196.505C206.484 196.505 206.378 196.503 206.271 196.503C169.031 196.476 132.174 196.423 95.6624 196.34V196.44C94.0055 196.435 92.3657 196.397 90.7431 196.33C90.7191 196.328 90.6951 196.328 90.6711 196.327C86.4046 196.147 82.5339 193.77 80.3989 190.068L62.848 159.629L42.1974 171.565C36.9696 174.588 30.3454 173.733 26.1063 169.432C26.0806 169.408 26.0566 169.384 26.0309 169.358C17.6572 160.84 11.2232 150.507 6.72878 138.358C2.23438 126.213 -0.00854284 112.879 2.445e-05 98.3547C0.00687828 83.5812 2.26521 70.1254 6.77503 57.9821C11.2831 45.8421 17.7292 35.4522 26.1131 26.819C34.4953 18.1859 44.6287 11.5549 56.5116 6.92607C66.9465 2.86513 78.3942 0.590174 90.8545 0.101214C92.4771 0.0377354 94.1169 0.0034313 95.7738 0V0.0977914C132.286 0.0600471 169.144 0.0463214 206.383 0.0634778C206.491 0.0634778 206.595 0.0617614 206.703 0.0617614C206.818 0.0617614 206.933 0.0634778 207.047 0.0634778C207.418 0.0634778 207.786 0.0634737 208.154 0.0651893V0.0720599H208.257C214.275 0.147548 219.797 3.42786 222.806 8.64686L239.082 36.8744L260.077 24.7396C265.202 21.7767 271.701 22.638 275.827 26.8859C275.851 26.9117 275.875 26.9357 275.899 26.9614C284.273 35.6031 290.707 46 295.202 58.1467C299.698 70.2953 301.939 83.7545 301.93 98.5262C301.923 113.051 299.665 126.383 295.155 138.521C290.647 150.665 284.201 160.993 275.817 169.501ZM207.022 39.882C222.114 39.9712 234.314 45.36 243.618 56.0519C252.99 66.8245 257.673 80.9734 257.663 98.5022C257.653 116.029 253.014 130.11 243.757 140.747C234.569 151.303 222.302 156.615 206.965 156.685C167.366 156.654 128.667 156.56 90.7636 156.41C77.4398 155.333 66.6193 150.08 58.309 140.64C48.9347 129.993 44.2569 115.907 44.2672 98.3787C44.2775 80.8516 48.9707 66.7078 58.357 55.9456C66.6775 46.4066 77.5048 41.1035 90.8304 40.0261C128.73 39.918 167.425 39.8682 207.022 39.882Z" fill="white"/>
</svg>
