<svg width="637" height="415" viewBox="0 0 637 415" fill="none" xmlns="http://www.w3.org/2000/svg">
<path fill-rule="evenodd" clip-rule="evenodd" d="M581.733 357.498C564.054 375.443 542.807 389.428 518.009 399.444C494.056 409.12 467.646 414.121 438.789 414.436V414.454C438.015 414.454 437.246 414.45 436.476 414.45C436.226 414.45 435.977 414.454 435.724 414.454C435.5 414.454 435.276 414.45 435.052 414.45C356.507 414.392 278.772 414.28 201.764 414.106V414.316C198.269 414.306 194.811 414.226 191.388 414.085C191.338 414.081 191.287 414.081 191.237 414.078C182.238 413.698 174.074 408.686 169.571 400.877L132.554 336.677L88.9995 361.852C77.9735 368.227 64.0021 366.425 55.0614 357.354C55.0071 357.303 54.9566 357.252 54.9024 357.198C37.2413 339.232 23.6711 317.438 14.1918 291.815C4.71258 266.2 -0.0180179 238.077 5.15681e-05 207.442C0.0145072 176.283 4.77761 147.903 14.2894 122.291C23.7975 96.6867 37.393 74.773 55.0758 56.5646C72.755 38.3563 94.1275 24.3707 119.19 14.6079C141.199 6.04291 165.343 1.24475 191.623 0.213474C195.046 0.0795886 198.504 0.00723703 201.999 0V0.206254C279.007 0.126647 356.746 0.0976975 435.287 0.133883C435.514 0.133883 435.735 0.130263 435.963 0.130263C436.205 0.130263 436.447 0.133883 436.689 0.133883C437.47 0.133883 438.247 0.133874 439.024 0.137492V0.151983H439.24C451.932 0.311198 463.58 7.22979 469.926 18.2373L504.254 77.7727L548.535 52.179C559.345 45.9298 573.052 47.7463 581.754 56.7057C581.805 56.76 581.856 56.8107 581.906 56.8649C599.567 75.0914 613.138 97.0196 622.617 122.639C632.1 148.261 636.827 176.649 636.809 207.804C636.794 238.438 632.031 266.558 622.519 292.159C613.011 317.771 599.416 339.554 581.733 357.498ZM436.635 84.116C468.466 84.3042 494.197 95.6699 513.82 118.22C533.588 140.941 543.465 170.783 543.443 207.753C543.422 244.72 533.639 274.417 514.113 296.852C494.735 319.117 468.864 330.32 436.516 330.468C352.995 330.403 271.375 330.204 191.432 329.889C163.33 327.617 140.508 316.537 122.981 296.628C103.209 274.171 93.3434 244.463 93.3651 207.493C93.3868 170.526 103.285 140.695 123.082 117.996C140.631 97.8772 163.467 86.6924 191.573 84.4199C271.508 84.192 353.121 84.087 436.635 84.116Z" fill="white"/>
<path fill-rule="evenodd" clip-rule="evenodd" d="M581.733 357.498C564.054 375.443 542.807 389.428 518.009 399.444C494.056 409.12 467.646 414.121 438.789 414.436V414.454C438.015 414.454 437.246 414.45 436.476 414.45C436.226 414.45 435.977 414.454 435.724 414.454C435.5 414.454 435.276 414.45 435.052 414.45C356.507 414.392 278.772 414.28 201.764 414.106V414.316C198.269 414.306 194.811 414.226 191.388 414.085C191.338 414.081 191.287 414.081 191.237 414.078C182.238 413.698 174.074 408.686 169.571 400.877L132.554 336.677L88.9995 361.852C77.9735 368.227 64.0021 366.425 55.0614 357.354C55.0071 357.303 54.9566 357.252 54.9024 357.198C37.2413 339.232 23.6711 317.438 14.1918 291.815C4.71258 266.2 -0.0180179 238.077 5.15681e-05 207.442C0.0145072 176.283 4.77761 147.903 14.2894 122.291C23.7975 96.6867 37.393 74.773 55.0758 56.5646C72.755 38.3563 94.1275 24.3707 119.19 14.6079C141.199 6.04291 165.343 1.24475 191.623 0.213474C195.046 0.0795886 198.504 0.00723703 201.999 0V0.206254C279.007 0.126647 356.746 0.0976975 435.287 0.133883C435.514 0.133883 435.735 0.130263 435.963 0.130263C436.205 0.130263 436.447 0.133883 436.689 0.133883C437.47 0.133883 438.247 0.133874 439.024 0.137492V0.151983H439.24C451.932 0.311198 463.58 7.22979 469.926 18.2373L504.254 77.7727L548.535 52.179C559.345 45.9298 573.052 47.7463 581.754 56.7057C581.805 56.76 581.856 56.8107 581.906 56.8649C599.567 75.0914 613.138 97.0196 622.617 122.639C632.1 148.261 636.827 176.649 636.809 207.804C636.794 238.438 632.031 266.558 622.519 292.159C613.011 317.771 599.416 339.554 581.733 357.498ZM436.635 84.116C468.466 84.3042 494.197 95.6699 513.82 118.22C533.588 140.941 543.465 170.783 543.443 207.753C543.422 244.72 533.639 274.417 514.113 296.852C494.735 319.117 468.864 330.32 436.516 330.468C352.995 330.403 271.375 330.204 191.432 329.889C163.33 327.617 140.508 316.537 122.981 296.628C103.209 274.171 93.3434 244.463 93.3651 207.493C93.3868 170.526 103.285 140.695 123.082 117.996C140.631 97.8772 163.467 86.6924 191.573 84.4199C271.508 84.192 353.121 84.087 436.635 84.116Z" fill="#131316"/>
</svg>
